<?xml version="1.0" standalone="no"?>
<!DOCTYPE svg PUBLIC "-//W3C//DTD SVG 1.1//EN" "http://www.w3.org/Graphics/SVG/1.1/DTD/svg11.dtd" >
<svg>
<metadata>
Created by FontForge 20090622 at Wed Mar 29 11:57:02 2017
 By deploy user
</metadata>
<defs>
<font id="Circular-Bold" horiz-adv-x="578" >
  <font-face 
    font-family="Circular Bold"
    font-weight="700"
    font-stretch="normal"
    units-per-em="1000"
    panose-1="2 0 8 1 0 0 0 1 0 1"
    ascent="809"
    descent="-191"
    x-height="492"
    cap-height="709"
    bbox="-55 -254 1548 1039"
    underline-thickness="80"
    underline-position="-115"
    unicode-range="U+0020-U+FEFF"
  />
<missing-glyph horiz-adv-x="584" 
d="M71 709h442v-709h-442v709zM404 109v491h-224v-491h224z" />
    <glyph glyph-name="f_f" unicode="ff" horiz-adv-x="680" 
d="M553 492h111v-114h-111v-378h-133v378h-190v-378h-134v378h-82v114h82v56q0 42 12.5 75.5t36 57.5t56.5 37t74 13q21 0 39.5 -3t26.5 -7v-112q-5 2 -15 3.5t-27 1.5q-11 0 -23 -3t-22.5 -10.5t-17 -20.5t-6.5 -34v-54h190v56q0 42 12.5 75.5t36 57.5t56.5 37t74 13
q21 0 39.5 -3t26.5 -7v-112q-5 2 -15 3.5t-27 1.5q-11 0 -23 -3t-22.5 -10.5t-17.5 -20.5t-7 -34v-54z" />
    <glyph glyph-name="f_f_i" unicode="ffi" horiz-adv-x="957" 
d="M737 654q0 35 23.5 59t57.5 24q35 0 59 -24t24 -59q0 -34 -24 -57.5t-59 -23.5q-34 0 -57.5 23.5t-23.5 57.5zM420 550q0 41 12.5 74.5t36 57t56 36.5t73.5 13q21 0 39.5 -3t26.5 -7v-112q-5 2 -15 3.5t-27 1.5q-11 0 -23 -3t-22.5 -10.5t-17 -20.5t-6.5 -34v-54h332
v-492h-133v378h-199v-378h-133v378h-190v-378h-134v378h-82v114h82v56q0 42 12.5 75.5t36 57.5t56.5 37t74 13q21 0 39.5 -3t26.5 -7v-112q-5 2 -15 3.5t-27 1.5q-11 0 -23 -3t-22.5 -10.5t-17 -20.5t-6.5 -34v-54h190v58z" />
    <glyph glyph-name="f_f_l" unicode="ffl" horiz-adv-x="957" 
d="M420 548q0 84 48.5 133.5t129.5 49.5q21 0 39.5 -3t26.5 -7v-112q-5 2 -15 3.5t-27 1.5q-11 0 -23 -3t-22.5 -10.5t-17 -20.5t-6.5 -34v-54h200v232h133v-724h-133v378h-200v-378h-133v378h-190v-378h-134v378h-82v114h82v56q0 42 12.5 75.5t36 57.5t56.5 37t74 13
q21 0 39.5 -3t26.5 -7v-112q-5 2 -15 3.5t-27 1.5q-11 0 -23 -3t-22.5 -10.5t-17 -20.5t-6.5 -34v-54h190v56z" />
    <glyph glyph-name="f_i" unicode="fi" horiz-adv-x="631" 
d="M230 378v-378h-134v378h-82v114h82v56q0 42 12.5 75.5t36 57.5t56.5 37t74 13q21 0 39.5 -3t26.5 -7v-112q-5 2 -15 3.5t-27 1.5q-11 0 -23 -3t-22.5 -10.5t-17 -20.5t-6.5 -34v-54h329v-492h-132v378h-197zM411 654q0 35 24 59t58 24t58 -24t24 -59q0 -34 -24 -57.5
t-58 -23.5t-58 23.5t-24 57.5z" />
    <glyph glyph-name="f_l" unicode="fl" horiz-adv-x="630" 
d="M299 614q-11 0 -23 -3t-22.5 -10.5t-17 -20.5t-6.5 -34v-54h196v232h133v-724h-133v378h-196v-378h-134v378h-82v114h82v56q0 42 12.5 75.5t36 57.5t56.5 37t74 13q21 0 39.5 -3t26.5 -7v-112q-5 2 -15 3.5t-27 1.5z" />
    <glyph glyph-name=".notdef" horiz-adv-x="584" 
d="M71 709h442v-709h-442v709zM404 109v491h-224v-491h224z" />
    <glyph glyph-name=".null" horiz-adv-x="0" 
 />
    <glyph glyph-name="nonmarkingreturn" horiz-adv-x="247" 
 />
    <glyph glyph-name="space" unicode=" " horiz-adv-x="247" 
 />
    <glyph glyph-name="exclam" unicode="!" horiz-adv-x="334" 
d="M215 216h-97l-32 493h161zM88 71q0 33 23 56.5t55 23.5q33 0 56.5 -23.5t23.5 -56.5t-23.5 -56t-56.5 -23q-32 0 -55 23t-23 56z" />
    <glyph glyph-name="quotedbl" unicode="&#x22;" horiz-adv-x="402" 
d="M34 584q0 33 21.5 54.5t53.5 21.5t53 -21.5t21 -54.5q0 -6 -1 -13.5t-3 -12.5l-47 -183h-47l-47 183q-1 4 -2.5 11.5t-1.5 14.5zM219 584q0 33 21.5 54.5t53.5 21.5t53 -21.5t21 -54.5q0 -6 -1 -13.5t-3 -12.5l-47 -183h-47l-47 183q-1 4 -2.5 11.5t-1.5 14.5z" />
    <glyph glyph-name="numbersign" unicode="#" horiz-adv-x="742" 
d="M91 492h143l34 156h105l-34 -156h131l34 156h104l-34 -156h127v-96h-147l-30 -140h127v-95h-148l-34 -161h-104l34 161h-131l-34 -161h-105l34 161h-122v95h143l30 140h-123v96zM289 256h131l30 140h-131z" />
    <glyph glyph-name="dollar" unicode="$" horiz-adv-x="596" 
d="M258 -117v107q-52 7 -91 28t-65 49.5t-40.5 62t-17.5 65.5l124 30q2 -24 11.5 -45.5t26.5 -38.5t42 -27t60 -10q49 0 76 21t27 54q0 26 -18.5 44.5t-56.5 26.5l-92 20q-81 18 -128 67t-47 121q0 40 14.5 74t40 60t60 43.5t74.5 23.5v107h102v-110q43 -8 74.5 -26t53 -41
t34 -49.5t17.5 -51.5l-123 -35q-2 13 -8.5 29t-20 30.5t-34 24t-51.5 9.5q-48 0 -73.5 -23.5t-25.5 -54.5q0 -23 17 -41t52 -26l91 -21q95 -21 139 -73t44 -120q0 -35 -12 -67t-36 -58.5t-58.5 -45t-79.5 -25.5v-108h-102z" />
    <glyph glyph-name="percent" unicode="%" horiz-adv-x="854" 
d="M144 496q0 -32 19 -51t47 -19q29 0 47.5 19.5t18.5 50.5t-18.5 50t-47.5 19q-28 0 -47 -19t-19 -50zM44 496q0 34 13.5 64t36 52.5t52.5 35t64 12.5t64 -12.5t53 -35t36.5 -52.5t13.5 -64q0 -35 -13.5 -65t-36.5 -51.5t-53 -34t-64 -12.5t-64.5 12.5t-53 34.5t-35.5 52
t-13 64zM581 152q0 -32 19 -51t47 -19q29 0 47.5 19.5t18.5 50.5t-18.5 50t-47.5 19q-28 0 -47 -19t-19 -50zM481 152q0 34 13.5 64t36 52.5t52.5 35t64 12.5t64 -12.5t53 -35t36.5 -52.5t13.5 -64q0 -35 -13.5 -65t-36.5 -51.5t-53 -34t-64 -12.5t-64.5 12.5t-53 34.5
t-35.5 52t-13 64zM142 0l458 649h116l-458 -649h-116z" />
    <glyph glyph-name="ampersand" unicode="&#x26;" horiz-adv-x="717" 
d="M472 77q-40 -41 -86.5 -65.5t-103.5 -24.5q-52 0 -92 16.5t-67.5 43t-41.5 60.5t-14 70q0 33 8.5 59.5t24 49.5t38 43.5t50.5 41.5l5 3l-11 12q-13 13 -26.5 30t-25 36.5t-19 41.5t-7.5 46q0 45 17 79.5t45 58t63 35.5t71 12q42 0 78.5 -13t62.5 -36.5t41 -56.5t15 -73
q0 -27 -8.5 -50.5t-22.5 -43.5t-32 -37t-37 -31l-27 -20l107 -113l179 187v-166l-99 -104l160 -168h-172zM284 103q32 0 57 16t51 43l-121 128l-15 -11q-26 -19 -41.5 -40.5t-15.5 -53.5q0 -31 23 -56.5t62 -25.5zM230 544q0 -23 14 -43t28 -34l19 -21l35 26q25 18 35 36.5
t10 38.5q0 29 -20 48.5t-52 19.5q-25 0 -47 -17.5t-22 -53.5z" />
    <glyph glyph-name="quotesingle" unicode="'" horiz-adv-x="217" 
d="M34 584q0 33 21.5 54.5t53.5 21.5t53 -21.5t21 -54.5q0 -6 -1 -13.5t-3 -12.5l-47 -183h-47l-47 183q-1 4 -2.5 11.5t-1.5 14.5z" />
    <glyph glyph-name="parenleft" unicode="(" horiz-adv-x="330" 
d="M43 322q0 86 16.5 158t45 133t66.5 112t82 94l77 -71q-40 -43 -72.5 -89.5t-55 -99t-35 -111.5t-12.5 -126q0 -135 47.5 -238.5t127.5 -188.5l-77 -70q-44 43 -82 93.5t-66.5 111.5t-45 133.5t-16.5 158.5z" />
    <glyph glyph-name="parenright" unicode=")" horiz-adv-x="330" 
d="M287 322q0 -86 -16.5 -158.5t-45 -133.5t-66.5 -111.5t-82 -93.5l-77 70q80 85 127.5 188.5t47.5 238.5q0 67 -12.5 126t-35 111.5t-55 99t-72.5 89.5l77 71q44 -43 82 -94t66.5 -112t45 -133t16.5 -158z" />
    <glyph glyph-name="asterisk" unicode="*" horiz-adv-x="455" 
d="M281 582l116 39l33 -98l-118 -38l74 -100l-83 -61l-76 101l-74 -101l-83 62l73 99l-118 38l32 98l117 -39v127h107v-127z" />
    <glyph glyph-name="plus" unicode="+" horiz-adv-x="589" 
d="M238 349v195h112v-195h190v-109h-190v-196h-112v196h-189v109h189z" />
    <glyph glyph-name="comma" unicode="," horiz-adv-x="312" 
d="M61 80q0 36 26 60t65 24q47 0 73 -33t26 -82q0 -55 -17 -95t-43 -66t-57 -40t-59 -17v64q17 4 33.5 13.5t30 23.5t22 32t9.5 39q-8 -6 -26 -6q-37 0 -60 23.5t-23 59.5z" />
    <glyph glyph-name="hyphen" unicode="-" horiz-adv-x="380" 
d="M45 238v118h290v-118h-290z" />
    <glyph glyph-name="period" unicode="." horiz-adv-x="311" 
d="M64 84q0 38 26.5 64.5t64.5 26.5q19 0 36 -7t29.5 -19.5t19.5 -29t7 -35.5t-7 -35.5t-19.5 -29t-29.5 -19.5t-36 -7q-38 0 -64.5 26.5t-26.5 64.5z" />
    <glyph glyph-name="slash" unicode="/" horiz-adv-x="475" 
d="M120 -9h-120l354 727h121z" />
    <glyph glyph-name="zero" unicode="0" horiz-adv-x="624" 
d="M179 324q0 -51 8 -93.5t27 -71.5q15 -24 39 -38.5t59 -14.5q36 0 59 14.5t38 38.5q20 29 28 71.5t8 93.5t-8 93.5t-28 71.5q-15 24 -38 38.5t-59 14.5q-35 0 -59 -14.5t-39 -38.5q-19 -29 -27 -71.5t-8 -93.5zM41 324q0 63 12 121.5t45 109.5q32 48 85 78.5t129 30.5
t128.5 -30.5t84.5 -78.5q33 -51 45.5 -109.5t12.5 -121.5t-12.5 -121.5t-45.5 -109.5q-32 -48 -84.5 -78.5t-128.5 -30.5t-129 30.5t-85 78.5q-33 51 -45 109.5t-12 121.5z" />
    <glyph glyph-name="one" unicode="1" horiz-adv-x="396" 
d="M187 0v434h-156v93q71 1 117.5 36t56.5 86h119v-649h-137z" />
    <glyph glyph-name="two" unicode="2" horiz-adv-x="543" 
d="M42 402q-2 7 -3.5 20t-1.5 25q0 43 16 82t46 69t74 48t101 18q54 0 97.5 -17t74 -45.5t46.5 -66.5t16 -80q0 -63 -33 -113.5t-93 -87.5l-125 -76q-19 -12 -33.5 -26t-22.5 -33h311v-119h-480q0 43 8 81.5t25.5 73.5t46.5 65.5t73 56.5l107 64q42 25 59.5 51.5t17.5 60.5
q0 35 -24.5 62t-73.5 27q-52 0 -77.5 -31t-25.5 -77q0 -18 5 -36z" />
    <glyph glyph-name="three" unicode="3" horiz-adv-x="549" 
d="M153 384l170 146h-284v119h459v-111l-168 -140q37 -2 71 -16t60 -39.5t41.5 -61.5t15.5 -81q0 -42 -17 -81t-49 -68.5t-78 -47.5t-105 -18q-57 0 -102 17t-77 45.5t-50.5 66t-21.5 78.5l133 26q2 -50 34.5 -82t83.5 -32q52 0 81 28.5t29 69.5q0 46 -29.5 71t-76.5 25
q-21 0 -34.5 -3t-24.5 -7z" />
    <glyph glyph-name="four" unicode="4" horiz-adv-x="597" 
d="M32 283l273 366h170v-392h107v-118h-107v-139h-136v139h-307v144zM339 505l-185 -248h185v248z" />
    <glyph glyph-name="five" unicode="5" horiz-adv-x="554" 
d="M158 211q1 -23 10 -42.5t24.5 -34.5t36.5 -23.5t47 -8.5q47 0 79.5 28.5t32.5 77.5q0 28 -9.5 48.5t-25.5 34t-37 20t-43 6.5q-33 0 -58.5 -13t-41.5 -31q-5 2 -23.5 8.5l-39.5 13.5l-39.5 13t-23.5 8l77 333h366v-119h-272l-32 -143q21 20 53 30t64 10q49 0 89.5 -14.5
t70 -42t46 -68t16.5 -92.5q0 -45 -17 -86t-49 -72t-78.5 -49.5t-104.5 -18.5q-53 0 -97 16.5t-76.5 44t-51.5 63.5t-22 74z" />
    <glyph glyph-name="six" unicode="6" horiz-adv-x="582" 
d="M500 522q-21 9 -48.5 16t-58.5 7q-41 0 -78 -12t-65.5 -35.5t-47 -58t-24.5 -80.5q18 27 57.5 49.5t96.5 22.5q50 0 91 -15t70.5 -43.5t46 -69t16.5 -90.5t-19 -92t-53 -72t-79.5 -47t-99.5 -17q-53 0 -101 19t-84 56.5t-57 93t-21 129.5q0 87 26 157.5t73.5 120
t114 76.5t146.5 27q45 0 80.5 -9t55.5 -21zM190 210q0 -25 9.5 -45t25 -34.5t36 -22t43.5 -7.5q24 0 44.5 7.5t36.5 22t25 34.5t9 45t-9 45t-25 34t-36.5 21.5t-44.5 7.5q-23 0 -44 -7.5t-36.5 -21.5t-24.5 -34t-9 -45z" />
    <glyph glyph-name="seven" unicode="7" horiz-adv-x="503" 
d="M498 534l-34 -31.5t-48.5 -53t-55 -76t-53 -99t-43.5 -124t-26 -150.5h-143q5 65 18 122.5t31 107t39.5 91.5t43.5 75q51 78 112 134h-334v119h493v-115z" />
    <glyph glyph-name="eight" unicode="8" horiz-adv-x="568" 
d="M284 383q46 1 71 25.5t25 59.5q0 32 -25 57t-71 25q-45 0 -70 -25t-25 -57q0 -35 25 -59.5t70 -25.5zM284 99q27 0 47.5 7.5t34.5 20t21 29t7 33.5q0 18 -7 34.5t-20.5 29t-34.5 20.5t-48 8t-47.5 -8t-34 -20.5t-20.5 -29t-7 -34.5q0 -17 7 -33.5t21 -29t34 -20t47 -7.5z
M284 -15q-56 0 -101 14t-77 39t-49.5 60t-17.5 77q0 53 31.5 95.5t83.5 62.5q-24 9 -43 24.5t-32 35t-20 41.5t-7 44q0 41 17.5 75t48 59t73 38.5t93.5 13.5t93.5 -13.5t73 -38.5t48 -59t17.5 -75q0 -21 -6.5 -43t-19.5 -41.5t-32 -35.5t-43 -25q51 -19 82.5 -62t31.5 -96
q0 -42 -17.5 -77t-49.5 -60t-77.5 -39t-100.5 -14z" />
    <glyph glyph-name="nine" unicode="9" horiz-adv-x="583" 
d="M87 132q17 -10 49 -19t66 -9q89 0 144 47t62 137q-20 -31 -59.5 -50.5t-90.5 -19.5q-45 0 -86 15t-71.5 43.5t-48.5 69t-18 90.5t18.5 92t52 72t79 47t99.5 17q53 0 100 -19t82.5 -57t56 -95.5t20.5 -135.5q0 -88 -22 -157t-64.5 -117t-106 -73t-146.5 -25q-42 0 -83 10
t-67 26zM390 440q0 24 -9 43.5t-24 34t-35.5 22t-43.5 7.5t-43 -7.5t-35 -22t-24 -34t-9 -43.5q0 -49 32.5 -78t78.5 -29q23 0 43.5 7.5t35.5 22t24 34t9 43.5z" />
    <glyph glyph-name="colon" unicode=":" horiz-adv-x="312" 
d="M67 82q0 38 26 64t63 26q19 0 35.5 -7t29 -19t19.5 -28.5t7 -35.5q0 -18 -7 -34.5t-19.5 -28.5t-29 -19t-35.5 -7q-37 0 -63 26t-26 63zM66 409q0 38 26 64t63 26q19 0 35.5 -7t29 -19t19.5 -28.5t7 -35.5q0 -18 -7 -34.5t-19.5 -28.5t-29 -19t-35.5 -7q-37 0 -63 26
t-26 63z" />
    <glyph glyph-name="semicolon" unicode=";" horiz-adv-x="314" 
d="M68 75q0 34 24.5 57t61.5 23q45 0 69.5 -31.5t24.5 -77.5q0 -53 -16 -91t-40.5 -62.5t-54 -38t-56.5 -16.5v61q16 4 32 13t28.5 22.5t21 30.5t8.5 37q-7 -6 -24 -6q-35 0 -57 22.5t-22 56.5zM67 409q0 38 26 64t63 26q19 0 35.5 -7t29 -19t19.5 -28.5t7 -35.5
q0 -18 -7 -34.5t-19.5 -28.5t-29 -19t-35.5 -7q-37 0 -63 26t-26 63z" />
    <glyph glyph-name="less" unicode="&#x3c;" horiz-adv-x="497" 
d="M35 345l430 217v-123l-296 -143l296 -143v-125l-430 216v101z" />
    <glyph glyph-name="equal" unicode="=" horiz-adv-x="603" 
d="M59 341v107h485v-107h-485zM59 142v108h485v-108h-485z" />
    <glyph glyph-name="greater" unicode="&#x3e;" horiz-adv-x="497" 
d="M462 245l-430 -217v123l296 143l-296 143v125l430 -217v-100z" />
    <glyph glyph-name="question" unicode="?" horiz-adv-x="529" 
d="M195 216q-2 10 -3 20t-1 21q0 40 18 76.5t61 68.5l48 36q43 32 43 79q0 17 -6 33.5t-18.5 29t-31.5 20t-44 7.5q-27 0 -46 -10t-31.5 -25.5t-18.5 -36t-6 -41.5q0 -20 4 -32l-126 5q-3 11 -4 22.5t-1 22.5q0 40 15 78.5t44 68t71.5 47.5t98.5 18q58 0 102 -17t74 -44.5
t45 -63.5t15 -74q0 -60 -27 -102.5t-72 -74.5l-41 -29q-26 -19 -40 -42.5t-14 -54.5v-6h-108zM172 71q0 33 23 56.5t56 23.5t56.5 -23.5t23.5 -56.5t-23.5 -56t-56.5 -23t-56 23t-23 56z" />
    <glyph glyph-name="at" unicode="@" horiz-adv-x="827" 
d="M589 139q-42 0 -66 18t-31 43q-19 -31 -50.5 -47t-65.5 -16q-33 0 -60.5 12.5t-48 35.5t-32 55t-11.5 70q0 49 16 90.5t43 71.5t62.5 46.5t75.5 16.5q29 0 57.5 -14t39.5 -43l8 44h95l-52 -245q-2 -10 -2 -18q0 -13 8 -23t24 -10q18 0 36 13t31.5 35.5t22 53.5t8.5 67
q0 53 -19.5 97t-54 75.5t-83.5 49t-107 17.5q-63 0 -116.5 -21.5t-92.5 -61.5t-61.5 -95.5t-22.5 -122.5q0 -62 20.5 -115.5t59 -92.5t94.5 -61.5t127 -22.5q48 0 95 13.5t89 45.5l48 -68q-20 -18 -48 -33t-59 -25.5t-63 -16t-62 -5.5q-88 0 -161.5 27.5t-127 77
t-83.5 119.5t-30 155q0 87 31 159.5t84.5 124.5t125 81t152.5 29q77 0 143 -25t114 -69t75.5 -104.5t27.5 -130.5q0 -57 -17 -104t-45.5 -81t-65 -52.5t-75.5 -19.5zM496 366q0 36 -17.5 57.5t-50.5 21.5q-23 0 -41.5 -10.5t-31.5 -27.5t-20.5 -40t-7.5 -48q0 -40 16.5 -66
t54.5 -26q42 0 69 39.5t29 99.5z" />
    <glyph glyph-name="A" unicode="A" horiz-adv-x="722" 
d="M503 162h-288l-59 -162h-146l272 709h160l270 -709h-150zM261 288h196l-98 268z" />
    <glyph glyph-name="B" unicode="B" horiz-adv-x="610" 
d="M336 709q52 0 92 -14.5t67.5 -40t42 -60.5t14.5 -76q0 -55 -29 -96t-74 -56q26 -6 48.5 -21t39.5 -36.5t27 -49.5t10 -61q0 -43 -15.5 -79.5t-44 -62.5t-69 -41t-90.5 -15h-274v709h255zM315 416q48 0 74.5 24t26.5 65t-25.5 64.5t-76.5 23.5h-97v-177h98zM329 115
q51 0 79 24.5t28 67.5q0 42 -26.5 68.5t-78.5 26.5h-114v-187h112z" />
    <glyph glyph-name="C" unicode="C" horiz-adv-x="764" 
d="M402 -15q-74 0 -140 26t-115.5 74t-78.5 116t-29 153t29.5 153.5t79.5 116.5t115.5 74t136.5 26q73 0 129.5 -20.5t96 -54t64 -75.5t35.5 -85l-130 -41q-6 25 -20 51t-37.5 46t-57.5 33t-80 13q-40 0 -79 -14.5t-70 -43.5t-50 -74t-19 -105q0 -57 18.5 -100.5t49 -73
t70 -45t82.5 -15.5q45 0 79.5 13.5t58.5 34.5t39 46.5t22 50.5l129 -39q-10 -41 -34.5 -83.5t-65 -77.5t-97 -57.5t-131.5 -22.5z" />
    <glyph glyph-name="D" unicode="D" horiz-adv-x="724" 
d="M329 128q43 0 82 13.5t68 41.5t46 70.5t17 100.5t-17 100.5t-45.5 70.5t-67.5 42t-82 14h-111v-453h110zM81 0v709h254q76 0 140 -24t110.5 -69.5t73 -111.5t26.5 -150t-26.5 -150t-73.5 -111t-111 -69t-140 -24h-253z" />
    <glyph glyph-name="E" unicode="E" horiz-adv-x="582" 
d="M81 0v709h444v-130h-306v-162h277v-123h-277v-164h306v-130h-444z" />
    <glyph glyph-name="F" unicode="F" horiz-adv-x="562" 
d="M81 0v709h448v-131h-310v-175h276v-127h-275v-276h-139z" />
    <glyph glyph-name="G" unicode="G" horiz-adv-x="781" 
d="M611 0l-9 81q-12 -18 -31 -35.5t-45.5 -31t-59.5 -21.5t-73 -8q-72 0 -136 25.5t-112.5 73t-77 116t-28.5 154.5t29.5 154.5t80 116.5t116 73.5t137.5 25.5q70 0 124.5 -18.5t94.5 -49.5t66 -70t39 -80l-132 -47q-7 24 -21.5 48t-38 43.5t-56.5 32t-76 12.5
q-40 0 -80 -14t-71.5 -43.5t-51.5 -75t-20 -108.5q0 -60 18.5 -105.5t49 -76t71 -46t85.5 -15.5q49 0 84 14.5t57.5 35.5t34 45t14.5 43h-224v120h354v-369h-112z" />
    <glyph glyph-name="H" unicode="H" horiz-adv-x="748" 
d="M528 0v294h-309v-294h-138v709h138v-285h309v285h139v-709h-139z" />
    <glyph glyph-name="I" unicode="I" horiz-adv-x="302" 
d="M81 0v709h140v-709h-140z" />
    <glyph glyph-name="J" unicode="J" horiz-adv-x="557" 
d="M20 263l133 24v-65q1 -55 28.5 -80.5t69.5 -25.5q44 0 69 28t25 75v490h138v-490q0 -48 -16.5 -90.5t-47 -74.5t-73 -50.5t-94.5 -18.5q-53 0 -95.5 16.5t-73 47t-47 73t-16.5 94.5v47z" />
    <glyph glyph-name="K" unicode="K" horiz-adv-x="698" 
d="M307 294l-88 -97v-197h-138v709h138v-321l284 321h181l-281 -309l283 -400h-173z" />
    <glyph glyph-name="L" unicode="L" horiz-adv-x="560" 
d="M81 0v709h138v-577h316v-132h-454z" />
    <glyph glyph-name="M" unicode="M" horiz-adv-x="953" 
d="M736 0v497l-204 -497h-115l-204 493v-493h-132v709h182l213 -512l208 512h188v-709h-136z" />
    <glyph glyph-name="N" unicode="N" horiz-adv-x="767" 
d="M541 0l-322 503v-503h-138v709h172l295 -469v469h138v-709h-145z" />
    <glyph glyph-name="O" unicode="O" horiz-adv-x="807" 
d="M182 355q0 -60 19 -104.5t50.5 -73.5t71 -43.5t80.5 -14.5t81 14.5t71.5 43.5t50.5 73.5t19 104.5t-19 104.5t-50.5 73.5t-71.5 43.5t-81 14.5t-80.5 -14.5t-71 -43.5t-50.5 -73.5t-19 -104.5zM39 354q0 86 30 154.5t80 116.5t116 73.5t138 25.5t138.5 -25.5t116.5 -73.5
t80 -116.5t30 -154.5t-30 -154t-80 -116t-116.5 -73.5t-138.5 -25.5t-138 25.5t-116 73.5t-80 116t-30 154z" />
    <glyph glyph-name="P" unicode="P" horiz-adv-x="606" 
d="M329 386q52 0 81.5 27.5t29.5 73.5q0 48 -29.5 75t-81.5 27h-109v-203h109zM219 267v-267h-138v709h265q52 0 95 -16.5t74 -46t47.5 -70t16.5 -88.5t-16.5 -89t-47.5 -70t-74 -45.5t-95 -16.5h-127z" />
    <glyph glyph-name="Q" unicode="Q" horiz-adv-x="807" 
d="M39 354q0 86 30 154.5t80 116.5t116 73.5t138 25.5t138.5 -25.5t116.5 -73.5t80 -116.5t30 -154.5q0 -75 -23 -136.5t-64 -108.5l85 -94l-91 -78l-87 96q-42 -23 -88.5 -35.5t-96.5 -12.5q-72 0 -138 25.5t-116 73.5t-80 116t-30 154zM182 355q0 -60 19 -104.5
t50.5 -73.5t71 -43.5t80.5 -14.5q49 0 91 18l-111 122l92 79l111 -124q18 27 28.5 62t10.5 79q0 60 -19 104.5t-50.5 73.5t-71.5 43.5t-81 14.5t-80.5 -14.5t-71 -43.5t-50.5 -73.5t-19 -104.5z" />
    <glyph glyph-name="R" unicode="R" horiz-adv-x="625" 
d="M292 273h-72v-273h-139v709h277q52 0 93.5 -17t71 -46t45.5 -69t16 -86q0 -75 -40.5 -128t-110.5 -73l152 -290h-154zM332 392q53 0 82 27t29 71q0 45 -29 72t-82 27h-112v-197h112z" />
    <glyph glyph-name="S" unicode="S" horiz-adv-x="604" 
d="M434 502q-3 15 -10.5 32.5t-22.5 32.5t-38.5 25t-57.5 10q-25 0 -45.5 -7.5t-35 -20t-22.5 -28.5t-8 -34q0 -29 19 -50.5t58 -29.5l99 -19q48 -9 85 -29t62 -47.5t38 -61.5t13 -71q0 -41 -17 -80.5t-49.5 -70t-80 -49.5t-109.5 -19q-71 0 -122 20.5t-85.5 52.5
t-52.5 71.5t-22 77.5l128 34q2 -26 12.5 -50t29.5 -42.5t47 -29.5t66 -11q56 0 85.5 24.5t29.5 62.5q0 31 -22 53.5t-64 30.5l-99 20q-85 17 -135.5 69.5t-50.5 133.5q0 47 19.5 87.5t53.5 70.5t79 47t95 17q64 0 109.5 -17.5t75.5 -44.5t46.5 -59.5t22.5 -62.5z" />
    <glyph glyph-name="T" unicode="T" horiz-adv-x="619" 
d="M379 578v-578h-139v578h-224v131h587v-131h-224z" />
    <glyph glyph-name="U" unicode="U" horiz-adv-x="693" 
d="M346 -16q-57 0 -106.5 17t-86 51t-58 84t-21.5 115v458h138v-448q0 -70 36 -106t98 -36q63 0 99 36t36 106v448h138v-458q0 -65 -21.5 -115t-58 -84t-86.5 -51t-107 -17z" />
    <glyph glyph-name="V" unicode="V" horiz-adv-x="687" 
d="M531 709h146l-263 -709h-142l-262 709h151l185 -527z" />
    <glyph glyph-name="W" unicode="W" horiz-adv-x="1027" 
d="M874 709h141l-196 -709h-142l-162 505l-162 -505h-144l-197 709h146l130 -488l157 488h143l158 -490z" />
    <glyph glyph-name="X" unicode="X" horiz-adv-x="669" 
d="M419 354l233 -354h-167l-153 245l-154 -245h-162l233 355l-232 354h166l152 -245l155 245h161z" />
    <glyph glyph-name="Y" unicode="Y" horiz-adv-x="655" 
d="M10 709h162l159 -281l159 281h155l-250 -411v-298h-138v298z" />
    <glyph glyph-name="Z" unicode="Z" horiz-adv-x="640" 
d="M39 0v134l369 444h-356v131h540v-129l-375 -448h380v-132h-558z" />
    <glyph glyph-name="bracketleft" unicode="[" horiz-adv-x="317" 
d="M81 -164v974h231v-101h-120v-770h120v-103h-231z" />
    <glyph glyph-name="backslash" unicode="\" horiz-adv-x="476" 
d="M0 718h123l353 -727h-122z" />
    <glyph glyph-name="bracketright" unicode="]" horiz-adv-x="317" 
d="M5 -164v103h119v770h-119v101h231v-974h-231z" />
    <glyph glyph-name="asciicircum" unicode="^" horiz-adv-x="530" 
d="M389 351l-123 231l-123 -231h-127l198 358h102l198 -358h-125z" />
    <glyph glyph-name="underscore" unicode="_" horiz-adv-x="523" 
d="M6 -109v109h511v-109h-511z" />
    <glyph glyph-name="grave" unicode="`" horiz-adv-x="296" 
d="M26 701h154l90 -150h-108z" />
    <glyph glyph-name="a" unicode="a" horiz-adv-x="539" 
d="M41 134q0 33 11.5 58.5t31.5 44.5t46.5 30t57.5 16l121 18q21 3 29 12.5t8 22.5q0 26 -20.5 45t-62.5 19q-44 0 -67.5 -24t-26.5 -56l-118 25q3 29 18 58t41 52t64 37.5t88 14.5q58 0 99 -15.5t66.5 -41t37 -59.5t11.5 -71v-242q0 -20 2 -42.5t4 -35.5h-122
q-2 10 -3.5 27.5t-1.5 31.5q-19 -29 -54.5 -51t-90.5 -22q-39 0 -70.5 12.5t-53.5 33t-33.5 47t-11.5 55.5zM238 85q21 0 40.5 5.5t34.5 19t24 35t9 54.5v22l-111 -17q-26 -4 -43.5 -18.5t-17.5 -43.5q0 -22 16 -39.5t48 -17.5z" />
    <glyph glyph-name="b" unicode="b" horiz-adv-x="612" 
d="M71 0v724h131v-286q17 26 55.5 46.5t93.5 20.5q54 0 96 -19.5t71.5 -54t44.5 -81.5t15 -102q0 -56 -16.5 -103.5t-47 -82.5t-73.5 -54.5t-95 -19.5q-51 0 -88.5 20t-57.5 52v-60h-129zM445 247q0 68 -35.5 103.5t-86.5 35.5q-25 0 -47.5 -9t-39 -26.5t-26.5 -43.5
t-10 -60q0 -33 10 -59t26.5 -44t39 -27.5t47.5 -9.5q51 0 86.5 36t35.5 104z" />
    <glyph glyph-name="c" unicode="c" horiz-adv-x="550" 
d="M292 384q-26 0 -48.5 -9t-39.5 -26.5t-27 -43.5t-10 -59t10 -59t27.5 -44t40 -27t48.5 -9q25 0 44.5 7.5t33.5 19.5t22.5 27t12.5 29l117 -39q-8 -31 -26.5 -60.5t-47.5 -53t-68 -38t-88 -14.5q-54 0 -101.5 19.5t-82.5 54.5t-55 82.5t-20 104.5t19.5 105t54 82.5t81 54
t100.5 19.5q50 0 89.5 -14.5t68.5 -37.5t47 -53t26 -61l-119 -40q-9 31 -34.5 57t-74.5 26z" />
    <glyph glyph-name="d" unicode="d" horiz-adv-x="613" 
d="M540 89q0 -25 1 -49.5t3 -39.5h-127q-2 8 -3.5 24t-1.5 33q-17 -29 -52.5 -49t-85.5 -20q-53 0 -97 19.5t-75.5 54t-49.5 82t-18 103.5q0 54 17.5 101t48.5 81.5t74.5 54.5t95.5 20q32 0 55.5 -6t40.5 -15t27.5 -19.5t15.5 -20.5v281h131v-635zM168 247q0 -66 34.5 -103
t87.5 -37q51 0 86 37t35 104q0 66 -35 101.5t-86 35.5t-86.5 -36t-35.5 -102z" />
    <glyph glyph-name="e" unicode="e" horiz-adv-x="553" 
d="M388 302q-1 18 -7.5 35.5t-20 31t-34 22t-48.5 8.5q-26 0 -46 -9t-34 -23t-21.5 -31t-8.5 -34h220zM512 141q-9 -32 -28.5 -60.5t-47.5 -49.5t-65.5 -33.5t-82.5 -12.5q-51 0 -97 17.5t-81 51.5t-55.5 83t-20.5 111q0 59 20 107t53.5 81.5t77.5 52t91 18.5q115 0 179 -68
t64 -187q0 -14 -1 -26.5t-1 -14.5h-352q1 -24 11.5 -44.5t27 -35.5t38.5 -23.5t47 -8.5q47 0 73.5 21t38.5 54z" />
    <glyph glyph-name="f" unicode="f" horiz-adv-x="356" 
d="M299 614q-11 0 -23.5 -3t-22.5 -10.5t-16.5 -20.5t-6.5 -34v-54h111v-114h-111v-378h-134v378h-82v114h82v56q0 42 12.5 75.5t36 57.5t56.5 37t74 13q21 0 39.5 -3t26.5 -7v-112q-5 2 -15 3.5t-27 1.5z" />
    <glyph glyph-name="g" unicode="g" horiz-adv-x="597" 
d="M156 5q7 -41 37 -67t78 -26q63 0 97 32.5t34 104.5v36q-15 -24 -49 -43.5t-88 -19.5q-49 0 -91 18t-72.5 50t-48 75.5t-17.5 95.5q0 49 17 92.5t47 76.5t72 52t93 19q59 0 93 -21t47 -46v58h128v-439q0 -51 -14.5 -97.5t-45.5 -82t-80 -57t-118 -21.5q-51 0 -92.5 14.5
t-72.5 39t-50 57t-24 67.5zM288 136q51 0 83.5 34t32.5 91t-34 90.5t-82 33.5q-25 0 -46.5 -8.5t-37.5 -25t-25 -39.5t-9 -51q0 -58 33 -91.5t85 -33.5z" />
    <glyph glyph-name="h" unicode="h" horiz-adv-x="584" 
d="M204 0h-133v724h133v-273q24 29 61 41.5t72 12.5q47 0 81.5 -15.5t57 -41.5t33.5 -62t11 -76v-310h-133v287q0 42 -21.5 70t-69.5 28q-42 0 -66 -27.5t-26 -68.5v-289z" />
    <glyph glyph-name="i" unicode="i" horiz-adv-x="275" 
d="M71 0v492h133v-492h-133zM55 653q0 35 24 59t58 24q35 0 58.5 -24t23.5 -59q0 -33 -23.5 -57t-58.5 -24q-34 0 -58 24t-24 57z" />
    <glyph glyph-name="j" unicode="j" horiz-adv-x="275" 
d="M71 492h133v-535q0 -36 -10.5 -65.5t-30.5 -51t-48.5 -33.5t-64.5 -12q-29 0 -49.5 4.5t-25.5 6.5v111q7 -2 17 -3.5t24 -1.5q30 0 42.5 15.5t12.5 42.5v522zM55 654q0 35 24 59t58 24q35 0 58.5 -24t23.5 -59q0 -34 -23.5 -57.5t-58.5 -23.5q-34 0 -58 23.5t-24 57.5z
" />
    <glyph glyph-name="k" unicode="k" horiz-adv-x="559" 
d="M351 285l201 -285h-163l-130 188l-55 -58v-130h-133v724h133v-415l170 183h174z" />
    <glyph glyph-name="l" unicode="l" horiz-adv-x="275" 
d="M71 0v724h133v-724h-133z" />
    <glyph glyph-name="m" unicode="m" horiz-adv-x="886" 
d="M71 0v492h127v-60q10 18 26 32t35.5 23t41 14t41.5 5q51 0 89 -21t57 -61q29 45 68 63.5t88 18.5q34 0 66 -10.5t57 -33.5t40 -58.5t15 -84.5v-319h-129v292q0 40 -20.5 66.5t-66.5 26.5q-43 0 -67 -28.5t-24 -68.5v-288h-132v292q0 40 -21 66.5t-66 26.5q-44 0 -68 -28
t-24 -69v-288h-133z" />
    <glyph glyph-name="n" unicode="n" horiz-adv-x="584" 
d="M204 0h-133v492h129v-61q23 38 62.5 56t79.5 18q46 0 79.5 -15.5t55.5 -41.5t32.5 -62t10.5 -76v-310h-133v287q0 42 -21.5 70t-69.5 28q-44 0 -68 -29.5t-24 -72.5v-283z" />
    <glyph glyph-name="o" unicode="o" horiz-adv-x="584" 
d="M292 106q24 0 47 9t40 26.5t27.5 43.5t10.5 61t-10.5 61t-27.5 43.5t-40 26.5t-47 9t-47 -9t-40 -26.5t-27.5 -43.5t-10.5 -61t10.5 -61t27.5 -43.5t40 -26.5t47 -9zM292 507q55 0 102.5 -19.5t82 -54t54 -82.5t19.5 -105t-19.5 -104.5t-54 -82.5t-82 -54.5t-102.5 -19.5
t-102.5 19.5t-82 54.5t-54 82.5t-19.5 104.5t19.5 105t54 82.5t82 54t102.5 19.5z" />
    <glyph glyph-name="p" unicode="p" horiz-adv-x="612" 
d="M71 -190v682h129v-60q17 29 56 50t95 21q54 0 96 -19.5t71.5 -54t44.5 -81t15 -101.5q0 -56 -16.5 -103.5t-47 -82t-73.5 -54t-95 -19.5q-51 0 -87.5 17.5t-54.5 42.5v-238h-133zM447 246q0 66 -35.5 102t-86.5 36q-26 0 -48 -9.5t-39 -27t-26.5 -43t-9.5 -58.5
t9.5 -58.5t26.5 -43.5t39 -27.5t48 -9.5q51 0 86.5 36.5t35.5 102.5z" />
    <glyph glyph-name="q" unicode="q" horiz-adv-x="608" 
d="M411 -190v239q-17 -28 -52.5 -44.5t-84.5 -16.5q-53 0 -97 19.5t-75.5 54.5t-49.5 82t-18 103q0 54 17 101t47.5 81.5t74 54.5t97.5 20q32 0 56.5 -7t42.5 -17t29 -22.5t16 -22.5v57h127v-682h-130zM168 247q0 -66 35.5 -103t86.5 -37t86.5 37t35.5 103t-35.5 102
t-86.5 36t-86.5 -36t-35.5 -102z" />
    <glyph glyph-name="r" unicode="r" horiz-adv-x="391" 
d="M371 360q-20 4 -40 4q-26 0 -49 -7t-40 -23t-27.5 -42.5t-10.5 -66.5v-225h-133v492h129v-73q11 24 28.5 39.5t37 23.5t39 11t35.5 3q8 0 15.5 -0.5t15.5 -1.5v-134z" />
    <glyph glyph-name="s" unicode="s" horiz-adv-x="461" 
d="M143 162q2 -29 24 -52t66 -23q33 0 49 14.5t16 34.5q0 17 -12 29.5t-41 18.5l-65 15q-72 16 -105 55.5t-33 91.5q0 33 14 62.5t38.5 51t58 34.5t73.5 13q52 0 88 -14.5t58.5 -36.5t33.5 -46.5t13 -44.5l-111 -25q-2 11 -6.5 22.5t-14.5 21.5t-24.5 16t-35.5 6
q-26 0 -44.5 -14t-18.5 -35q0 -18 12.5 -29t32.5 -15l70 -15q73 -15 109.5 -56t36.5 -95q0 -30 -11.5 -59t-35.5 -52t-60 -37t-84 -14q-56 0 -94 16t-62 39t-35.5 49.5t-13.5 47.5z" />
    <glyph glyph-name="t" unicode="t" horiz-adv-x="373" 
d="M235 492h99v-118h-99v-206q0 -32 14.5 -44.5t43.5 -12.5q12 0 24 1t17 3v-110q-9 -4 -27.5 -8t-47.5 -4q-72 0 -114 40t-42 112v229h-89v118h25q39 0 57.5 22.5t18.5 55.5v69h120v-147z" />
    <glyph glyph-name="u" unicode="u" horiz-adv-x="586" 
d="M393 0q-2 8 -3 23t-1 30q-20 -35 -58.5 -50.5t-77.5 -15.5q-45 0 -79.5 15.5t-58.5 41.5t-36.5 61.5t-12.5 75.5v311h133v-284q0 -42 21.5 -70.5t68.5 -28.5q45 0 69 27t24 70v286h133v-403q0 -29 1.5 -52.5t3.5 -36.5h-127z" />
    <glyph glyph-name="v" unicode="v" horiz-adv-x="545" 
d="M344 0h-133l-201 492h146l122 -330l117 330h140z" />
    <glyph glyph-name="w" unicode="w" horiz-adv-x="831" 
d="M490 492l106 -317l91 317h132l-154 -492h-133l-115 336l-113 -336h-135l-157 492h140l91 -316l107 316h140z" />
    <glyph glyph-name="x" unicode="x" horiz-adv-x="532" 
d="M187 247l-175 245h158q6 -10 20 -30.5l29 -42.5l29 -42.5t20 -30.5l97 146h151l-172 -241l178 -251h-156l-103 151l-21 -31l-30 -44.5l-30 -44.5t-20 -31h-150z" />
    <glyph glyph-name="y" unicode="y" horiz-adv-x="560" 
d="M100 -194l116 256l-209 430h149l131 -288l121 288h142l-309 -686h-141z" />
    <glyph glyph-name="z" unicode="z" horiz-adv-x="481" 
d="M37 0v117l233 260h-227v115h397v-111l-240 -265h244v-116h-407z" />
    <glyph glyph-name="braceleft" unicode="{" horiz-adv-x="375" 
d="M45 382q43 0 71.5 21t28.5 72v142q0 99 51.5 146t142.5 47h31v-101h-30q-37 0 -60 -19.5t-23 -69.5v-168q0 -48 -26.5 -80.5t-74.5 -45.5q48 -12 74.5 -45t26.5 -81v-167q0 -50 23 -70t60 -20h30v-101h-31q-91 0 -142.5 47.5t-51.5 146.5v142q0 51 -28.5 72t-71.5 21v111
z" />
    <glyph glyph-name="bar" unicode="|" horiz-adv-x="273" 
d="M81 -158v968h111v-968h-111z" />
    <glyph glyph-name="braceright" unicode="}" horiz-adv-x="375" 
d="M330 271q-43 0 -72 -21t-29 -72v-142q0 -99 -51.5 -146.5t-141.5 -47.5h-31v101h29q38 0 61 20t23 70v167q0 48 26 81t74 45q-48 13 -74 45.5t-26 80.5v168q0 50 -23 69.5t-61 19.5h-29v101h31q90 0 141.5 -47t51.5 -146v-142q0 -51 29 -72t72 -21v-111z" />
    <glyph glyph-name="asciitilde" unicode="~" horiz-adv-x="583" 
d="M239 259q-25 13 -50 13q-26 0 -49 -13t-40 -39l-74 59q28 51 71 78t95 27t104 -28l47 -26q13 -8 26.5 -11t26.5 -3q26 0 48.5 12.5t39.5 38.5l73 -59q-28 -51 -71 -77.5t-94 -26.5q-25 0 -52.5 7t-53.5 22z" />
    <glyph glyph-name="uni00A0" unicode="&#xa0;" horiz-adv-x="247" 
 />
    <glyph glyph-name="exclamdown" unicode="&#xa1;" horiz-adv-x="302" 
d="M231 -210h-160l32 493h97zM72 428q0 32 23 55.5t56 23.5q32 0 55.5 -23.5t23.5 -55.5q0 -33 -23.5 -56.5t-55.5 -23.5q-33 0 -56 23.5t-23 56.5z" />
    <glyph glyph-name="cent" unicode="&#xa2;" horiz-adv-x="549" 
d="M231 0v87q-41 9 -76 30t-60.5 52t-39.5 69.5t-14 83.5q0 46 14 85.5t39.5 70t60.5 51.5t76 29v91h101v-90q37 -6 66 -20.5t50.5 -35t35.5 -44.5t21 -49l-113 -37q-5 14 -12.5 28t-20 25t-30 17.5t-41.5 6.5t-46 -8.5t-38.5 -24.5t-26 -40t-9.5 -55t10 -54.5t26.5 -40
t38.5 -25t46 -8.5t42.5 7t31.5 18t21 24.5t12 27.5l112 -36q-7 -25 -21.5 -49.5t-36.5 -45t-51.5 -35.5t-66.5 -21v-84h-101z" />
    <glyph glyph-name="sterling" unicode="&#xa3;" horiz-adv-x="592" 
d="M124 375q-8 21 -13 44t-5 51q0 38 15 73t42.5 62t67 43t88.5 16q59 0 99 -18t64.5 -45.5t35.5 -61t11 -64.5l-120 -18q-1 45 -23.5 70t-64.5 25q-34 0 -60 -20.5t-26 -63.5q0 -26 6.5 -48t15.5 -45h183v-102h-151q0 -5 0.5 -10.5t0.5 -10.5q0 -42 -17.5 -77.5
t-54.5 -58.5h155q38 0 59.5 24t21.5 60l119 -10q0 -41 -13 -76t-36 -60.5t-56.5 -39.5t-73.5 -14h-335v111q48 17 77 50t29 77q0 9 -1 18t-3 17h-98v102h61z" />
    <glyph glyph-name="currency" unicode="&#xa4;" horiz-adv-x="587" 
d="M78 245q0 30 8 57.5t22 50.5l-72 73l80 80l74 -75q24 13 50 20t55 7q56 0 103 -26l73 74l80 -80l-71 -71q31 -50 31 -110q0 -30 -8 -57.5t-22 -51.5l70 -71l-80 -80l-72 73q-47 -26 -104 -26q-59 0 -107 27l-72 -74l-80 80l71 72q-14 24 -21.5 51t-7.5 57zM190 245
q0 -46 29.5 -75.5t75.5 -29.5t75.5 29.5t29.5 75.5t-29.5 75.5t-75.5 29.5t-75.5 -29.5t-29.5 -75.5z" />
    <glyph glyph-name="yen" unicode="&#xa5;" horiz-adv-x="614" 
d="M373 135v-135h-130v135h-173v94h173v70h-173v93h107l-155 257h151l138 -245l136 245h145l-154 -257h115v-93h-180v-70h180v-94h-180z" />
    <glyph glyph-name="brokenbar" unicode="&#xa6;" horiz-adv-x="273" 
d="M192 810v-398h-111v398h111zM192 240v-398h-111v398h111z" />
    <glyph glyph-name="section" unicode="&#xa7;" horiz-adv-x="561" 
d="M491 251q0 -47 -23.5 -77.5t-53.5 -47.5q38 -28 57.5 -64.5t19.5 -78.5q0 -44 -18 -79.5t-47.5 -60.5t-67.5 -38.5t-79 -13.5q-98 0 -153 51.5t-59 135.5l125 21q0 -48 24 -71.5t64 -23.5q34 0 55.5 19t21.5 51q0 20 -12 35.5t-32 26.5l-102 53q-28 14 -53.5 30.5t-45 37
t-31 46.5t-11.5 61q0 46 23.5 77t53.5 48q-38 28 -57.5 65t-19.5 78q0 44 18 79.5t47.5 60.5t68 38.5t79.5 13.5q48 0 86.5 -14t65.5 -38.5t42 -59t17 -75.5l-126 -21q0 48 -23.5 71.5t-62.5 23.5q-35 0 -56.5 -19.5t-21.5 -50.5q0 -19 11 -35.5t33 -26.5l101 -52
q28 -15 54 -31t45.5 -37t31 -47.5t11.5 -60.5zM224 346q-14 -11 -23 -25.5t-9 -31.5q0 -20 9 -36.5t34 -29.5l102 -54q14 11 23 25t9 32q0 20 -9.5 36.5t-33.5 29.5z" />
    <glyph glyph-name="dieresis" unicode="&#xa8;" horiz-adv-x="405" 
d="M27 628q0 29 20.5 50t49.5 21t50 -21t21 -50t-21 -49.5t-50 -20.5t-49.5 20.5t-20.5 49.5zM237 628q0 29 20 50t50 21q29 0 50 -21t21 -50t-21 -49.5t-50 -20.5q-30 0 -50 20.5t-20 49.5z" />
    <glyph glyph-name="copyright" unicode="&#xa9;" horiz-adv-x="816" 
d="M124 354q0 -61 22 -114t60 -92.5t89.5 -62t111.5 -22.5t111.5 22.5t89.5 62t60 92.5t22 114t-22 114.5t-60 93t-89.5 62t-111.5 22.5t-111.5 -22.5t-89.5 -62t-60 -93t-22 -114.5zM39 354q0 76 29 144t78.5 118t116.5 79.5t144 29.5q76 0 143.5 -29.5t118 -79.5
t79.5 -118t29 -144t-29 -143.5t-79.5 -117.5t-118 -79.5t-143.5 -29.5q-77 0 -144 29.5t-116.5 79.5t-78.5 117.5t-29 143.5zM411 458q-19 0 -36.5 -6.5t-30.5 -20t-20.5 -33.5t-7.5 -45t7.5 -44.5t21 -33.5t30.5 -21t37 -7q19 0 34 6t25.5 15t17 20.5t9.5 22.5l89 -30
q-6 -24 -20 -46.5t-36 -40t-52 -28.5t-67 -11q-41 0 -77 14.5t-63 41.5t-42 63t-15 79q0 44 15 80.5t41 62.5t61.5 41t76.5 15q38 0 68 -11t52 -28.5t36 -40.5t20 -46l-91 -31q-7 24 -26 43.5t-57 19.5z" />
    <glyph glyph-name="ordfeminine" unicode="&#xaa;" horiz-adv-x="423" 
d="M55 397q0 45 27.5 70.5t75.5 33.5l83 14q14 2 19.5 8.5t5.5 15.5q0 16 -13.5 27.5t-39.5 11.5q-29 0 -44.5 -16t-17.5 -36l-89 18q1 19 11 39.5t29 37t46.5 27.5t64.5 11q42 0 71 -11t47 -29t26 -42t8 -51v-170q0 -18 1.5 -32t3.5 -22h-93q-1 4 -2 13.5t-1 26.5
q-14 -22 -38.5 -36t-61.5 -14q-28 0 -50 9t-37.5 23.5t-23.5 33.5t-8 39zM198 366q26 0 47 15.5t21 57.5v16l-70 -11q-17 -2 -28.5 -11.5t-11.5 -29.5q0 -14 10 -25.5t32 -11.5z" />
    <glyph glyph-name="guillemotleft" unicode="&#xab;" horiz-adv-x="524" 
d="M164 101l-137 194l138 197h125l-136 -198l136 -193h-126zM380 101l-136 194l137 197h126l-137 -198l136 -193h-126z" />
    <glyph glyph-name="logicalnot" unicode="&#xac;" horiz-adv-x="590" 
d="M420 136v195h-375v110h489v-305h-114z" />
    <glyph glyph-name="uni00AD" unicode="&#xad;" horiz-adv-x="380" 
d="M45 238v118h290v-118h-290z" />
    <glyph glyph-name="registered" unicode="&#xae;" horiz-adv-x="816" 
d="M39 354q0 76 29 144t78.5 118t116.5 79.5t144 29.5q76 0 143.5 -29.5t118 -79.5t79.5 -118t29 -144t-29 -143.5t-79.5 -117.5t-118 -79.5t-143.5 -29.5q-77 0 -144 29.5t-116.5 79.5t-78.5 117.5t-29 143.5zM124 354q0 -61 22 -114t60 -92.5t89.5 -62t111.5 -22.5
t111.5 22.5t89.5 62t60 92.5t22 114t-22 114.5t-60 93t-89.5 62t-111.5 22.5t-111.5 -22.5t-89.5 -62t-60 -93t-22 -114.5zM398 296h-29v-139h-95v400h158q29 0 54 -10t43.5 -28t29 -41.5t10.5 -50.5q0 -40 -21 -70.5t-56 -45.5l80 -154h-105zM415 374q27 0 42.5 14t15.5 38
q0 25 -15.5 39t-42.5 14h-46v-105h46z" />
    <glyph glyph-name="macron" unicode="&#xaf;" horiz-adv-x="335" 
d="M27 577v97h281v-97h-281z" />
    <glyph glyph-name="degree" unicode="&#xb0;" horiz-adv-x="373" 
d="M120 499q0 -32 19 -51t47 -19q29 0 47.5 19.5t18.5 50.5t-18.5 50t-47.5 19q-28 0 -47 -19t-19 -50zM20 499q0 34 13.5 64t36 52.5t52.5 35t64 12.5t64 -12.5t53 -35t36.5 -52.5t13.5 -64q0 -35 -13.5 -65t-36.5 -51.5t-53 -34t-64 -12.5t-64.5 12.5t-53 34.5t-35.5 52
t-13 64z" />
    <glyph glyph-name="plusminus" unicode="&#xb1;" horiz-adv-x="592" 
d="M240 421v123h112v-123h178v-108h-178v-123h-112v123h-178v108h178zM530 153v-109h-468v109h468z" />
    <glyph glyph-name="twosuperior" unicode="&#xb2;" horiz-adv-x="394" 
d="M58 564q-2 5 -3 13t-1 16q0 52 36.5 88t107.5 36q34 0 60.5 -10t44.5 -26.5t27.5 -38.5t9.5 -47q0 -36 -20.5 -62.5t-58.5 -49.5l-70 -42q-12 -7 -12 -15h164v-85h-291v12q0 49 19.5 88.5t69.5 68.5l60 35q38 23 38 51q0 14 -10.5 26.5t-31.5 12.5q-23 0 -37 -13.5
t-14 -38.5q0 -9 3 -18z" />
    <glyph glyph-name="threesuperior" unicode="&#xb3;" horiz-adv-x="411" 
d="M142 469q2 -23 18.5 -38t42.5 -15q25 0 39.5 12.5t14.5 31.5q0 24 -16.5 34.5t-36.5 10.5q-10 0 -18.5 -2t-13.5 -4l-33 68l87 59h-161v83h284v-82l-90 -61q45 -6 73 -33t28 -75q0 -25 -11 -47.5t-31 -40t-49.5 -27.5t-65.5 -10q-34 0 -60.5 9.5t-46 25.5t-31 37
t-14.5 43z" />
    <glyph glyph-name="acute" unicode="&#xb4;" horiz-adv-x="295" 
d="M133 551h-107l91 150h152z" />
    <glyph glyph-name="mu" unicode="&#xb5;" horiz-adv-x="594" 
d="M399 0q-2 8 -3 23t-1 30q-20 -35 -58.5 -50.5t-77.5 -15.5q-32 0 -54 7v-184h-133v682h133v-284q0 -42 21.5 -70.5t68.5 -28.5q45 0 69 27t24 70v286h133v-403q0 -30 1.5 -54.5t3.5 -34.5h-127z" />
    <glyph glyph-name="paragraph" unicode="&#xb6;" horiz-adv-x="666" 
d="M351 -194h-104v495h-17q-42 0 -79 15.5t-64.5 42.5t-44 63.5t-16.5 78.5q0 50 19 89t51 65.5t75.5 40t91.5 13.5h387v-102h-97v-801h-106v801h-96v-801z" />
    <glyph glyph-name="periodcentered" unicode="&#xb7;" horiz-adv-x="288" 
d="M61 309q0 36 25 60.5t61 24.5t61 -24.5t25 -60.5t-25 -60t-61 -24t-61 24t-25 60z" />
    <glyph glyph-name="cedilla" unicode="&#xb8;" horiz-adv-x="298" 
d="M83 -63l48 76h83l-39 -61q43 -1 70 -24.5t27 -61.5q0 -17 -7 -34t-22 -30.5t-39.5 -22t-59.5 -8.5q-42 0 -73.5 17t-45.5 35l43 54q11 -11 30 -24t45 -13q18 0 29.5 7t11.5 21q0 11 -10 19.5t-28 8.5q-6 0 -13.5 -1t-13.5 -3z" />
    <glyph glyph-name="onesuperior" unicode="&#xb9;" horiz-adv-x="303" 
d="M129 342v223h-91v66q24 0 42 7t30.5 18.5t20 25t10.5 27.5h91v-367h-103z" />
    <glyph glyph-name="ordmasculine" unicode="&#xba;" horiz-adv-x="482" 
d="M242 385q32 0 56.5 22.5t24.5 68.5q0 45 -24.5 67.5t-56.5 22.5t-56.5 -22.5t-24.5 -67.5q0 -46 24.5 -68.5t56.5 -22.5zM242 659q39 0 72 -13.5t58 -38t39 -58t14 -73.5q0 -41 -14 -74.5t-39 -58t-58 -38t-72 -13.5t-72.5 13.5t-58.5 38t-39 58t-14 74.5q0 40 14 73.5
t39 58t58.5 38t72.5 13.5z" />
    <glyph glyph-name="guillemotright" unicode="&#xbb;" horiz-adv-x="524" 
d="M234 101l136 193l-136 198h125l138 -197l-137 -194h-126zM18 101l135 193l-136 198h125l138 -197l-136 -194h-126z" />
    <glyph glyph-name="onequarter" unicode="&#xbc;" horiz-adv-x="808" 
d="M137 282v223h-91v66q24 0 42 7t30.5 18.5t20 25t10.5 27.5h91v-367h-103zM429 171l169 198h109v-218h61v-79h-61v-71h-100v71h-178v99zM607 265l-97 -114h97v114zM97 0l458 649h116l-458 -649h-116z" />
    <glyph glyph-name="onehalf" unicode="&#xbd;" horiz-adv-x="826" 
d="M137 282v223h-91v66q24 0 42 7t30.5 18.5t20 25t10.5 27.5h91v-367h-103zM96 0l458 649h116l-458 -649h-116zM495 224q-2 5 -3 13t-1 16q0 52 36.5 88t107.5 36q34 0 60.5 -10t44.5 -26.5t27.5 -38.5t9.5 -47q0 -36 -20.5 -62.5t-58.5 -49.5l-70 -42q-12 -7 -12 -15h164
v-85h-291v12q0 49 19.5 88.5t69.5 68.5l60 35q38 23 38 51q0 14 -10.5 26.5t-31.5 12.5q-23 0 -37 -13.5t-14 -38.5q0 -9 3 -18z" />
    <glyph glyph-name="threequarters" unicode="&#xbe;" horiz-adv-x="884" 
d="M142 409q2 -23 18.5 -38t42.5 -15q25 0 39.5 12.5t14.5 31.5q0 24 -16.5 34.5t-36.5 10.5q-10 0 -18.5 -2t-13.5 -4l-33 68l87 59h-161v83h284v-82l-90 -61q45 -6 73 -33t28 -75q0 -25 -11 -47.5t-31 -40t-49.5 -27.5t-65.5 -10q-34 0 -60.5 9.5t-46 25.5t-31 37
t-14.5 43zM505 171l169 198h109v-218h61v-79h-61v-71h-100v71h-178v99zM683 265l-97 -114h97v114zM180 0l458 649h116l-458 -649h-116z" />
    <glyph glyph-name="questiondown" unicode="&#xbf;" horiz-adv-x="493" 
d="M314 284q3 -20 3 -41q0 -41 -16.5 -77.5t-60.5 -68.5l-48 -35q-23 -17 -32.5 -36.5t-9.5 -42.5q0 -35 24.5 -62t74.5 -27q26 0 45.5 9t32 24t19 34t6.5 39q0 11 -1.5 22t-4.5 19l128 -12q5 -23 5 -44q0 -41 -15 -78.5t-44 -67t-72 -47t-99 -17.5q-58 0 -102 17t-73.5 45
t-44.5 63.5t-15 73.5q0 60 26.5 103.5t70.5 74.5l41 29q26 18 40 42t14 55v6h108zM179 428q0 33 23.5 56t56.5 23t56 -23t23 -56t-23 -56t-56 -23t-56.5 23t-23.5 56z" />
    <glyph glyph-name="Agrave" unicode="&#xc0;" horiz-adv-x="722" 
d="M503 162h-288l-59 -162h-146l272 709h160l270 -709h-150zM261 288h196l-98 268zM165 886h163l104 -127h-122z" />
    <glyph glyph-name="Aacute" unicode="&#xc1;" horiz-adv-x="722" 
d="M503 162h-288l-59 -162h-146l272 709h160l270 -709h-150zM261 288h196l-98 268zM413 759h-122l103 127h164z" />
    <glyph glyph-name="Acircumflex" unicode="&#xc2;" horiz-adv-x="722" 
d="M503 162h-288l-59 -162h-146l272 709h160l270 -709h-150zM261 288h196l-98 268zM170 759l120 127h136l122 -127h-125l-67 65l-65 -65h-121z" />
    <glyph glyph-name="Atilde" unicode="&#xc3;" horiz-adv-x="722" 
d="M503 162h-288l-59 -162h-146l272 709h160l270 -709h-150zM261 288h196l-98 268zM525 862q0 -55 -29.5 -82.5t-71.5 -27.5q-23 0 -41.5 7t-33.5 17l-6 4l-25.5 14t-22.5 6q-29 0 -29 -43h-80v27q0 55 30 82t71 27q23 0 41.5 -7t34.5 -16l6 -4l25 -13t22 -6q12 0 20.5 7
t8.5 24v12h80v-28z" />
    <glyph glyph-name="Adieresis" unicode="&#xc4;" horiz-adv-x="722" 
d="M128 823q0 30 20 51t51 21t52 -21t21 -51q0 -31 -21 -51.5t-52 -20.5t-51 20.5t-20 51.5zM446 823q0 30 20.5 51t51.5 21t52 -21t21 -51q0 -31 -21 -51.5t-52 -20.5t-51.5 20.5t-20.5 51.5zM503 162h-288l-59 -162h-146l272 709h160l270 -709h-150zM261 288h196l-98 268z
" />
    <glyph glyph-name="Aring" unicode="&#xc5;" horiz-adv-x="722" 
d="M409 759q0 23 -15 37t-35 14q-21 0 -35.5 -14t-14.5 -37t14.5 -36.5t35.5 -13.5q20 0 35 13.5t15 36.5zM261 288h196l-98 268zM503 162h-288l-59 -162h-146l255 664q-20 18 -31 42t-11 53t11 53t30 41.5t43.5 27.5t51.5 10t51.5 -10t43.5 -27.5t30 -41.5t11 -53
q0 -27 -10.5 -50.5t-27.5 -40.5l255 -668h-150z" />
    <glyph glyph-name="AE" unicode="&#xc6;" horiz-adv-x="1060" 
d="M558 0v167h-274l-107 -167h-169l470 709h524v-130h-305v-162h276v-123h-276v-164h306v-130h-445zM558 283v312l-200 -312h200z" />
    <glyph glyph-name="Ccedilla" unicode="&#xc7;" horiz-adv-x="764" 
d="M334 -63l32 50q-68 6 -127.5 34.5t-104 75.5t-70 112t-25.5 145q0 85 29.5 153.5t79.5 116.5t115.5 74t136.5 26q73 0 129.5 -20.5t96 -54t64 -75.5t35.5 -85l-130 -41q-6 25 -20 51t-37.5 46t-57.5 33t-80 13q-40 0 -79 -14.5t-70 -43.5t-50 -74t-19 -105
q0 -57 18.5 -100.5t49 -73t70 -45t82.5 -15.5q45 0 79.5 13.5t58.5 34.5t39 46.5t22 50.5l129 -39q-9 -38 -30.5 -77t-56 -72.5t-83 -57.5t-111.5 -31l-23 -36q43 -1 70 -24.5t27 -61.5q0 -17 -7 -34t-22 -30.5t-39.5 -22t-59.5 -8.5q-42 0 -73.5 17t-45.5 35l43 54
q11 -11 30 -24t45 -13q18 0 29.5 7t11.5 21q0 11 -10 19.5t-28 8.5q-6 0 -14 -1t-13 -3z" />
    <glyph glyph-name="Egrave" unicode="&#xc8;" horiz-adv-x="582" 
d="M128 886h163l104 -127h-122zM81 0v709h444v-130h-306v-162h277v-123h-277v-164h306v-130h-444z" />
    <glyph glyph-name="Eacute" unicode="&#xc9;" horiz-adv-x="582" 
d="M346 759h-122l103 127h164zM81 0v709h444v-130h-306v-162h277v-123h-277v-164h306v-130h-444z" />
    <glyph glyph-name="Ecircumflex" unicode="&#xca;" horiz-adv-x="582" 
d="M112 759l120 127h136l122 -127h-125l-67 65l-65 -65h-121zM81 0v709h444v-130h-306v-162h277v-123h-277v-164h306v-130h-444z" />
    <glyph glyph-name="Edieresis" unicode="&#xcb;" horiz-adv-x="582" 
d="M121 823q0 30 20 51t51 21t52 -21t21 -51q0 -31 -21 -51.5t-52 -20.5t-51 20.5t-20 51.5zM346 823q0 30 20 51t51 21t52 -21t21 -51q0 -31 -21 -51.5t-52 -20.5t-51 20.5t-20 51.5zM81 0v709h444v-130h-306v-162h277v-123h-277v-164h306v-130h-444z" />
    <glyph glyph-name="Igrave" unicode="&#xcc;" horiz-adv-x="302" 
d="M81 0v709h140v-709h-140zM-47 886h163l104 -127h-122z" />
    <glyph glyph-name="Iacute" unicode="&#xcd;" horiz-adv-x="302" 
d="M81 0v709h140v-709h-140zM205 759h-122l103 127h164z" />
    <glyph glyph-name="Icircumflex" unicode="&#xce;" horiz-adv-x="302" 
d="M81 0v709h140v-709h-140zM-33 759l120 127h136l122 -127h-125l-67 65l-65 -65h-121z" />
    <glyph glyph-name="Idieresis" unicode="&#xcf;" horiz-adv-x="302" 
d="M-12 823q0 29 19.5 49.5t49.5 20.5q29 0 50 -20.5t21 -49.5q0 -30 -21 -50t-50 -20q-30 0 -49.5 20t-19.5 50zM177 823q0 29 20 49.5t49 20.5q30 0 50.5 -20.5t20.5 -49.5q0 -30 -20.5 -50t-50.5 -20q-29 0 -49 20t-20 50zM81 0v709h140v-709h-140z" />
    <glyph glyph-name="Eth" unicode="&#xd0;" horiz-adv-x="747" 
d="M104 0v315h-88v102h88v292h254q76 0 140 -24t110.5 -69.5t73 -111.5t26.5 -150t-26.5 -150t-73.5 -111t-111 -69t-140 -24h-253zM352 128q43 0 82 13.5t68 41.5t46 70.5t17 100.5t-17 100.5t-45.5 70.5t-67.5 42t-82 14h-111v-164h137v-102h-137v-187h110z" />
    <glyph glyph-name="Ntilde" unicode="&#xd1;" horiz-adv-x="767" 
d="M555 862q0 -55 -29.5 -82.5t-71.5 -27.5q-23 0 -41.5 7t-33.5 17l-6 4l-25.5 14t-22.5 6q-29 0 -29 -43h-80v27q0 55 30 82t71 27q23 0 41.5 -7t34.5 -16l6 -4l25 -13t22 -6q12 0 20.5 7t8.5 24v12h80v-28zM541 0l-322 503v-503h-138v709h172l295 -469v469h138v-709h-145
z" />
    <glyph glyph-name="Ograve" unicode="&#xd2;" horiz-adv-x="807" 
d="M201 886h163l104 -127h-122zM182 355q0 -60 19 -104.5t50.5 -73.5t71 -43.5t80.5 -14.5t81 14.5t71.5 43.5t50.5 73.5t19 104.5t-19 104.5t-50.5 73.5t-71.5 43.5t-81 14.5t-80.5 -14.5t-71 -43.5t-50.5 -73.5t-19 -104.5zM39 354q0 86 30 154.5t80 116.5t116 73.5
t138 25.5t138.5 -25.5t116.5 -73.5t80 -116.5t30 -154.5t-30 -154t-80 -116t-116.5 -73.5t-138.5 -25.5t-138 25.5t-116 73.5t-80 116t-30 154z" />
    <glyph glyph-name="Oacute" unicode="&#xd3;" horiz-adv-x="807" 
d="M455 759h-122l103 127h164zM182 355q0 -60 19 -104.5t50.5 -73.5t71 -43.5t80.5 -14.5t81 14.5t71.5 43.5t50.5 73.5t19 104.5t-19 104.5t-50.5 73.5t-71.5 43.5t-81 14.5t-80.5 -14.5t-71 -43.5t-50.5 -73.5t-19 -104.5zM39 354q0 86 30 154.5t80 116.5t116 73.5
t138 25.5t138.5 -25.5t116.5 -73.5t80 -116.5t30 -154.5t-30 -154t-80 -116t-116.5 -73.5t-138.5 -25.5t-138 25.5t-116 73.5t-80 116t-30 154z" />
    <glyph glyph-name="Ocircumflex" unicode="&#xd4;" horiz-adv-x="807" 
d="M215 759l120 127h136l122 -127h-125l-67 65l-65 -65h-121zM182 355q0 -60 19 -104.5t50.5 -73.5t71 -43.5t80.5 -14.5t81 14.5t71.5 43.5t50.5 73.5t19 104.5t-19 104.5t-50.5 73.5t-71.5 43.5t-81 14.5t-80.5 -14.5t-71 -43.5t-50.5 -73.5t-19 -104.5zM39 354
q0 86 30 154.5t80 116.5t116 73.5t138 25.5t138.5 -25.5t116.5 -73.5t80 -116.5t30 -154.5t-30 -154t-80 -116t-116.5 -73.5t-138.5 -25.5t-138 25.5t-116 73.5t-80 116t-30 154z" />
    <glyph glyph-name="Otilde" unicode="&#xd5;" horiz-adv-x="807" 
d="M571 862q0 -55 -29.5 -82.5t-71.5 -27.5q-23 0 -41.5 7t-33.5 17l-6 4l-25.5 14t-22.5 6q-29 0 -29 -43h-80v27q0 55 30 82t71 27q23 0 41.5 -7t34.5 -16l6 -4l25 -13t22 -6q12 0 20.5 7t8.5 24v12h80v-28zM182 355q0 -60 19 -104.5t50.5 -73.5t71 -43.5t80.5 -14.5
t81 14.5t71.5 43.5t50.5 73.5t19 104.5t-19 104.5t-50.5 73.5t-71.5 43.5t-81 14.5t-80.5 -14.5t-71 -43.5t-50.5 -73.5t-19 -104.5zM39 354q0 86 30 154.5t80 116.5t116 73.5t138 25.5t138.5 -25.5t116.5 -73.5t80 -116.5t30 -154.5t-30 -154t-80 -116t-116.5 -73.5
t-138.5 -25.5t-138 25.5t-116 73.5t-80 116t-30 154z" />
    <glyph glyph-name="Odieresis" unicode="&#xd6;" horiz-adv-x="807" 
d="M165 823q0 30 20.5 51t51.5 21t52 -21t21 -51q0 -31 -21 -51.5t-52 -20.5t-51.5 20.5t-20.5 51.5zM498 823q0 30 20.5 51t51.5 21q30 0 51 -21t21 -51q0 -31 -21 -51.5t-51 -20.5q-31 0 -51.5 20.5t-20.5 51.5zM182 355q0 -60 19 -104.5t50.5 -73.5t71 -43.5t80.5 -14.5
t81 14.5t71.5 43.5t50.5 73.5t19 104.5t-19 104.5t-50.5 73.5t-71.5 43.5t-81 14.5t-80.5 -14.5t-71 -43.5t-50.5 -73.5t-19 -104.5zM39 354q0 86 30 154.5t80 116.5t116 73.5t138 25.5t138.5 -25.5t116.5 -73.5t80 -116.5t30 -154.5t-30 -154t-80 -116t-116.5 -73.5
t-138.5 -25.5t-138 25.5t-116 73.5t-80 116t-30 154z" />
    <glyph glyph-name="multiply" unicode="&#xd7;" horiz-adv-x="563" 
d="M281 215l-165 -167l-79 79l165 168l-165 168l80 79l164 -167l165 167l80 -78l-166 -169l166 -168l-79 -80z" />
    <glyph glyph-name="Oslash" unicode="&#xd8;" horiz-adv-x="807" 
d="M39 354q0 86 30 154.5t80 116.5t116 73.5t138 25.5q98 0 181 -46l70 90l88 -66l-70 -91q45 -48 70.5 -112.5t25.5 -144.5q0 -86 -30 -154t-80 -116t-116.5 -73.5t-138.5 -25.5q-49 0 -94.5 11.5t-86.5 33.5l-68 -88l-90 65l71 91q-45 48 -70.5 112t-25.5 144zM182 355
q0 -45 10.5 -81t29.5 -63l278 359q-45 21 -97 21q-41 0 -80.5 -14.5t-71 -43.5t-50.5 -73.5t-19 -104.5zM625 355q0 45 -10.5 81t-29.5 63l-278 -359q45 -21 96 -21q41 0 81 14.5t71.5 43.5t50.5 73.5t19 104.5z" />
    <glyph glyph-name="Ugrave" unicode="&#xd9;" horiz-adv-x="693" 
d="M158 886h163l104 -127h-122zM346 -16q-57 0 -106.5 17t-86 51t-58 84t-21.5 115v458h138v-448q0 -70 36 -106t98 -36q63 0 99 36t36 106v448h138v-458q0 -65 -21.5 -115t-58 -84t-86.5 -51t-107 -17z" />
    <glyph glyph-name="Uacute" unicode="&#xda;" horiz-adv-x="693" 
d="M383 759h-122l103 127h164zM346 -16q-57 0 -106.5 17t-86 51t-58 84t-21.5 115v458h138v-448q0 -70 36 -106t98 -36q63 0 99 36t36 106v448h138v-458q0 -65 -21.5 -115t-58 -84t-86.5 -51t-107 -17z" />
    <glyph glyph-name="Ucircumflex" unicode="&#xdb;" horiz-adv-x="693" 
d="M158 759l120 127h136l122 -127h-125l-67 65l-65 -65h-121zM346 -16q-57 0 -106.5 17t-86 51t-58 84t-21.5 115v458h138v-448q0 -70 36 -106t98 -36q63 0 99 36t36 106v448h138v-458q0 -65 -21.5 -115t-58 -84t-86.5 -51t-107 -17z" />
    <glyph glyph-name="Udieresis" unicode="&#xdc;" horiz-adv-x="693" 
d="M155 823q0 30 20.5 51t51.5 21q30 0 51 -21t21 -51q0 -31 -21 -51.5t-51 -20.5q-31 0 -51.5 20.5t-20.5 51.5zM395 823q0 30 20.5 51t51.5 21q30 0 51 -21t21 -51q0 -31 -21 -51.5t-51 -20.5q-31 0 -51.5 20.5t-20.5 51.5zM346 -16q-57 0 -106.5 17t-86 51t-58 84
t-21.5 115v458h138v-448q0 -70 36 -106t98 -36q63 0 99 36t36 106v448h138v-458q0 -65 -21.5 -115t-58 -84t-86.5 -51t-107 -17z" />
    <glyph glyph-name="Yacute" unicode="&#xdd;" horiz-adv-x="655" 
d="M10 709h162l159 -281l159 281h155l-250 -411v-298h-138v298zM371 759h-122l103 127h164z" />
    <glyph glyph-name="Thorn" unicode="&#xde;" horiz-adv-x="604" 
d="M329 257q52 0 81.5 27.5t29.5 73.5q0 48 -29.5 75.5t-81.5 27.5h-109v-204h109zM219 139v-139h-138v709h138v-129h122q51 0 94.5 -17t75.5 -46.5t50 -70t18 -87.5t-18 -87.5t-50 -70t-75 -46t-94 -16.5h-123z" />
    <glyph glyph-name="germandbls" unicode="&#xdf;" horiz-adv-x="596" 
d="M401 343q1 -14 10 -20.5t27 -14.5l30 -13q51 -20 81.5 -60t30.5 -94q0 -26 -10 -53.5t-31.5 -50t-55.5 -37.5t-81 -15q-45 0 -77 14t-52.5 35.5t-29.5 46.5t-9 47l107 21q0 -10 3 -21t10.5 -20.5t19.5 -15.5t29 -6q26 0 39.5 14.5t13.5 31.5q0 19 -11 32t-37 24l-30 12
q-19 8 -38.5 19t-35.5 26.5t-26 37.5t-10 51q0 22 6 40.5t16 32.5t21.5 24.5t23.5 18.5l20 13q24 15 36.5 32t12.5 40q0 27 -22.5 49.5t-71.5 22.5q-21 0 -40.5 -7.5t-34.5 -23t-24 -40.5t-9 -59v-477h-131v486q0 61 19.5 105.5t52.5 74t76.5 44t90.5 14.5q52 0 93.5 -14.5
t71 -39.5t45.5 -58.5t16 -70.5q0 -29 -7.5 -52t-19.5 -41t-28 -32t-33 -25l-20 -12q-13 -8 -20 -15.5t-7 -20.5z" />
    <glyph glyph-name="agrave" unicode="&#xe0;" horiz-adv-x="539" 
d="M41 134q0 33 11.5 58.5t31.5 44.5t46.5 30t57.5 16l121 18q21 3 29 12.5t8 22.5q0 26 -20.5 45t-62.5 19q-44 0 -67.5 -24t-26.5 -56l-118 25q3 29 18 58t41 52t64 37.5t88 14.5q58 0 99 -15.5t66.5 -41t37 -59.5t11.5 -71v-242q0 -20 2 -42.5t4 -35.5h-122
q-2 10 -3.5 27.5t-1.5 31.5q-19 -29 -54.5 -51t-90.5 -22q-39 0 -70.5 12.5t-53.5 33t-33.5 47t-11.5 55.5zM238 85q21 0 40.5 5.5t34.5 19t24 35t9 54.5v22l-111 -17q-26 -4 -43.5 -18.5t-17.5 -43.5q0 -22 16 -39.5t48 -17.5zM91 701h154l90 -150h-108z" />
    <glyph glyph-name="aacute" unicode="&#xe1;" horiz-adv-x="539" 
d="M41 134q0 33 11.5 58.5t31.5 44.5t46.5 30t57.5 16l121 18q21 3 29 12.5t8 22.5q0 26 -20.5 45t-62.5 19q-44 0 -67.5 -24t-26.5 -56l-118 25q3 29 18 58t41 52t64 37.5t88 14.5q58 0 99 -15.5t66.5 -41t37 -59.5t11.5 -71v-242q0 -20 2 -42.5t4 -35.5h-122
q-2 10 -3.5 27.5t-1.5 31.5q-19 -29 -54.5 -51t-90.5 -22q-39 0 -70.5 12.5t-53.5 33t-33.5 47t-11.5 55.5zM238 85q21 0 40.5 5.5t34.5 19t24 35t9 54.5v22l-111 -17q-26 -4 -43.5 -18.5t-17.5 -43.5q0 -22 16 -39.5t48 -17.5zM307 551h-107l91 150h152z" />
    <glyph glyph-name="acircumflex" unicode="&#xe2;" horiz-adv-x="539" 
d="M41 134q0 33 11.5 58.5t31.5 44.5t46.5 30t57.5 16l121 18q21 3 29 12.5t8 22.5q0 26 -20.5 45t-62.5 19q-44 0 -67.5 -24t-26.5 -56l-118 25q3 29 18 58t41 52t64 37.5t88 14.5q58 0 99 -15.5t66.5 -41t37 -59.5t11.5 -71v-242q0 -20 2 -42.5t4 -35.5h-122
q-2 10 -3.5 27.5t-1.5 31.5q-19 -29 -54.5 -51t-90.5 -22q-39 0 -70.5 12.5t-53.5 33t-33.5 47t-11.5 55.5zM238 85q21 0 40.5 5.5t34.5 19t24 35t9 54.5v22l-111 -17q-26 -4 -43.5 -18.5t-17.5 -43.5q0 -22 16 -39.5t48 -17.5zM89 552l110 147h132l110 -147h-107l-71 75
l-70 -75h-104z" />
    <glyph glyph-name="atilde" unicode="&#xe3;" horiz-adv-x="539" 
d="M41 134q0 33 11.5 58.5t31.5 44.5t46.5 30t57.5 16l121 18q21 3 29 12.5t8 22.5q0 26 -20.5 45t-62.5 19q-44 0 -67.5 -24t-26.5 -56l-118 25q3 29 18 58t41 52t64 37.5t88 14.5q58 0 99 -15.5t66.5 -41t37 -59.5t11.5 -71v-242q0 -20 2 -42.5t4 -35.5h-122
q-2 10 -3.5 27.5t-1.5 31.5q-19 -29 -54.5 -51t-90.5 -22q-39 0 -70.5 12.5t-53.5 33t-33.5 47t-11.5 55.5zM238 85q21 0 40.5 5.5t34.5 19t24 35t9 54.5v22l-111 -17q-26 -4 -43.5 -18.5t-17.5 -43.5q0 -22 16 -39.5t48 -17.5zM443 678q0 -63 -30 -93t-77 -30q-21 0 -39 6
t-32 16l-6 4l-19.5 12t-27.5 6q-16 0 -25 -10t-10 -33h-82v21q0 61 31.5 91t77.5 30q22 0 39 -7t33 -15l6 -4q13 -8 24.5 -13.5t23.5 -5.5q33 0 33 43h80v-18z" />
    <glyph glyph-name="adieresis" unicode="&#xe4;" horiz-adv-x="539" 
d="M41 134q0 33 11.5 58.5t31.5 44.5t46.5 30t57.5 16l121 18q21 3 29 12.5t8 22.5q0 26 -20.5 45t-62.5 19q-44 0 -67.5 -24t-26.5 -56l-118 25q3 29 18 58t41 52t64 37.5t88 14.5q58 0 99 -15.5t66.5 -41t37 -59.5t11.5 -71v-242q0 -20 2 -42.5t4 -35.5h-122
q-2 10 -3.5 27.5t-1.5 31.5q-19 -29 -54.5 -51t-90.5 -22q-39 0 -70.5 12.5t-53.5 33t-33.5 47t-11.5 55.5zM238 85q21 0 40.5 5.5t34.5 19t24 35t9 54.5v22l-111 -17q-26 -4 -43.5 -18.5t-17.5 -43.5q0 -22 16 -39.5t48 -17.5zM91 628q0 29 20.5 50t49.5 21t50 -21t21 -50
t-21 -49.5t-50 -20.5t-49.5 20.5t-20.5 49.5zM301 628q0 29 20 50t50 21q29 0 50 -21t21 -50t-21 -49.5t-50 -20.5q-30 0 -50 20.5t-20 49.5z" />
    <glyph glyph-name="aring" unicode="&#xe5;" horiz-adv-x="539" 
d="M41 134q0 33 11.5 58.5t31.5 44.5t46.5 30t57.5 16l121 18q21 3 29 12.5t8 22.5q0 26 -20.5 45t-62.5 19q-44 0 -67.5 -24t-26.5 -56l-118 25q3 29 18 58t41 52t64 37.5t88 14.5q58 0 99 -15.5t66.5 -41t37 -59.5t11.5 -71v-242q0 -20 2 -42.5t4 -35.5h-122
q-2 10 -3.5 27.5t-1.5 31.5q-19 -29 -54.5 -51t-90.5 -22q-39 0 -70.5 12.5t-53.5 33t-33.5 47t-11.5 55.5zM238 85q21 0 40.5 5.5t34.5 19t24 35t9 54.5v22l-111 -17q-26 -4 -43.5 -18.5t-17.5 -43.5q0 -22 16 -39.5t48 -17.5zM375 653q0 -24 -9.5 -44t-25 -35t-36.5 -23
t-44 -8t-44 8t-36.5 23t-25 35t-9.5 44t9.5 44.5t25 35.5t36.5 23.5t44 8.5t44 -8.5t36.5 -23.5t25 -35.5t9.5 -44.5zM300 653q0 19 -12 30.5t-29 11.5t-28.5 -11.5t-11.5 -30.5q0 -18 11.5 -29.5t28.5 -11.5t29 11.5t12 29.5z" />
    <glyph glyph-name="ae" unicode="&#xe6;" horiz-adv-x="871" 
d="M827 141q-9 -32 -29 -60.5t-49 -49.5t-66 -33.5t-82 -12.5q-57 0 -106.5 22.5t-84.5 65.5q-36 -48 -84 -68t-103 -20q-44 0 -78 12.5t-57 33t-35 47.5t-12 56q0 33 11.5 58.5t31.5 44.5t46.5 30t57.5 16l126 18q22 3 29.5 13t7.5 22q0 26 -21 45.5t-65 19.5
q-45 0 -70 -24t-28 -56l-116 24q3 30 18.5 59t43 52t66.5 37t87 14q61 0 102 -17.5t65 -46.5q33 31 74.5 47.5t87.5 16.5q113 0 176 -68t63 -187q0 -14 -1 -26.5t-2 -14.5h-353q1 -26 11.5 -46.5t27 -35.5t38.5 -23t47 -8q48 0 75 22t38 56zM242 85q19 0 38.5 5.5t35.5 18.5
t25.5 35t9.5 54v23l-116 -17q-26 -4 -44.5 -18.5t-18.5 -43.5q0 -21 17.5 -39t52.5 -18zM703 302q-1 18 -7.5 35.5t-20 31t-34.5 22t-50 8.5q-26 0 -46 -9t-34 -23t-21.5 -31t-8.5 -34h222z" />
    <glyph glyph-name="ccedilla" unicode="&#xe7;" horiz-adv-x="550" 
d="M222 -63l32 51q-47 6 -87.5 28t-70 56t-46 78.5t-16.5 95.5q0 57 19.5 105t54 82.5t81 54t100.5 19.5q50 0 89.5 -14.5t68.5 -37.5t47 -53t26 -61l-119 -40q-9 31 -34.5 57t-74.5 26q-26 0 -48.5 -9t-39.5 -26.5t-27 -43.5t-10 -59t10 -59t27.5 -44t40 -27t48.5 -9
q25 0 44.5 7.5t33.5 19.5t22.5 27t12.5 29l117 -39q-8 -27 -23 -53.5t-38.5 -49t-54.5 -38.5t-70 -22l-23 -36q43 -1 70 -24.5t27 -61.5q0 -17 -7 -34t-22 -30.5t-39.5 -22t-59.5 -8.5q-42 0 -73.5 17t-45.5 35l43 54q11 -11 30 -24t45 -13q18 0 29.5 7t11.5 21
q0 11 -10 19.5t-28 8.5q-6 0 -14 -1t-13 -3z" />
    <glyph glyph-name="egrave" unicode="&#xe8;" horiz-adv-x="553" 
d="M388 302q-1 18 -7.5 35.5t-20 31t-34 22t-48.5 8.5q-26 0 -46 -9t-34 -23t-21.5 -31t-8.5 -34h220zM512 141q-9 -32 -28.5 -60.5t-47.5 -49.5t-65.5 -33.5t-82.5 -12.5q-51 0 -97 17.5t-81 51.5t-55.5 83t-20.5 111q0 59 20 107t53.5 81.5t77.5 52t91 18.5q115 0 179 -68
t64 -187q0 -14 -1 -26.5t-1 -14.5h-352q1 -24 11.5 -44.5t27 -35.5t38.5 -23.5t47 -8.5q47 0 73.5 21t38.5 54zM104 701h154l90 -150h-108z" />
    <glyph glyph-name="eacute" unicode="&#xe9;" horiz-adv-x="553" 
d="M322 551h-107l91 150h152zM388 302q-1 18 -7.5 35.5t-20 31t-34 22t-48.5 8.5q-26 0 -46 -9t-34 -23t-21.5 -31t-8.5 -34h220zM512 141q-9 -32 -28.5 -60.5t-47.5 -49.5t-65.5 -33.5t-82.5 -12.5q-51 0 -97 17.5t-81 51.5t-55.5 83t-20.5 111q0 59 20 107t53.5 81.5
t77.5 52t91 18.5q115 0 179 -68t64 -187q0 -14 -1 -26.5t-1 -14.5h-352q1 -24 11.5 -44.5t27 -35.5t38.5 -23.5t47 -8.5q47 0 73.5 21t38.5 54z" />
    <glyph glyph-name="ecircumflex" unicode="&#xea;" horiz-adv-x="553" 
d="M106 552l110 147h132l110 -147h-107l-71 75l-70 -75h-104zM388 302q-1 18 -7.5 35.5t-20 31t-34 22t-48.5 8.5q-26 0 -46 -9t-34 -23t-21.5 -31t-8.5 -34h220zM512 141q-9 -32 -28.5 -60.5t-47.5 -49.5t-65.5 -33.5t-82.5 -12.5q-51 0 -97 17.5t-81 51.5t-55.5 83
t-20.5 111q0 59 20 107t53.5 81.5t77.5 52t91 18.5q115 0 179 -68t64 -187q0 -14 -1 -26.5t-1 -14.5h-352q1 -24 11.5 -44.5t27 -35.5t38.5 -23.5t47 -8.5q47 0 73.5 21t38.5 54z" />
    <glyph glyph-name="edieresis" unicode="&#xeb;" horiz-adv-x="553" 
d="M107 628q0 29 20.5 50t49.5 21t50 -21t21 -50t-21 -49.5t-50 -20.5t-49.5 20.5t-20.5 49.5zM317 628q0 29 20 50t50 21q29 0 50 -21t21 -50t-21 -49.5t-50 -20.5q-30 0 -50 20.5t-20 49.5zM388 302q-1 18 -7.5 35.5t-20 31t-34 22t-48.5 8.5q-26 0 -46 -9t-34 -23
t-21.5 -31t-8.5 -34h220zM512 141q-9 -32 -28.5 -60.5t-47.5 -49.5t-65.5 -33.5t-82.5 -12.5q-51 0 -97 17.5t-81 51.5t-55.5 83t-20.5 111q0 59 20 107t53.5 81.5t77.5 52t91 18.5q115 0 179 -68t64 -187q0 -14 -1 -26.5t-1 -14.5h-352q1 -24 11.5 -44.5t27 -35.5
t38.5 -23.5t47 -8.5q47 0 73.5 21t38.5 54z" />
    <glyph glyph-name="igrave" unicode="&#xec;" horiz-adv-x="275" 
d="M71 0v492h133v-492h-133zM-41 701h154l90 -150h-108z" />
    <glyph glyph-name="iacute" unicode="&#xed;" horiz-adv-x="275" 
d="M185 551h-107l91 150h152zM71 0v492h133v-492h-133z" />
    <glyph glyph-name="icircumflex" unicode="&#xee;" horiz-adv-x="275" 
d="M-37 552l110 147h132l110 -147h-107l-71 75l-70 -75h-104zM71 0v492h133v-492h-133z" />
    <glyph glyph-name="idieresis" unicode="&#xef;" horiz-adv-x="275" 
d="M-21 628q0 29 19.5 49t48.5 20t49 -20t20 -49t-20 -48.5t-49 -19.5t-48.5 19.5t-19.5 48.5zM158 628q0 29 19.5 49t48.5 20t49 -20t20 -49t-20 -48.5t-49 -19.5t-48.5 19.5t-19.5 48.5zM71 0v492h133v-492h-133z" />
    <glyph glyph-name="eth" unicode="&#xf0;" horiz-adv-x="581" 
d="M435 590q51 -57 82 -135.5t31 -177.5q0 -59 -16.5 -112t-48.5 -93t-80.5 -63.5t-112.5 -23.5q-55 0 -101.5 18.5t-81 51t-54 77t-19.5 97.5q0 57 21 101t55 73t77.5 44t87.5 15q34 0 67 -10t50 -28q-11 35 -30.5 64.5t-43.5 52.5l-137 -58l-32 80l87 37q-28 15 -56 26.5
t-55 19.5l41 100q51 -13 101.5 -35t96.5 -56l114 48l34 -81zM290 105q24 0 47 8t40 24t27.5 39.5t10.5 54.5t-10.5 54.5t-27.5 39.5t-40 24t-47 8t-46.5 -8.5t-39.5 -24.5t-27.5 -39.5t-10.5 -53.5t10.5 -53.5t27.5 -39.5t39.5 -24.5t46.5 -8.5z" />
    <glyph glyph-name="ntilde" unicode="&#xf1;" horiz-adv-x="584" 
d="M204 0h-133v492h129v-61q23 38 62.5 56t79.5 18q46 0 79.5 -15.5t55.5 -41.5t32.5 -62t10.5 -76v-310h-133v287q0 42 -21.5 70t-69.5 28q-44 0 -68 -29.5t-24 -72.5v-283zM474 678q0 -63 -30 -93t-77 -30q-21 0 -39 6t-32 16l-6 4l-19.5 12t-27.5 6q-16 0 -25 -10
t-10 -33h-82v21q0 61 31.5 91t77.5 30q22 0 39 -7t33 -15l6 -4q13 -8 24.5 -13.5t23.5 -5.5q33 0 33 43h80v-18z" />
    <glyph glyph-name="ograve" unicode="&#xf2;" horiz-adv-x="584" 
d="M292 106q24 0 47 9t40 26.5t27.5 43.5t10.5 61t-10.5 61t-27.5 43.5t-40 26.5t-47 9t-47 -9t-40 -26.5t-27.5 -43.5t-10.5 -61t10.5 -61t27.5 -43.5t40 -26.5t47 -9zM292 507q55 0 102.5 -19.5t82 -54t54 -82.5t19.5 -105t-19.5 -104.5t-54 -82.5t-82 -54.5t-102.5 -19.5
t-102.5 19.5t-82 54.5t-54 82.5t-19.5 104.5t19.5 105t54 82.5t82 54t102.5 19.5zM109 701h154l90 -150h-108z" />
    <glyph glyph-name="oacute" unicode="&#xf3;" horiz-adv-x="584" 
d="M331 551h-107l91 150h152zM292 106q24 0 47 9t40 26.5t27.5 43.5t10.5 61t-10.5 61t-27.5 43.5t-40 26.5t-47 9t-47 -9t-40 -26.5t-27.5 -43.5t-10.5 -61t10.5 -61t27.5 -43.5t40 -26.5t47 -9zM292 507q55 0 102.5 -19.5t82 -54t54 -82.5t19.5 -105t-19.5 -104.5
t-54 -82.5t-82 -54.5t-102.5 -19.5t-102.5 19.5t-82 54.5t-54 82.5t-19.5 104.5t19.5 105t54 82.5t82 54t102.5 19.5z" />
    <glyph glyph-name="ocircumflex" unicode="&#xf4;" horiz-adv-x="584" 
d="M118 552l110 147h132l110 -147h-107l-71 75l-70 -75h-104zM292 106q24 0 47 9t40 26.5t27.5 43.5t10.5 61t-10.5 61t-27.5 43.5t-40 26.5t-47 9t-47 -9t-40 -26.5t-27.5 -43.5t-10.5 -61t10.5 -61t27.5 -43.5t40 -26.5t47 -9zM292 507q55 0 102.5 -19.5t82 -54t54 -82.5
t19.5 -105t-19.5 -104.5t-54 -82.5t-82 -54.5t-102.5 -19.5t-102.5 19.5t-82 54.5t-54 82.5t-19.5 104.5t19.5 105t54 82.5t82 54t102.5 19.5z" />
    <glyph glyph-name="otilde" unicode="&#xf5;" horiz-adv-x="584" 
d="M292 106q24 0 47 9t40 26.5t27.5 43.5t10.5 61t-10.5 61t-27.5 43.5t-40 26.5t-47 9t-47 -9t-40 -26.5t-27.5 -43.5t-10.5 -61t10.5 -61t27.5 -43.5t40 -26.5t47 -9zM292 507q55 0 102.5 -19.5t82 -54t54 -82.5t19.5 -105t-19.5 -104.5t-54 -82.5t-82 -54.5t-102.5 -19.5
t-102.5 19.5t-82 54.5t-54 82.5t-19.5 104.5t19.5 105t54 82.5t82 54t102.5 19.5zM467 678q0 -63 -30 -93t-77 -30q-21 0 -39 6t-32 16l-6 4l-19.5 12t-27.5 6q-16 0 -25 -10t-10 -33h-82v21q0 61 31.5 91t77.5 30q22 0 39 -7t33 -15l6 -4q13 -8 24.5 -13.5t23.5 -5.5
q33 0 33 43h80v-18z" />
    <glyph glyph-name="odieresis" unicode="&#xf6;" horiz-adv-x="584" 
d="M116 628q0 29 20.5 50t49.5 21t50 -21t21 -50t-21 -49.5t-50 -20.5t-49.5 20.5t-20.5 49.5zM326 628q0 29 20 50t50 21q29 0 50 -21t21 -50t-21 -49.5t-50 -20.5q-30 0 -50 20.5t-20 49.5zM292 106q24 0 47 9t40 26.5t27.5 43.5t10.5 61t-10.5 61t-27.5 43.5t-40 26.5
t-47 9t-47 -9t-40 -26.5t-27.5 -43.5t-10.5 -61t10.5 -61t27.5 -43.5t40 -26.5t47 -9zM292 507q55 0 102.5 -19.5t82 -54t54 -82.5t19.5 -105t-19.5 -104.5t-54 -82.5t-82 -54.5t-102.5 -19.5t-102.5 19.5t-82 54.5t-54 82.5t-19.5 104.5t19.5 105t54 82.5t82 54t102.5 19.5
z" />
    <glyph glyph-name="divide" unicode="&#xf7;" horiz-adv-x="587" 
d="M213 112q0 16 6 30t16.5 24.5t25 16.5t30.5 6t30.5 -6t25 -16.5t16.5 -24.5t6 -30t-6 -30t-16.5 -24.5t-25 -17t-30.5 -6.5t-30.5 6.5t-25 17t-16.5 24.5t-6 30zM213 478q0 16 6 30t16.5 24.5t25 16.5t30.5 6t30.5 -6t25 -16.5t16.5 -24.5t6 -30t-6 -30t-16.5 -24.5
t-25 -17t-30.5 -6.5t-30.5 6.5t-25 17t-16.5 24.5t-6 30zM49 350h489v-111h-489v111z" />
    <glyph glyph-name="oslash" unicode="&#xf8;" horiz-adv-x="584" 
d="M292 507q73 0 132 -34l53 65l64 -54l-52 -65q29 -34 45 -78t16 -95q0 -57 -19.5 -104.5t-54 -82.5t-82 -54.5t-102.5 -19.5q-35 0 -67.5 8.5t-60.5 22.5l-50 -62l-66 54l50 61q-30 35 -47 79.5t-17 97.5q0 57 19.5 105t54 82.5t82 54t102.5 19.5zM167 246q0 -42 15 -72
l163 201q-27 11 -53 11q-24 0 -47 -9t-40 -26.5t-27.5 -43.5t-10.5 -61zM292 106q24 0 47 9t40 26.5t27.5 43.5t10.5 61q0 37 -13 68l-160 -199q22 -9 48 -9z" />
    <glyph glyph-name="ugrave" unicode="&#xf9;" horiz-adv-x="586" 
d="M393 0q-2 8 -3 23t-1 30q-20 -35 -58.5 -50.5t-77.5 -15.5q-45 0 -79.5 15.5t-58.5 41.5t-36.5 61.5t-12.5 75.5v311h133v-284q0 -42 21.5 -70.5t68.5 -28.5q45 0 69 27t24 70v286h133v-403q0 -29 1.5 -52.5t3.5 -36.5h-127zM122 701h154l90 -150h-108z" />
    <glyph glyph-name="uacute" unicode="&#xfa;" horiz-adv-x="586" 
d="M314 551h-107l91 150h152zM393 0q-2 8 -3 23t-1 30q-20 -35 -58.5 -50.5t-77.5 -15.5q-45 0 -79.5 15.5t-58.5 41.5t-36.5 61.5t-12.5 75.5v311h133v-284q0 -42 21.5 -70.5t68.5 -28.5q45 0 69 27t24 70v286h133v-403q0 -29 1.5 -52.5t3.5 -36.5h-127z" />
    <glyph glyph-name="ucircumflex" unicode="&#xfb;" horiz-adv-x="586" 
d="M116 552l110 147h132l110 -147h-107l-71 75l-70 -75h-104zM393 0q-2 8 -3 23t-1 30q-20 -35 -58.5 -50.5t-77.5 -15.5q-45 0 -79.5 15.5t-58.5 41.5t-36.5 61.5t-12.5 75.5v311h133v-284q0 -42 21.5 -70.5t68.5 -28.5q45 0 69 27t24 70v286h133v-403q0 -29 1.5 -52.5
t3.5 -36.5h-127z" />
    <glyph glyph-name="udieresis" unicode="&#xfc;" horiz-adv-x="586" 
d="M118 628q0 29 20.5 50t49.5 21t50 -21t21 -50t-21 -49.5t-50 -20.5t-49.5 20.5t-20.5 49.5zM328 628q0 29 20 50t50 21q29 0 50 -21t21 -50t-21 -49.5t-50 -20.5q-30 0 -50 20.5t-20 49.5zM393 0q-2 8 -3 23t-1 30q-20 -35 -58.5 -50.5t-77.5 -15.5q-45 0 -79.5 15.5
t-58.5 41.5t-36.5 61.5t-12.5 75.5v311h133v-284q0 -42 21.5 -70.5t68.5 -28.5q45 0 69 27t24 70v286h133v-403q0 -29 1.5 -52.5t3.5 -36.5h-127z" />
    <glyph glyph-name="yacute" unicode="&#xfd;" horiz-adv-x="560" 
d="M100 -194l116 256l-209 430h149l131 -288l121 288h142l-309 -686h-141zM313 551h-107l91 150h152z" />
    <glyph glyph-name="thorn" unicode="&#xfe;" horiz-adv-x="612" 
d="M71 -190v914h133v-286q18 26 56 45.5t91 19.5q54 0 96 -19.5t71.5 -54t44.5 -81t15 -101.5q0 -56 -16.5 -103.5t-47 -82t-73.5 -54t-95 -19.5q-51 0 -87.5 17.5t-54.5 42.5v-238h-133zM447 246q0 66 -35.5 102t-86.5 36q-26 0 -48 -9.5t-39 -27t-26.5 -43t-9.5 -58.5
t9.5 -58.5t26.5 -43.5t39 -27.5t48 -9.5q51 0 86.5 36.5t35.5 102.5z" />
    <glyph glyph-name="ydieresis" unicode="&#xff;" horiz-adv-x="560" 
d="M100 -194l116 256l-209 430h149l131 -288l121 288h142l-309 -686h-141zM107 628q0 29 20.5 50t49.5 21t50 -21t21 -50t-21 -49.5t-50 -20.5t-49.5 20.5t-20.5 49.5zM317 628q0 29 20 50t50 21q29 0 50 -21t21 -50t-21 -49.5t-50 -20.5q-30 0 -50 20.5t-20 49.5z" />
    <glyph glyph-name="Amacron" unicode="&#x100;" horiz-adv-x="722" 
d="M503 162h-288l-59 -162h-146l272 709h160l270 -709h-150zM261 288h196l-98 268zM206 774v100h305v-100h-305z" />
    <glyph glyph-name="amacron" unicode="&#x101;" horiz-adv-x="539" 
d="M41 134q0 33 11.5 58.5t31.5 44.5t46.5 30t57.5 16l121 18q21 3 29 12.5t8 22.5q0 26 -20.5 45t-62.5 19q-44 0 -67.5 -24t-26.5 -56l-118 25q3 29 18 58t41 52t64 37.5t88 14.5q58 0 99 -15.5t66.5 -41t37 -59.5t11.5 -71v-242q0 -20 2 -42.5t4 -35.5h-122
q-2 10 -3.5 27.5t-1.5 31.5q-19 -29 -54.5 -51t-90.5 -22q-39 0 -70.5 12.5t-53.5 33t-33.5 47t-11.5 55.5zM238 85q21 0 40.5 5.5t34.5 19t24 35t9 54.5v22l-111 -17q-26 -4 -43.5 -18.5t-17.5 -43.5q0 -22 16 -39.5t48 -17.5zM128 577v97h281v-97h-281z" />
    <glyph glyph-name="Abreve" unicode="&#x102;" horiz-adv-x="722" 
d="M503 162h-288l-59 -162h-146l272 709h160l270 -709h-150zM261 288h196l-98 268zM359 753q-41 0 -71 12t-50.5 31t-30.5 43.5t-11 48.5h102q1 -20 15.5 -35.5t45.5 -15.5t45.5 15.5t15.5 35.5h102q-1 -24 -11 -48.5t-30.5 -43.5t-50.5 -31t-71 -12z" />
    <glyph glyph-name="abreve" unicode="&#x103;" horiz-adv-x="539" 
d="M41 134q0 33 11.5 58.5t31.5 44.5t46.5 30t57.5 16l121 18q21 3 29 12.5t8 22.5q0 26 -20.5 45t-62.5 19q-44 0 -67.5 -24t-26.5 -56l-118 25q3 29 18 58t41 52t64 37.5t88 14.5q58 0 99 -15.5t66.5 -41t37 -59.5t11.5 -71v-242q0 -20 2 -42.5t4 -35.5h-122
q-2 10 -3.5 27.5t-1.5 31.5q-19 -29 -54.5 -51t-90.5 -22q-39 0 -70.5 12.5t-53.5 33t-33.5 47t-11.5 55.5zM238 85q21 0 40.5 5.5t34.5 19t24 35t9 54.5v22l-111 -17q-26 -4 -43.5 -18.5t-17.5 -43.5q0 -22 16 -39.5t48 -17.5zM263 549q-39 0 -69 12.5t-50 33.5t-30.5 48.5
t-11.5 56.5h89q1 -20 17.5 -39.5t54.5 -19.5q19 0 32 5.5t22 14t13 19t5 20.5h89q-1 -29 -11 -56.5t-30.5 -48.5t-50 -33.5t-69.5 -12.5z" />
    <glyph glyph-name="Aogonek" unicode="&#x104;" horiz-adv-x="722" 
d="M503 162h-288l-59 -162h-146l272 709h160l270 -709q-14 -7 -28.5 -16.5t-25.5 -21.5t-18 -26t-7 -30q0 -23 14.5 -34t34.5 -11q11 0 16.5 0.5t13.5 2.5v-79q-10 -4 -22.5 -6t-29.5 -2q-54 0 -88.5 29t-34.5 78q0 45 22.5 72.5t50.5 43.5h-48zM261 288h196l-98 268z" />
    <glyph glyph-name="aogonek" unicode="&#x105;" horiz-adv-x="539" 
d="M452 -139q10 0 16.5 0.5t13.5 2.5v-79q-10 -4 -22.5 -6t-29.5 -2q-54 0 -88.5 29t-34.5 78q0 45 22 72t50 44h-19q-1 4 -3 18.5t-2 40.5q-19 -29 -54.5 -51t-90.5 -22q-39 0 -70.5 12.5t-53.5 33t-33.5 47t-11.5 55.5q0 33 11.5 58.5t31.5 44.5t46.5 30t57.5 16l121 18
q21 3 29 12.5t8 22.5q0 26 -20.5 45t-62.5 19q-44 0 -67.5 -24t-26.5 -56l-118 25q3 29 18 58t41 52t64 37.5t88 14.5q58 0 99 -15.5t66.5 -41t37 -59.5t11.5 -71v-242q0 -29 2 -47.5t4 -30.5q-14 -7 -28.5 -16.5t-25.5 -21.5t-18 -26t-7 -30q0 -23 14.5 -34t34.5 -11z
M238 85q21 0 40.5 5.5t34.5 19t24 35t9 54.5v22l-111 -17q-26 -4 -43.5 -18.5t-17.5 -43.5q0 -22 16 -39.5t48 -17.5z" />
    <glyph glyph-name="Cacute" unicode="&#x106;" horiz-adv-x="764" 
d="M402 -15q-74 0 -140 26t-115.5 74t-78.5 116t-29 153t29.5 153.5t79.5 116.5t115.5 74t136.5 26q73 0 129.5 -20.5t96 -54t64 -75.5t35.5 -85l-130 -41q-6 25 -20 51t-37.5 46t-57.5 33t-80 13q-40 0 -79 -14.5t-70 -43.5t-50 -74t-19 -105q0 -57 18.5 -100.5t49 -73
t70 -45t82.5 -15.5q45 0 79.5 13.5t58.5 34.5t39 46.5t22 50.5l129 -39q-10 -41 -34.5 -83.5t-65 -77.5t-97 -57.5t-131.5 -22.5zM452 759h-122l103 127h164z" />
    <glyph glyph-name="cacute" unicode="&#x107;" horiz-adv-x="550" 
d="M331 551h-107l91 150h152zM292 384q-26 0 -48.5 -9t-39.5 -26.5t-27 -43.5t-10 -59t10 -59t27.5 -44t40 -27t48.5 -9q25 0 44.5 7.5t33.5 19.5t22.5 27t12.5 29l117 -39q-8 -31 -26.5 -60.5t-47.5 -53t-68 -38t-88 -14.5q-54 0 -101.5 19.5t-82.5 54.5t-55 82.5
t-20 104.5t19.5 105t54 82.5t81 54t100.5 19.5q50 0 89.5 -14.5t68.5 -37.5t47 -53t26 -61l-119 -40q-9 31 -34.5 57t-74.5 26z" />
    <glyph glyph-name="Ccircumflex" unicode="&#x108;" horiz-adv-x="764" 
d="M213 759l120 127h136l122 -127h-125l-67 65l-65 -65h-121zM402 -15q-74 0 -140 26t-115.5 74t-78.5 116t-29 153t29.5 153.5t79.5 116.5t115.5 74t136.5 26q73 0 129.5 -20.5t96 -54t64 -75.5t35.5 -85l-130 -41q-6 25 -20 51t-37.5 46t-57.5 33t-80 13q-40 0 -79 -14.5
t-70 -43.5t-50 -74t-19 -105q0 -57 18.5 -100.5t49 -73t70 -45t82.5 -15.5q45 0 79.5 13.5t58.5 34.5t39 46.5t22 50.5l129 -39q-10 -41 -34.5 -83.5t-65 -77.5t-97 -57.5t-131.5 -22.5z" />
    <glyph glyph-name="ccircumflex" unicode="&#x109;" horiz-adv-x="550" 
d="M114 552l110 147h132l110 -147h-107l-71 75l-70 -75h-104zM292 384q-26 0 -48.5 -9t-39.5 -26.5t-27 -43.5t-10 -59t10 -59t27.5 -44t40 -27t48.5 -9q25 0 44.5 7.5t33.5 19.5t22.5 27t12.5 29l117 -39q-8 -31 -26.5 -60.5t-47.5 -53t-68 -38t-88 -14.5
q-54 0 -101.5 19.5t-82.5 54.5t-55 82.5t-20 104.5t19.5 105t54 82.5t81 54t100.5 19.5q50 0 89.5 -14.5t68.5 -37.5t47 -53t26 -61l-119 -40q-9 31 -34.5 57t-74.5 26z" />
    <glyph glyph-name="Cdotaccent" unicode="&#x10a;" horiz-adv-x="764" 
d="M402 -15q-74 0 -140 26t-115.5 74t-78.5 116t-29 153t29.5 153.5t79.5 116.5t115.5 74t136.5 26q73 0 129.5 -20.5t96 -54t64 -75.5t35.5 -85l-130 -41q-6 25 -20 51t-37.5 46t-57.5 33t-80 13q-40 0 -79 -14.5t-70 -43.5t-50 -74t-19 -105q0 -57 18.5 -100.5t49 -73
t70 -45t82.5 -15.5q45 0 79.5 13.5t58.5 34.5t39 46.5t22 50.5l129 -39q-10 -41 -34.5 -83.5t-65 -77.5t-97 -57.5t-131.5 -22.5zM319 839q0 34 23.5 57t56.5 23q34 0 57.5 -23t23.5 -57q0 -33 -23.5 -56t-57.5 -23q-33 0 -56.5 23t-23.5 56z" />
    <glyph glyph-name="cdotaccent" unicode="&#x10b;" horiz-adv-x="550" 
d="M292 384q-26 0 -48.5 -9t-39.5 -26.5t-27 -43.5t-10 -59t10 -59t27.5 -44t40 -27t48.5 -9q25 0 44.5 7.5t33.5 19.5t22.5 27t12.5 29l117 -39q-8 -31 -26.5 -60.5t-47.5 -53t-68 -38t-88 -14.5q-54 0 -101.5 19.5t-82.5 54.5t-55 82.5t-20 104.5t19.5 105t54 82.5t81 54
t100.5 19.5q50 0 89.5 -14.5t68.5 -37.5t47 -53t26 -61l-119 -40q-9 31 -34.5 57t-74.5 26zM208 628q0 34 23.5 56.5t56.5 22.5t56.5 -22.5t23.5 -56.5q0 -33 -23.5 -55.5t-56.5 -22.5t-56.5 22.5t-23.5 55.5z" />
    <glyph glyph-name="Ccaron" unicode="&#x10c;" horiz-adv-x="764" 
d="M337 886l66 -64l67 64h121l-122 -127h-136l-120 127h124zM402 -15q-74 0 -140 26t-115.5 74t-78.5 116t-29 153t29.5 153.5t79.5 116.5t115.5 74t136.5 26q73 0 129.5 -20.5t96 -54t64 -75.5t35.5 -85l-130 -41q-6 25 -20 51t-37.5 46t-57.5 33t-80 13q-40 0 -79 -14.5
t-70 -43.5t-50 -74t-19 -105q0 -57 18.5 -100.5t49 -73t70 -45t82.5 -15.5q45 0 79.5 13.5t58.5 34.5t39 46.5t22 50.5l129 -39q-10 -41 -34.5 -83.5t-65 -77.5t-97 -57.5t-131.5 -22.5z" />
    <glyph glyph-name="ccaron" unicode="&#x10d;" horiz-adv-x="550" 
d="M214 700l70 -75l70 75h105l-109 -148h-133l-110 148h107zM292 384q-26 0 -48.5 -9t-39.5 -26.5t-27 -43.5t-10 -59t10 -59t27.5 -44t40 -27t48.5 -9q25 0 44.5 7.5t33.5 19.5t22.5 27t12.5 29l117 -39q-8 -31 -26.5 -60.5t-47.5 -53t-68 -38t-88 -14.5q-54 0 -101.5 19.5
t-82.5 54.5t-55 82.5t-20 104.5t19.5 105t54 82.5t81 54t100.5 19.5q50 0 89.5 -14.5t68.5 -37.5t47 -53t26 -61l-119 -40q-9 31 -34.5 57t-74.5 26z" />
    <glyph glyph-name="Dcaron" unicode="&#x10e;" horiz-adv-x="724" 
d="M290 886l66 -64l67 64h121l-122 -127h-136l-120 127h124zM329 128q43 0 82 13.5t68 41.5t46 70.5t17 100.5t-17 100.5t-45.5 70.5t-67.5 42t-82 14h-111v-453h110zM81 0v709h254q76 0 140 -24t110.5 -69.5t73 -111.5t26.5 -150t-26.5 -150t-73.5 -111t-111 -69t-140 -24
h-253z" />
    <glyph glyph-name="dcaron" unicode="&#x10f;" horiz-adv-x="708" 
d="M669 526h-89l29 198h132zM540 89q0 -25 1 -49.5t3 -39.5h-127q-2 8 -3.5 24t-1.5 33q-17 -29 -52.5 -49t-85.5 -20q-53 0 -97 19.5t-75.5 54t-49.5 82t-18 103.5q0 54 17.5 101t48.5 81.5t74.5 54.5t95.5 20q32 0 55.5 -6t40.5 -15t27.5 -19.5t15.5 -20.5v281h131v-635z
M168 247q0 -66 34.5 -103t87.5 -37q51 0 86 37t35 104q0 66 -35 101.5t-86 35.5t-86.5 -36t-35.5 -102z" />
    <glyph glyph-name="Dcroat" unicode="&#x110;" horiz-adv-x="747" 
d="M104 0v315h-88v102h88v292h254q76 0 140 -24t110.5 -69.5t73 -111.5t26.5 -150t-26.5 -150t-73.5 -111t-111 -69t-140 -24h-253zM352 128q43 0 82 13.5t68 41.5t46 70.5t17 100.5t-17 100.5t-45.5 70.5t-67.5 42t-82 14h-111v-164h137v-102h-137v-187h110z" />
    <glyph glyph-name="dcroat" unicode="&#x111;" horiz-adv-x="624" 
d="M540 646h71v-95h-71v-462q0 -23 1 -49t3 -40h-127q-2 8 -3.5 24t-1.5 33q-17 -29 -52.5 -49t-85.5 -20q-53 0 -97 19.5t-75.5 54t-49.5 82t-18 103.5q0 54 17.5 101t48.5 81.5t74.5 54.5t95.5 20q32 0 55.5 -6t40.5 -15t27.5 -19.5t15.5 -20.5v108h-115v95h115v78h131
v-78zM168 247q0 -66 34.5 -103t87.5 -37q51 0 86 37t35 104q0 66 -35 101.5t-86 35.5t-86.5 -36t-35.5 -102z" />
    <glyph glyph-name="Emacron" unicode="&#x112;" horiz-adv-x="582" 
d="M81 0v709h444v-130h-306v-162h277v-123h-277v-164h306v-130h-444zM149 774v100h305v-100h-305z" />
    <glyph glyph-name="emacron" unicode="&#x113;" horiz-adv-x="553" 
d="M388 302q-1 18 -7.5 35.5t-20 31t-34 22t-48.5 8.5q-26 0 -46 -9t-34 -23t-21.5 -31t-8.5 -34h220zM512 141q-9 -32 -28.5 -60.5t-47.5 -49.5t-65.5 -33.5t-82.5 -12.5q-51 0 -97 17.5t-81 51.5t-55.5 83t-20.5 111q0 59 20 107t53.5 81.5t77.5 52t91 18.5q115 0 179 -68
t64 -187q0 -14 -1 -26.5t-1 -14.5h-352q1 -24 11.5 -44.5t27 -35.5t38.5 -23.5t47 -8.5q47 0 73.5 21t38.5 54zM141 577v97h281v-97h-281z" />
    <glyph glyph-name="Ebreve" unicode="&#x114;" horiz-adv-x="582" 
d="M81 0v709h444v-130h-306v-162h277v-123h-277v-164h306v-130h-444zM300 753q-41 0 -71 12t-50.5 31t-30.5 43.5t-11 48.5h102q1 -20 15.5 -35.5t45.5 -15.5t45.5 15.5t15.5 35.5h102q-1 -24 -11 -48.5t-30.5 -43.5t-50.5 -31t-71 -12z" />
    <glyph glyph-name="ebreve" unicode="&#x115;" horiz-adv-x="553" 
d="M388 302q-1 18 -7.5 35.5t-20 31t-34 22t-48.5 8.5q-26 0 -46 -9t-34 -23t-21.5 -31t-8.5 -34h220zM512 141q-9 -32 -28.5 -60.5t-47.5 -49.5t-65.5 -33.5t-82.5 -12.5q-51 0 -97 17.5t-81 51.5t-55.5 83t-20.5 111q0 59 20 107t53.5 81.5t77.5 52t91 18.5q115 0 179 -68
t64 -187q0 -14 -1 -26.5t-1 -14.5h-352q1 -24 11.5 -44.5t27 -35.5t38.5 -23.5t47 -8.5q47 0 73.5 21t38.5 54zM280 549q-39 0 -69 12.5t-50 33.5t-30.5 48.5t-11.5 56.5h89q1 -20 17.5 -39.5t54.5 -19.5q19 0 32 5.5t22 14t13 19t5 20.5h89q-1 -29 -11 -56.5t-30.5 -48.5
t-50 -33.5t-69.5 -12.5z" />
    <glyph glyph-name="Edotaccent" unicode="&#x116;" horiz-adv-x="582" 
d="M221 833q0 34 23.5 57t56.5 23q34 0 57.5 -23t23.5 -57q0 -33 -23.5 -56t-57.5 -23q-33 0 -56.5 23t-23.5 56zM81 0v709h444v-130h-306v-162h277v-123h-277v-164h306v-130h-444z" />
    <glyph glyph-name="edotaccent" unicode="&#x117;" horiz-adv-x="553" 
d="M388 302q-1 18 -7.5 35.5t-20 31t-34 22t-48.5 8.5q-26 0 -46 -9t-34 -23t-21.5 -31t-8.5 -34h220zM512 141q-9 -32 -28.5 -60.5t-47.5 -49.5t-65.5 -33.5t-82.5 -12.5q-51 0 -97 17.5t-81 51.5t-55.5 83t-20.5 111q0 59 20 107t53.5 81.5t77.5 52t91 18.5q115 0 179 -68
t64 -187q0 -14 -1 -26.5t-1 -14.5h-352q1 -24 11.5 -44.5t27 -35.5t38.5 -23.5t47 -8.5q47 0 73.5 21t38.5 54zM202 627q0 34 23.5 56.5t56.5 22.5t56.5 -22.5t23.5 -56.5q0 -33 -23.5 -55.5t-56.5 -22.5t-56.5 22.5t-23.5 55.5z" />
    <glyph glyph-name="Eogonek" unicode="&#x118;" horiz-adv-x="582" 
d="M473 -223q-54 0 -88.5 29t-34.5 78q0 45 22.5 72.5t50.5 43.5h-342v709h444v-130h-306v-162h277v-123h-277v-164h306v-130q-14 -7 -28.5 -16.5t-25.5 -21.5t-18 -26t-7 -30q0 -23 14.5 -34t34.5 -11q10 0 16.5 0.5t13.5 2.5v-79q-10 -4 -22.5 -6t-29.5 -2z" />
    <glyph glyph-name="eogonek" unicode="&#x119;" horiz-adv-x="553" 
d="M512 141q-14 -47 -47.5 -84.5t-86.5 -56.5q-14 -7 -28.5 -16.5t-25.5 -21.5t-18 -26t-7 -30q0 -23 14.5 -34t34.5 -11q10 0 16 0.5t14 2.5v-79q-10 -4 -22.5 -6t-29.5 -2q-54 0 -88.5 29t-34.5 78q0 36 15 61t37 42q-45 5 -85.5 25t-70.5 53.5t-47.5 79.5t-17.5 103
q0 59 20 107t53.5 81.5t77.5 52t91 18.5q115 0 179 -68t64 -187q0 -14 -1 -26.5t-1 -14.5h-352q1 -24 11.5 -44.5t27 -35.5t38.5 -23.5t47 -8.5q47 0 73.5 21t38.5 54zM388 302q-1 18 -7.5 35.5t-20 31t-34 22t-48.5 8.5q-26 0 -46 -9t-34 -23t-21.5 -31t-8.5 -34h220z" />
    <glyph glyph-name="Ecaron" unicode="&#x11a;" horiz-adv-x="582" 
d="M240 886l66 -64l67 64h121l-122 -127h-136l-120 127h124zM81 0v709h444v-130h-306v-162h277v-123h-277v-164h306v-130h-444z" />
    <glyph glyph-name="ecaron" unicode="&#x11b;" horiz-adv-x="553" 
d="M210 700l70 -75l70 75h105l-109 -148h-133l-110 148h107zM388 302q-1 18 -7.5 35.5t-20 31t-34 22t-48.5 8.5q-26 0 -46 -9t-34 -23t-21.5 -31t-8.5 -34h220zM512 141q-9 -32 -28.5 -60.5t-47.5 -49.5t-65.5 -33.5t-82.5 -12.5q-51 0 -97 17.5t-81 51.5t-55.5 83
t-20.5 111q0 59 20 107t53.5 81.5t77.5 52t91 18.5q115 0 179 -68t64 -187q0 -14 -1 -26.5t-1 -14.5h-352q1 -24 11.5 -44.5t27 -35.5t38.5 -23.5t47 -8.5q47 0 73.5 21t38.5 54z" />
    <glyph glyph-name="Gcircumflex" unicode="&#x11c;" horiz-adv-x="781" 
d="M211 759l120 127h136l122 -127h-125l-67 65l-65 -65h-121zM611 0l-9 81q-12 -18 -31 -35.5t-45.5 -31t-59.5 -21.5t-73 -8q-72 0 -136 25.5t-112.5 73t-77 116t-28.5 154.5t29.5 154.5t80 116.5t116 73.5t137.5 25.5q70 0 124.5 -18.5t94.5 -49.5t66 -70t39 -80l-132 -47
q-7 24 -21.5 48t-38 43.5t-56.5 32t-76 12.5q-40 0 -80 -14t-71.5 -43.5t-51.5 -75t-20 -108.5q0 -60 18.5 -105.5t49 -76t71 -46t85.5 -15.5q49 0 84 14.5t57.5 35.5t34 45t14.5 43h-224v120h354v-369h-112z" />
    <glyph glyph-name="gcircumflex" unicode="&#x11d;" horiz-adv-x="597" 
d="M118 552l110 147h132l110 -147h-107l-71 75l-70 -75h-104zM156 5q7 -41 37 -67t78 -26q63 0 97 32.5t34 104.5v36q-15 -24 -49 -43.5t-88 -19.5q-49 0 -91 18t-72.5 50t-48 75.5t-17.5 95.5q0 49 17 92.5t47 76.5t72 52t93 19q59 0 93 -21t47 -46v58h128v-439
q0 -51 -14.5 -97.5t-45.5 -82t-80 -57t-118 -21.5q-51 0 -92.5 14.5t-72.5 39t-50 57t-24 67.5zM288 136q51 0 83.5 34t32.5 91t-34 90.5t-82 33.5q-25 0 -46.5 -8.5t-37.5 -25t-25 -39.5t-9 -51q0 -58 33 -91.5t85 -33.5z" />
    <glyph glyph-name="Gbreve" unicode="&#x11e;" horiz-adv-x="781" 
d="M398 753q-41 0 -71 12t-50.5 31t-30.5 43.5t-11 48.5h102q1 -20 15.5 -35.5t45.5 -15.5t45.5 15.5t15.5 35.5h102q-1 -24 -11 -48.5t-30.5 -43.5t-50.5 -31t-71 -12zM611 0l-9 81q-12 -18 -31 -35.5t-45.5 -31t-59.5 -21.5t-73 -8q-72 0 -136 25.5t-112.5 73t-77 116
t-28.5 154.5t29.5 154.5t80 116.5t116 73.5t137.5 25.5q70 0 124.5 -18.5t94.5 -49.5t66 -70t39 -80l-132 -47q-7 24 -21.5 48t-38 43.5t-56.5 32t-76 12.5q-40 0 -80 -14t-71.5 -43.5t-51.5 -75t-20 -108.5q0 -60 18.5 -105.5t49 -76t71 -46t85.5 -15.5q49 0 84 14.5
t57.5 35.5t34 45t14.5 43h-224v120h354v-369h-112z" />
    <glyph glyph-name="gbreve" unicode="&#x11f;" horiz-adv-x="597" 
d="M156 5q7 -41 37 -67t78 -26q63 0 97 32.5t34 104.5v36q-15 -24 -49 -43.5t-88 -19.5q-49 0 -91 18t-72.5 50t-48 75.5t-17.5 95.5q0 49 17 92.5t47 76.5t72 52t93 19q59 0 93 -21t47 -46v58h128v-439q0 -51 -14.5 -97.5t-45.5 -82t-80 -57t-118 -21.5q-51 0 -92.5 14.5
t-72.5 39t-50 57t-24 67.5zM288 136q51 0 83.5 34t32.5 91t-34 90.5t-82 33.5q-25 0 -46.5 -8.5t-37.5 -25t-25 -39.5t-9 -51q0 -58 33 -91.5t85 -33.5zM287 549q-39 0 -69 12.5t-50 33.5t-30.5 48.5t-11.5 56.5h89q1 -20 17.5 -39.5t54.5 -19.5q19 0 32 5.5t22 14t13 19
t5 20.5h89q-1 -29 -11 -56.5t-30.5 -48.5t-50 -33.5t-69.5 -12.5z" />
    <glyph glyph-name="Gdotaccent" unicode="&#x120;" horiz-adv-x="781" 
d="M320 836q0 34 23.5 57t56.5 23q34 0 57.5 -23t23.5 -57q0 -33 -23.5 -56t-57.5 -23q-33 0 -56.5 23t-23.5 56zM611 0l-9 81q-12 -18 -31 -35.5t-45.5 -31t-59.5 -21.5t-73 -8q-72 0 -136 25.5t-112.5 73t-77 116t-28.5 154.5t29.5 154.5t80 116.5t116 73.5t137.5 25.5
q70 0 124.5 -18.5t94.5 -49.5t66 -70t39 -80l-132 -47q-7 24 -21.5 48t-38 43.5t-56.5 32t-76 12.5q-40 0 -80 -14t-71.5 -43.5t-51.5 -75t-20 -108.5q0 -60 18.5 -105.5t49 -76t71 -46t85.5 -15.5q49 0 84 14.5t57.5 35.5t34 45t14.5 43h-224v120h354v-369h-112z" />
    <glyph glyph-name="gdotaccent" unicode="&#x121;" horiz-adv-x="597" 
d="M156 5q7 -41 37 -67t78 -26q63 0 97 32.5t34 104.5v36q-15 -24 -49 -43.5t-88 -19.5q-49 0 -91 18t-72.5 50t-48 75.5t-17.5 95.5q0 49 17 92.5t47 76.5t72 52t93 19q59 0 93 -21t47 -46v58h128v-439q0 -51 -14.5 -97.5t-45.5 -82t-80 -57t-118 -21.5q-51 0 -92.5 14.5
t-72.5 39t-50 57t-24 67.5zM288 136q51 0 83.5 34t32.5 91t-34 90.5t-82 33.5q-25 0 -46.5 -8.5t-37.5 -25t-25 -39.5t-9 -51q0 -58 33 -91.5t85 -33.5zM202 627q0 34 23.5 56.5t56.5 22.5t56.5 -22.5t23.5 -56.5q0 -33 -23.5 -55.5t-56.5 -22.5t-56.5 22.5t-23.5 55.5z" />
    <glyph glyph-name="Gcommaaccent" unicode="&#x122;" horiz-adv-x="781" 
d="M328 -104q0 27 20.5 45.5t52.5 18.5q34 0 57.5 -24t23.5 -63t-13.5 -63.5t-34.5 -38.5t-46 -19.5t-47 -5.5v48q36 0 57 13.5t24 33.5q-3 -2 -10.5 -4.5t-18.5 -2.5q-31 0 -48 17.5t-17 44.5zM611 0l-9 81q-12 -18 -31 -35.5t-45.5 -31t-59.5 -21.5t-73 -8
q-72 0 -136 25.5t-112.5 73t-77 116t-28.5 154.5t29.5 154.5t80 116.5t116 73.5t137.5 25.5q70 0 124.5 -18.5t94.5 -49.5t66 -70t39 -80l-132 -47q-7 24 -21.5 48t-38 43.5t-56.5 32t-76 12.5q-40 0 -80 -14t-71.5 -43.5t-51.5 -75t-20 -108.5q0 -60 18.5 -105.5t49 -76
t71 -46t85.5 -15.5q49 0 84 14.5t57.5 35.5t34 45t14.5 43h-224v120h354v-369h-112z" />
    <glyph glyph-name="gcommaaccent" unicode="&#x123;" horiz-adv-x="597" 
d="M356 605q0 -28 -20.5 -46t-52.5 -18q-35 0 -58 24t-23 62q0 36 13.5 60t34.5 39t46 21.5t47 6.5v-48q-37 0 -58 -14t-23 -32q1 1 9 4t19 3q32 0 49 -18t17 -44zM156 5q7 -41 37 -67t78 -26q63 0 97 32.5t34 104.5v36q-15 -24 -49 -43.5t-88 -19.5q-49 0 -91 18t-72.5 50
t-48 75.5t-17.5 95.5q0 49 17 92.5t47 76.5t72 52t93 19q59 0 93 -21t47 -46v58h128v-439q0 -51 -14.5 -97.5t-45.5 -82t-80 -57t-118 -21.5q-51 0 -92.5 14.5t-72.5 39t-50 57t-24 67.5zM288 136q51 0 83.5 34t32.5 91t-34 90.5t-82 33.5q-25 0 -46.5 -8.5t-37.5 -25
t-25 -39.5t-9 -51q0 -58 33 -91.5t85 -33.5z" />
    <glyph glyph-name="Hcircumflex" unicode="&#x124;" horiz-adv-x="748" 
d="M528 0v294h-309v-294h-138v709h138v-285h309v285h139v-709h-139zM185 759l120 127h136l122 -127h-125l-67 65l-65 -65h-121z" />
    <glyph glyph-name="hcircumflex" unicode="&#x125;" horiz-adv-x="584" 
d="M107 769l120 127h136l122 -127h-125l-67 65l-65 -65h-121zM204 0h-133v724h133v-273q24 29 61 41.5t72 12.5q47 0 81.5 -15.5t57 -41.5t33.5 -62t11 -76v-310h-133v287q0 42 -21.5 70t-69.5 28q-42 0 -66 -27.5t-26 -68.5v-289z" />
    <glyph glyph-name="Hbar" unicode="&#x126;" horiz-adv-x="770" 
d="M539 0v294h-309v-294h-138v517h-71v87h71v105h138v-105h309v105h139v-105h71v-87h-71v-517h-139zM539 424v93h-309v-93h309z" />
    <glyph glyph-name="hbar" unicode="&#x127;" horiz-adv-x="601" 
d="M221 0h-133v552h-79v95h79v77h133v-77h111v-95h-111v-101q24 29 61 41.5t72 12.5q47 0 81.5 -15.5t57 -41.5t33.5 -62t11 -76v-310h-133v287q0 42 -21.5 70t-69.5 28q-42 0 -66 -27.5t-26 -68.5v-289z" />
    <glyph glyph-name="Itilde" unicode="&#x128;" horiz-adv-x="302" 
d="M81 0v709h140v-709h-140zM324 862q0 -55 -29.5 -82.5t-71.5 -27.5q-23 0 -41.5 7t-33.5 17l-6 4l-25.5 14t-22.5 6q-29 0 -29 -43h-80v27q0 55 30 82t71 27q23 0 41.5 -7t34.5 -16l6 -4l25 -13t22 -6q12 0 20.5 7t8.5 24v12h80v-28z" />
    <glyph glyph-name="itilde" unicode="&#x129;" horiz-adv-x="275" 
d="M71 0v492h133v-492h-133zM311 678q0 -63 -30 -93t-77 -30q-21 0 -39 6t-32 16l-6 4l-19.5 12t-27.5 6q-16 0 -25 -10t-10 -33h-82v21q0 61 31.5 91t77.5 30q22 0 39 -7t33 -15l6 -4q13 -8 24.5 -13.5t23.5 -5.5q33 0 33 43h80v-18z" />
    <glyph glyph-name="Imacron" unicode="&#x12a;" horiz-adv-x="302" 
d="M81 0v709h140v-709h-140zM0 774v100h305v-100h-305z" />
    <glyph glyph-name="imacron" unicode="&#x12b;" horiz-adv-x="275" 
d="M71 0v492h133v-492h-133zM-2 577v97h281v-97h-281z" />
    <glyph glyph-name="Ibreve" unicode="&#x12c;" horiz-adv-x="302" 
d="M81 0v709h140v-709h-140zM152 753q-41 0 -71 12t-50.5 31t-30.5 43.5t-11 48.5h102q1 -20 15.5 -35.5t45.5 -15.5t45.5 15.5t15.5 35.5h102q-1 -24 -11 -48.5t-30.5 -43.5t-50.5 -31t-71 -12z" />
    <glyph glyph-name="ibreve" unicode="&#x12d;" horiz-adv-x="275" 
d="M71 0v492h133v-492h-133zM138 549q-39 0 -69 12.5t-50 33.5t-30.5 48.5t-11.5 56.5h89q1 -20 17.5 -39.5t54.5 -19.5q19 0 32 5.5t22 14t13 19t5 20.5h89q-1 -29 -11 -56.5t-30.5 -48.5t-50 -33.5t-69.5 -12.5z" />
    <glyph glyph-name="Iogonek" unicode="&#x12e;" horiz-adv-x="302" 
d="M169 -223q-54 0 -88.5 29t-34.5 78q0 45 22.5 72.5t50.5 43.5h-38v709h140v-709q-14 -7 -28.5 -16.5t-25.5 -21.5t-18 -26t-7 -30q0 -23 13.5 -34t36.5 -11q11 0 16.5 0.5t12.5 2.5v-79q-10 -4 -22.5 -6t-29.5 -2z" />
    <glyph glyph-name="iogonek" unicode="&#x12f;" horiz-adv-x="275" 
d="M152 -223q-54 0 -88.5 29t-34.5 78q0 45 22 72t50 44h-30v492h133v-492q-14 -7 -28.5 -16.5t-25.5 -21.5t-18 -26t-7 -30q0 -23 14.5 -34t34.5 -11q10 0 16 0.5t14 2.5v-79q-10 -4 -22.5 -6t-29.5 -2zM55 653q0 35 24 59t58 24q35 0 58.5 -24t23.5 -59q0 -33 -23.5 -57
t-58.5 -24q-34 0 -58 24t-24 57z" />
    <glyph glyph-name="Idotaccent" unicode="&#x130;" horiz-adv-x="302" 
d="M81 0v709h140v-709h-140zM70 833q0 34 23.5 57t56.5 23q34 0 57.5 -23t23.5 -57q0 -33 -23.5 -56t-57.5 -23q-33 0 -56.5 23t-23.5 56z" />
    <glyph glyph-name="dotlessi" unicode="&#x131;" horiz-adv-x="275" 
d="M71 0v492h133v-492h-133z" />
    <glyph glyph-name="IJ" unicode="&#x132;" horiz-adv-x="614" 
d="M74 308v401h140v-401h-140zM214 240v-18q0 -55 26 -80.5t68 -25.5q45 0 69.5 28t24.5 75v490h138v-490q0 -48 -16.5 -90.5t-47 -74.5t-73 -50.5t-94.5 -18.5t-95.5 16.5t-74.5 47t-48 73t-17 94.5z" />
    <glyph glyph-name="ij" unicode="&#x133;" horiz-adv-x="551" 
d="M71 0v492h133v-492h-133zM55 653q0 35 24 59t58 24q35 0 58.5 -24t23.5 -59q0 -33 -23.5 -57t-58.5 -24q-34 0 -58 24t-24 57zM347 492h133v-535q0 -36 -10.5 -65.5t-30.5 -51t-48.5 -33.5t-64.5 -12q-29 0 -49.5 4.5t-25.5 6.5v111q7 -2 17 -3.5t24 -1.5q30 0 42.5 15.5
t12.5 42.5v522zM331 654q0 35 24 59t58 24q35 0 58.5 -24t23.5 -59q0 -34 -23.5 -57.5t-58.5 -23.5q-34 0 -58 23.5t-24 57.5z" />
    <glyph glyph-name="Jcircumflex" unicode="&#x134;" horiz-adv-x="557" 
d="M225 759l120 127h136l122 -127h-125l-67 65l-65 -65h-121zM20 263l133 24v-65q1 -55 28.5 -80.5t69.5 -25.5q44 0 69 28t25 75v490h138v-490q0 -48 -16.5 -90.5t-47 -74.5t-73 -50.5t-94.5 -18.5q-53 0 -95.5 16.5t-73 47t-47 73t-16.5 94.5v47z" />
    <glyph glyph-name="jcircumflex" unicode="&#x135;" horiz-adv-x="275" 
d="M-39 552l110 147h132l110 -147h-107l-71 75l-70 -75h-104zM71 492h133v-535q0 -36 -10.5 -65.5t-30.5 -51t-48.5 -33.5t-64.5 -12q-32 0 -51 4.5t-24 6.5v111q6 -2 16 -3.5t25 -1.5q30 0 42.5 15.5t12.5 42.5v522z" />
    <glyph glyph-name="Kcommaaccent" unicode="&#x136;" horiz-adv-x="698" 
d="M307 294l-88 -97v-197h-138v709h138v-321l284 321h181l-281 -309l283 -400h-173zM291 -99q0 27 20.5 45.5t52.5 18.5q34 0 57.5 -24t23.5 -63t-13.5 -63.5t-34.5 -38.5t-46 -19.5t-47 -5.5v48q36 0 57 13.5t24 33.5q-3 -2 -10.5 -4.5t-18.5 -2.5q-31 0 -48 17.5t-17 44.5
z" />
    <glyph glyph-name="kcommaaccent" unicode="&#x137;" horiz-adv-x="559" 
d="M351 285l201 -285h-163l-130 188l-55 -58v-130h-133v724h133v-415l170 183h174zM231 -102q0 27 20.5 45.5t52.5 18.5q34 0 57.5 -24t23.5 -63t-13.5 -63.5t-34.5 -38.5t-46 -19.5t-47 -5.5v48q36 0 57 13.5t24 33.5q-3 -2 -10.5 -4.5t-18.5 -2.5q-31 0 -48 17.5t-17 44.5
z" />
    <glyph glyph-name="kgreenlandic" unicode="&#x138;" horiz-adv-x="559" 
d="M351 285l201 -285h-163l-130 188l-55 -58v-130h-133v492h133v-183l170 183h174z" />
    <glyph glyph-name="Lacute" unicode="&#x139;" horiz-adv-x="560" 
d="M215 759h-122l103 127h164zM81 0v709h138v-577h316v-132h-454z" />
    <glyph glyph-name="lacute" unicode="&#x13a;" horiz-adv-x="275" 
d="M193 769h-122l103 127h164zM71 0v724h133v-724h-133z" />
    <glyph glyph-name="Lcommaaccent" unicode="&#x13b;" horiz-adv-x="560" 
d="M81 0v709h138v-577h316v-132h-454zM237 -102q0 27 20.5 45.5t52.5 18.5q34 0 57.5 -24t23.5 -63t-13.5 -63.5t-34.5 -38.5t-46 -19.5t-47 -5.5v48q36 0 57 13.5t24 33.5q-3 -2 -10.5 -4.5t-18.5 -2.5q-31 0 -48 17.5t-17 44.5z" />
    <glyph glyph-name="lcommaaccent" unicode="&#x13c;" horiz-adv-x="275" 
d="M71 0v724h133v-724h-133zM60 -102q0 27 20.5 45.5t52.5 18.5q34 0 57.5 -24t23.5 -63t-13.5 -63.5t-34.5 -38.5t-46 -19.5t-47 -5.5v48q36 0 57 13.5t24 33.5q-3 -2 -10.5 -4.5t-18.5 -2.5q-31 0 -48 17.5t-17 44.5z" />
    <glyph glyph-name="Lcaron" unicode="&#x13d;" horiz-adv-x="560" 
d="M401 552h-94l31 208h138zM81 0v709h138v-577h316v-132h-454z" />
    <glyph glyph-name="lcaron" unicode="&#x13e;" horiz-adv-x="372" 
d="M331 526h-89l29 198h132zM71 0v724h133v-724h-133z" />
    <glyph glyph-name="Ldot" unicode="&#x13f;" horiz-adv-x="560" 
d="M303 404q0 32 23 54t55 22t54.5 -22t22.5 -54t-22.5 -54t-54.5 -22t-55 22t-23 54zM81 0v709h138v-577h316v-132h-454z" />
    <glyph glyph-name="ldot" unicode="&#x140;" horiz-adv-x="435" 
d="M71 0v724h133v-724h-133zM254 330q0 34 23.5 56.5t56.5 22.5t56.5 -22.5t23.5 -56.5q0 -33 -23.5 -55.5t-56.5 -22.5t-56.5 22.5t-23.5 55.5z" />
    <glyph glyph-name="Lslash" unicode="&#x141;" horiz-adv-x="582" 
d="M103 0v259l-92 -42v111l92 42v339h138v-276l161 73v-111l-161 -73v-190h316v-132h-454z" />
    <glyph glyph-name="lslash" unicode="&#x142;" horiz-adv-x="327" 
d="M96 0v258l-85 -39v111l85 39v355h133v-295l87 40v-111l-87 -40v-318h-133z" />
    <glyph glyph-name="Nacute" unicode="&#x143;" horiz-adv-x="767" 
d="M411 759h-122l103 127h164zM541 0l-322 503v-503h-138v709h172l295 -469v469h138v-709h-145z" />
    <glyph glyph-name="nacute" unicode="&#x144;" horiz-adv-x="584" 
d="M317 551h-107l91 150h152zM204 0h-133v492h129v-61q23 38 62.5 56t79.5 18q46 0 79.5 -15.5t55.5 -41.5t32.5 -62t10.5 -76v-310h-133v287q0 42 -21.5 70t-69.5 28q-44 0 -68 -29.5t-24 -72.5v-283z" />
    <glyph glyph-name="Ncommaaccent" unicode="&#x145;" horiz-adv-x="767" 
d="M327 -102q0 27 20.5 45.5t52.5 18.5q34 0 57.5 -24t23.5 -63t-13.5 -63.5t-34.5 -38.5t-46 -19.5t-47 -5.5v48q36 0 57 13.5t24 33.5q-3 -2 -10.5 -4.5t-18.5 -2.5q-31 0 -48 17.5t-17 44.5zM541 0l-322 503v-503h-138v709h172l295 -469v469h138v-709h-145z" />
    <glyph glyph-name="ncommaaccent" unicode="&#x146;" horiz-adv-x="584" 
d="M224 -100q0 27 20.5 45.5t52.5 18.5q34 0 57.5 -24t23.5 -63t-13.5 -63.5t-34.5 -38.5t-46 -19.5t-47 -5.5v48q36 0 57 13.5t24 33.5q-3 -2 -10.5 -4.5t-18.5 -2.5q-31 0 -48 17.5t-17 44.5zM204 0h-133v492h129v-61q23 38 62.5 56t79.5 18q46 0 79.5 -15.5t55.5 -41.5
t32.5 -62t10.5 -76v-310h-133v287q0 42 -21.5 70t-69.5 28q-44 0 -68 -29.5t-24 -72.5v-283z" />
    <glyph glyph-name="Ncaron" unicode="&#x147;" horiz-adv-x="767" 
d="M317 886l66 -64l67 64h121l-122 -127h-136l-120 127h124zM541 0l-322 503v-503h-138v709h172l295 -469v469h138v-709h-145z" />
    <glyph glyph-name="ncaron" unicode="&#x148;" horiz-adv-x="584" 
d="M216 700l70 -75l70 75h105l-109 -148h-133l-110 148h107zM204 0h-133v492h129v-61q23 38 62.5 56t79.5 18q46 0 79.5 -15.5t55.5 -41.5t32.5 -62t10.5 -76v-310h-133v287q0 42 -21.5 70t-69.5 28q-44 0 -68 -29.5t-24 -72.5v-283z" />
    <glyph glyph-name="napostrophe" unicode="&#x149;" horiz-adv-x="584" 
d="M58 683q0 27 20.5 45.5t52.5 18.5q34 0 57.5 -24t23.5 -62q0 -40 -14 -64.5t-35.5 -38.5t-46 -19t-45.5 -5v47q36 0 57 13t24 33q-2 -1 -10 -4t-19 -3q-31 0 -48 18t-17 45zM204 0h-133v492h129v-61q23 38 62.5 56t79.5 18q46 0 79.5 -15.5t55.5 -41.5t32.5 -62t10.5 -76
v-310h-133v287q0 42 -21.5 70t-69.5 28q-44 0 -68 -29.5t-24 -72.5v-283z" />
    <glyph glyph-name="Eng" unicode="&#x14a;" horiz-adv-x="767" 
d="M219 503v-503h-138v709h172l295 -466v466h138v-746q0 -36 -11.5 -66.5t-32.5 -52t-51 -33.5t-66 -12q-33 0 -54 4.5t-26 6.5v113q6 -2 18.5 -3.5t26.5 -1.5q32 0 45 15t13 41v18z" />
    <glyph glyph-name="eng" unicode="&#x14b;" horiz-adv-x="584" 
d="M204 0h-133v492h129v-61q23 38 62.5 56t79.5 18q46 0 79.5 -15.5t55.5 -41.5t32.5 -62t10.5 -76v-350q0 -36 -11 -65.5t-31.5 -51t-49.5 -33.5t-65 -12q-32 0 -51.5 4t-24.5 7v110q6 -2 17 -3.5t25 -1.5q32 0 45 16t13 43v314q0 42 -21.5 70t-69.5 28q-44 0 -68 -29.5
t-24 -72.5v-283z" />
    <glyph glyph-name="Omacron" unicode="&#x14c;" horiz-adv-x="807" 
d="M239 774v100h329v-100h-329zM182 355q0 -60 19 -104.5t50.5 -73.5t71 -43.5t80.5 -14.5t81 14.5t71.5 43.5t50.5 73.5t19 104.5t-19 104.5t-50.5 73.5t-71.5 43.5t-81 14.5t-80.5 -14.5t-71 -43.5t-50.5 -73.5t-19 -104.5zM39 354q0 86 30 154.5t80 116.5t116 73.5
t138 25.5t138.5 -25.5t116.5 -73.5t80 -116.5t30 -154.5t-30 -154t-80 -116t-116.5 -73.5t-138.5 -25.5t-138 25.5t-116 73.5t-80 116t-30 154z" />
    <glyph glyph-name="omacron" unicode="&#x14d;" horiz-adv-x="584" 
d="M152 577v97h281v-97h-281zM292 106q24 0 47 9t40 26.5t27.5 43.5t10.5 61t-10.5 61t-27.5 43.5t-40 26.5t-47 9t-47 -9t-40 -26.5t-27.5 -43.5t-10.5 -61t10.5 -61t27.5 -43.5t40 -26.5t47 -9zM292 507q55 0 102.5 -19.5t82 -54t54 -82.5t19.5 -105t-19.5 -104.5
t-54 -82.5t-82 -54.5t-102.5 -19.5t-102.5 19.5t-82 54.5t-54 82.5t-19.5 104.5t19.5 105t54 82.5t82 54t102.5 19.5z" />
    <glyph glyph-name="Obreve" unicode="&#x14e;" horiz-adv-x="807" 
d="M406 753q-41 0 -71 12t-50.5 31t-30.5 43.5t-11 48.5h102q1 -20 15.5 -35.5t45.5 -15.5t45.5 15.5t15.5 35.5h102q-1 -24 -11 -48.5t-30.5 -43.5t-50.5 -31t-71 -12zM182 355q0 -60 19 -104.5t50.5 -73.5t71 -43.5t80.5 -14.5t81 14.5t71.5 43.5t50.5 73.5t19 104.5
t-19 104.5t-50.5 73.5t-71.5 43.5t-81 14.5t-80.5 -14.5t-71 -43.5t-50.5 -73.5t-19 -104.5zM39 354q0 86 30 154.5t80 116.5t116 73.5t138 25.5t138.5 -25.5t116.5 -73.5t80 -116.5t30 -154.5t-30 -154t-80 -116t-116.5 -73.5t-138.5 -25.5t-138 25.5t-116 73.5t-80 116
t-30 154z" />
    <glyph glyph-name="obreve" unicode="&#x14f;" horiz-adv-x="584" 
d="M292 106q24 0 47 9t40 26.5t27.5 43.5t10.5 61t-10.5 61t-27.5 43.5t-40 26.5t-47 9t-47 -9t-40 -26.5t-27.5 -43.5t-10.5 -61t10.5 -61t27.5 -43.5t40 -26.5t47 -9zM292 507q55 0 102.5 -19.5t82 -54t54 -82.5t19.5 -105t-19.5 -104.5t-54 -82.5t-82 -54.5t-102.5 -19.5
t-102.5 19.5t-82 54.5t-54 82.5t-19.5 104.5t19.5 105t54 82.5t82 54t102.5 19.5zM292 549q-39 0 -69 12.5t-50 33.5t-30.5 48.5t-11.5 56.5h89q1 -20 17.5 -39.5t54.5 -19.5q19 0 32 5.5t22 14t13 19t5 20.5h89q-1 -29 -11 -56.5t-30.5 -48.5t-50 -33.5t-69.5 -12.5z" />
    <glyph glyph-name="Ohungarumlaut" unicode="&#x150;" horiz-adv-x="807" 
d="M357 759h-86l53 127h127zM514 759h-88l67 127h129zM182 355q0 -60 19 -104.5t50.5 -73.5t71 -43.5t80.5 -14.5t81 14.5t71.5 43.5t50.5 73.5t19 104.5t-19 104.5t-50.5 73.5t-71.5 43.5t-81 14.5t-80.5 -14.5t-71 -43.5t-50.5 -73.5t-19 -104.5zM39 354q0 86 30 154.5
t80 116.5t116 73.5t138 25.5t138.5 -25.5t116.5 -73.5t80 -116.5t30 -154.5t-30 -154t-80 -116t-116.5 -73.5t-138.5 -25.5t-138 25.5t-116 73.5t-80 116t-30 154z" />
    <glyph glyph-name="ohungarumlaut" unicode="&#x151;" horiz-adv-x="584" 
d="M292 106q24 0 47 9t40 26.5t27.5 43.5t10.5 61t-10.5 61t-27.5 43.5t-40 26.5t-47 9t-47 -9t-40 -26.5t-27.5 -43.5t-10.5 -61t10.5 -61t27.5 -43.5t40 -26.5t47 -9zM292 507q55 0 102.5 -19.5t82 -54t54 -82.5t19.5 -105t-19.5 -104.5t-54 -82.5t-82 -54.5t-102.5 -19.5
t-102.5 19.5t-82 54.5t-54 82.5t-19.5 104.5t19.5 105t54 82.5t82 54t102.5 19.5zM252 551h-84l52 150h129zM404 551h-85l66 150h131z" />
    <glyph glyph-name="OE" unicode="&#x152;" horiz-adv-x="1126" 
d="M182 355q0 -60 19 -104.5t50.5 -73.5t71 -43.5t80.5 -14.5t81 14.5t71.5 43.5t50.5 73.5t19 104.5t-19 104.5t-50.5 73.5t-71.5 43.5t-81 14.5t-80.5 -14.5t-71 -43.5t-50.5 -73.5t-19 -104.5zM625 0v71q-41 -42 -96.5 -64t-125.5 -22q-72 0 -138 25.5t-116 73.5t-80 116
t-30 154t30 154.5t80 116.5t116 73.5t138 25.5q70 0 125.5 -22.5t96.5 -64.5v72h444v-130h-306v-162h277v-123h-277v-164h306v-130h-444z" />
    <glyph glyph-name="oe" unicode="&#x153;" horiz-adv-x="937" 
d="M772 302q-1 18 -7.5 35.5t-20 31t-34 22t-48.5 8.5q-26 0 -46 -9t-34 -23t-21.5 -31t-8.5 -34h220zM292 106q24 0 47 9t40 26.5t27.5 43.5t10.5 61t-10.5 61t-27.5 43.5t-40 26.5t-47 9t-47 -9t-40 -26.5t-27.5 -43.5t-10.5 -61t10.5 -61t27.5 -43.5t40 -26.5t47 -9z
M292 507q58 0 106.5 -21t83.5 -59q35 38 81 59t97 21q115 0 179 -68t64 -187q0 -14 -1 -26.5t-1 -14.5h-352q1 -24 11.5 -44.5t27 -35.5t38.5 -23.5t47 -8.5q47 0 73.5 21t38.5 54l111 -33q-9 -32 -28.5 -60.5t-47.5 -49.5t-65.5 -33.5t-82.5 -12.5q-55 0 -104.5 20.5
t-84.5 60.5q-35 -38 -84 -59.5t-107 -21.5q-55 0 -102.5 19.5t-82 54.5t-54 82.5t-19.5 104.5t19.5 105t54 82.5t82 54t102.5 19.5z" />
    <glyph glyph-name="Racute" unicode="&#x154;" horiz-adv-x="625" 
d="M344 759h-122l103 127h164zM292 273h-72v-273h-139v709h277q52 0 93.5 -17t71 -46t45.5 -69t16 -86q0 -75 -40.5 -128t-110.5 -73l152 -290h-154zM332 392q53 0 82 27t29 71q0 45 -29 72t-82 27h-112v-197h112z" />
    <glyph glyph-name="racute" unicode="&#x155;" horiz-adv-x="391" 
d="M220 551h-107l91 150h152zM371 360q-20 4 -40 4q-26 0 -49 -7t-40 -23t-27.5 -42.5t-10.5 -66.5v-225h-133v492h129v-73q11 24 28.5 39.5t37 23.5t39 11t35.5 3q8 0 15.5 -0.5t15.5 -1.5v-134z" />
    <glyph glyph-name="Rcommaaccent" unicode="&#x156;" horiz-adv-x="625" 
d="M292 273h-72v-273h-139v709h277q52 0 93.5 -17t71 -46t45.5 -69t16 -86q0 -75 -40.5 -128t-110.5 -73l152 -290h-154zM332 392q53 0 82 27t29 71q0 45 -29 72t-82 27h-112v-197h112zM257 -99q0 27 20.5 45.5t52.5 18.5q34 0 57.5 -24t23.5 -63t-13.5 -63.5t-34.5 -38.5
t-46 -19.5t-47 -5.5v48q36 0 57 13.5t24 33.5q-3 -2 -10.5 -4.5t-18.5 -2.5q-31 0 -48 17.5t-17 44.5z" />
    <glyph glyph-name="rcommaaccent" unicode="&#x157;" horiz-adv-x="391" 
d="M371 360q-20 4 -40 4q-26 0 -49 -7t-40 -23t-27.5 -42.5t-10.5 -66.5v-225h-133v492h129v-73q11 24 28.5 39.5t37 23.5t39 11t35.5 3q8 0 15.5 -0.5t15.5 -1.5v-134zM62 -102q0 27 20.5 45.5t52.5 18.5q34 0 57.5 -24t23.5 -63t-13.5 -63.5t-34.5 -38.5t-46 -19.5
t-47 -5.5v48q36 0 57 13.5t24 33.5q-3 -2 -10.5 -4.5t-18.5 -2.5q-31 0 -48 17.5t-17 44.5z" />
    <glyph glyph-name="Rcaron" unicode="&#x158;" horiz-adv-x="625" 
d="M247 886l66 -64l67 64h121l-122 -127h-136l-120 127h124zM292 273h-72v-273h-139v709h277q52 0 93.5 -17t71 -46t45.5 -69t16 -86q0 -75 -40.5 -128t-110.5 -73l152 -290h-154zM332 392q53 0 82 27t29 71q0 45 -29 72t-82 27h-112v-197h112z" />
    <glyph glyph-name="rcaron" unicode="&#x159;" horiz-adv-x="391" 
d="M143 700l70 -75l70 75h105l-109 -148h-133l-110 148h107zM371 360q-20 4 -40 4q-26 0 -49 -7t-40 -23t-27.5 -42.5t-10.5 -66.5v-225h-133v492h129v-73q11 24 28.5 39.5t37 23.5t39 11t35.5 3q8 0 15.5 -0.5t15.5 -1.5v-134z" />
    <glyph glyph-name="Sacute" unicode="&#x15a;" horiz-adv-x="604" 
d="M361 759h-122l103 127h164zM434 502q-3 15 -10.5 32.5t-22.5 32.5t-38.5 25t-57.5 10q-25 0 -45.5 -7.5t-35 -20t-22.5 -28.5t-8 -34q0 -29 19 -50.5t58 -29.5l99 -19q48 -9 85 -29t62 -47.5t38 -61.5t13 -71q0 -41 -17 -80.5t-49.5 -70t-80 -49.5t-109.5 -19
q-71 0 -122 20.5t-85.5 52.5t-52.5 71.5t-22 77.5l128 34q2 -26 12.5 -50t29.5 -42.5t47 -29.5t66 -11q56 0 85.5 24.5t29.5 62.5q0 31 -22 53.5t-64 30.5l-99 20q-85 17 -135.5 69.5t-50.5 133.5q0 47 19.5 87.5t53.5 70.5t79 47t95 17q64 0 109.5 -17.5t75.5 -44.5
t46.5 -59.5t22.5 -62.5z" />
    <glyph glyph-name="sacute" unicode="&#x15b;" horiz-adv-x="461" 
d="M279 551h-107l91 150h152zM143 162q2 -29 24 -52t66 -23q33 0 49 14.5t16 34.5q0 17 -12 29.5t-41 18.5l-65 15q-72 16 -105 55.5t-33 91.5q0 33 14 62.5t38.5 51t58 34.5t73.5 13q52 0 88 -14.5t58.5 -36.5t33.5 -46.5t13 -44.5l-111 -25q-2 11 -6.5 22.5t-14.5 21.5
t-24.5 16t-35.5 6q-26 0 -44.5 -14t-18.5 -35q0 -18 12.5 -29t32.5 -15l70 -15q73 -15 109.5 -56t36.5 -95q0 -30 -11.5 -59t-35.5 -52t-60 -37t-84 -14q-56 0 -94 16t-62 39t-35.5 49.5t-13.5 47.5z" />
    <glyph glyph-name="Scircumflex" unicode="&#x15c;" horiz-adv-x="604" 
d="M130 759l120 127h136l122 -127h-125l-67 65l-65 -65h-121zM434 502q-3 15 -10.5 32.5t-22.5 32.5t-38.5 25t-57.5 10q-25 0 -45.5 -7.5t-35 -20t-22.5 -28.5t-8 -34q0 -29 19 -50.5t58 -29.5l99 -19q48 -9 85 -29t62 -47.5t38 -61.5t13 -71q0 -41 -17 -80.5t-49.5 -70
t-80 -49.5t-109.5 -19q-71 0 -122 20.5t-85.5 52.5t-52.5 71.5t-22 77.5l128 34q2 -26 12.5 -50t29.5 -42.5t47 -29.5t66 -11q56 0 85.5 24.5t29.5 62.5q0 31 -22 53.5t-64 30.5l-99 20q-85 17 -135.5 69.5t-50.5 133.5q0 47 19.5 87.5t53.5 70.5t79 47t95 17
q64 0 109.5 -17.5t75.5 -44.5t46.5 -59.5t22.5 -62.5z" />
    <glyph glyph-name="scircumflex" unicode="&#x15d;" horiz-adv-x="461" 
d="M63 552l110 147h132l110 -147h-107l-71 75l-70 -75h-104zM143 162q2 -29 24 -52t66 -23q33 0 49 14.5t16 34.5q0 17 -12 29.5t-41 18.5l-65 15q-72 16 -105 55.5t-33 91.5q0 33 14 62.5t38.5 51t58 34.5t73.5 13q52 0 88 -14.5t58.5 -36.5t33.5 -46.5t13 -44.5l-111 -25
q-2 11 -6.5 22.5t-14.5 21.5t-24.5 16t-35.5 6q-26 0 -44.5 -14t-18.5 -35q0 -18 12.5 -29t32.5 -15l70 -15q73 -15 109.5 -56t36.5 -95q0 -30 -11.5 -59t-35.5 -52t-60 -37t-84 -14q-56 0 -94 16t-62 39t-35.5 49.5t-13.5 47.5z" />
    <glyph glyph-name="Scedilla" unicode="&#x15e;" horiz-adv-x="604" 
d="M242 -63l31 50q-60 6 -104.5 27.5t-74 52.5t-45 68t-19.5 72l128 34q2 -26 12.5 -50t29.5 -42.5t47 -29.5t66 -11q56 0 85.5 24.5t29.5 62.5q0 31 -22 53.5t-64 30.5l-99 20q-85 17 -135.5 69.5t-50.5 133.5q0 47 19.5 87.5t53.5 70.5t79 47t95 17q64 0 109.5 -17.5
t75.5 -44.5t46.5 -59.5t22.5 -62.5l-124 -38q-3 15 -10.5 32.5t-22.5 32.5t-38.5 25t-57.5 10q-25 0 -45.5 -7.5t-35 -20t-22.5 -28.5t-8 -34q0 -29 19 -50.5t58 -29.5l99 -19q48 -9 85 -29t62 -47.5t38 -61.5t13 -71t-14 -73t-40.5 -65.5t-66 -50t-90.5 -27.5l-23 -36
q43 -1 70 -24.5t27 -61.5q0 -17 -7 -34t-22 -30.5t-39.5 -22t-59.5 -8.5q-42 0 -73.5 17t-45.5 35l43 54q11 -11 30 -24t45 -13q18 0 29.5 7t11.5 21q0 11 -10 19.5t-28 8.5q-6 0 -14 -1t-13 -3z" />
    <glyph glyph-name="scedilla" unicode="&#x15f;" horiz-adv-x="461" 
d="M161 -63l32 51q-44 6 -74.5 22.5t-49.5 38.5t-28.5 45.5t-11.5 42.5l114 25q2 -29 24 -52t66 -23q33 0 49 14.5t16 34.5q0 17 -12 29.5t-41 18.5l-65 15q-72 16 -105 55.5t-33 91.5q0 33 14 62.5t38.5 51t58 34.5t73.5 13q52 0 88 -14.5t58.5 -36.5t33.5 -46.5t13 -44.5
l-111 -25q-2 11 -6.5 22.5t-14.5 21.5t-24.5 16t-35.5 6q-26 0 -44.5 -14t-18.5 -35q0 -18 12.5 -29t32.5 -15l70 -15q73 -15 109.5 -56t36.5 -95q0 -27 -9 -52.5t-28 -47.5t-47 -37.5t-65 -21.5l-23 -36q43 -1 70 -24.5t27 -61.5q0 -17 -7 -34t-22 -30.5t-39.5 -22
t-59.5 -8.5q-42 0 -73.5 17t-45.5 35l43 54q11 -11 30 -24t45 -13q18 0 29.5 7t11.5 21q0 11 -10 19.5t-28 8.5q-6 0 -14 -1t-13 -3z" />
    <glyph glyph-name="Scaron" unicode="&#x160;" horiz-adv-x="604" 
d="M245 886l66 -64l67 64h121l-122 -127h-136l-120 127h124zM434 502q-3 15 -10.5 32.5t-22.5 32.5t-38.5 25t-57.5 10q-25 0 -45.5 -7.5t-35 -20t-22.5 -28.5t-8 -34q0 -29 19 -50.5t58 -29.5l99 -19q48 -9 85 -29t62 -47.5t38 -61.5t13 -71q0 -41 -17 -80.5t-49.5 -70
t-80 -49.5t-109.5 -19q-71 0 -122 20.5t-85.5 52.5t-52.5 71.5t-22 77.5l128 34q2 -26 12.5 -50t29.5 -42.5t47 -29.5t66 -11q56 0 85.5 24.5t29.5 62.5q0 31 -22 53.5t-64 30.5l-99 20q-85 17 -135.5 69.5t-50.5 133.5q0 47 19.5 87.5t53.5 70.5t79 47t95 17
q64 0 109.5 -17.5t75.5 -44.5t46.5 -59.5t22.5 -62.5z" />
    <glyph glyph-name="scaron" unicode="&#x161;" horiz-adv-x="461" 
d="M162 700l70 -75l70 75h105l-109 -148h-133l-110 148h107zM143 162q2 -29 24 -52t66 -23q33 0 49 14.5t16 34.5q0 17 -12 29.5t-41 18.5l-65 15q-72 16 -105 55.5t-33 91.5q0 33 14 62.5t38.5 51t58 34.5t73.5 13q52 0 88 -14.5t58.5 -36.5t33.5 -46.5t13 -44.5l-111 -25
q-2 11 -6.5 22.5t-14.5 21.5t-24.5 16t-35.5 6q-26 0 -44.5 -14t-18.5 -35q0 -18 12.5 -29t32.5 -15l70 -15q73 -15 109.5 -56t36.5 -95q0 -30 -11.5 -59t-35.5 -52t-60 -37t-84 -14q-56 0 -94 16t-62 39t-35.5 49.5t-13.5 47.5z" />
    <glyph glyph-name="Tcommaaccent" unicode="&#x162;" horiz-adv-x="619" 
d="M233 -63l40 63h-33v578h-224v131h587v-131h-224v-578h-24l-30 -48q43 -1 70 -24.5t27 -61.5q0 -17 -7 -34t-22 -30.5t-39.5 -22t-59.5 -8.5q-42 0 -73.5 17t-45.5 35l43 54q11 -11 30 -24t45 -13q18 0 29.5 7t11.5 21q0 11 -10 19.5t-28 8.5q-6 0 -13.5 -1t-13.5 -3z" />
    <glyph glyph-name="tcommaaccent" unicode="&#x163;" horiz-adv-x="373" 
d="M143 -63l44 69q-40 17 -62 52.5t-22 86.5v229h-89v118h25q39 0 57.5 22.5t18.5 55.5v69h120v-147h99v-118h-99v-206q0 -32 14.5 -44.5t43.5 -12.5q12 0 24 1t17 3v-110q-9 -4 -26.5 -8t-46.5 -4l-26 -41q43 -1 70 -24.5t27 -61.5q0 -17 -7 -34t-22 -30.5t-39.5 -22
t-59.5 -8.5q-42 0 -73.5 17t-45.5 35l43 54q11 -11 30 -24t45 -13q18 0 29.5 7t11.5 21q0 11 -10 19.5t-28 8.5q-6 0 -13.5 -1t-13.5 -3z" />
    <glyph glyph-name="Tcaron" unicode="&#x164;" horiz-adv-x="619" 
d="M244 886l66 -64l67 64h121l-122 -127h-136l-120 127h124zM379 578v-578h-139v578h-224v131h587v-131h-224z" />
    <glyph glyph-name="tcaron" unicode="&#x165;" horiz-adv-x="431" 
d="M376 556h-89l29 198h132zM235 492h99v-118h-99v-206q0 -32 14.5 -44.5t43.5 -12.5q12 0 24 1t17 3v-110q-9 -4 -27.5 -8t-47.5 -4q-72 0 -114 40t-42 112v229h-89v118h25q39 0 57.5 22.5t18.5 55.5v69h120v-147z" />
    <glyph glyph-name="Tbar" unicode="&#x166;" horiz-adv-x="619" 
d="M379 578v-206h122v-103h-122v-269h-139v269h-118v103h118v206h-224v131h587v-131h-224z" />
    <glyph glyph-name="tbar" unicode="&#x167;" horiz-adv-x="383" 
d="M239 492h99v-118h-99v-81h98v-96h-98v-29q0 -32 14.5 -44.5t43.5 -12.5q12 0 24 1t17 3v-110q-8 -3 -25.5 -7.5t-49.5 -4.5q-72 0 -114 40t-42 112v52h-90v96h90v81h-89v118h25q39 0 57.5 22.5t18.5 55.5v69h120v-147z" />
    <glyph glyph-name="Utilde" unicode="&#x168;" horiz-adv-x="693" 
d="M346 -16q-57 0 -106.5 17t-86 51t-58 84t-21.5 115v458h138v-448q0 -70 36 -106t98 -36q63 0 99 36t36 106v448h138v-458q0 -65 -21.5 -115t-58 -84t-86.5 -51t-107 -17zM515 862q0 -55 -29.5 -82.5t-71.5 -27.5q-23 0 -41.5 7t-33.5 17l-6 4l-25.5 14t-22.5 6
q-29 0 -29 -43h-80v27q0 55 30 82t71 27q23 0 41.5 -7t34.5 -16l6 -4l25 -13t22 -6q12 0 20.5 7t8.5 24v12h80v-28z" />
    <glyph glyph-name="utilde" unicode="&#x169;" horiz-adv-x="586" 
d="M393 0q-2 8 -3 23t-1 30q-20 -35 -58.5 -50.5t-77.5 -15.5q-45 0 -79.5 15.5t-58.5 41.5t-36.5 61.5t-12.5 75.5v311h133v-284q0 -42 21.5 -70.5t68.5 -28.5q45 0 69 27t24 70v286h133v-403q0 -29 1.5 -52.5t3.5 -36.5h-127zM467 678q0 -63 -30 -93t-77 -30q-21 0 -39 6
t-32 16l-6 4l-19.5 12t-27.5 6q-16 0 -25 -10t-10 -33h-82v21q0 61 31.5 91t77.5 30q22 0 39 -7t33 -15l6 -4q13 -8 24.5 -13.5t23.5 -5.5q33 0 33 43h80v-18z" />
    <glyph glyph-name="Umacron" unicode="&#x16a;" horiz-adv-x="693" 
d="M346 -16q-57 0 -106.5 17t-86 51t-58 84t-21.5 115v458h138v-448q0 -70 36 -106t98 -36q63 0 99 36t36 106v448h138v-458q0 -65 -21.5 -115t-58 -84t-86.5 -51t-107 -17zM194 774v100h305v-100h-305z" />
    <glyph glyph-name="umacron" unicode="&#x16b;" horiz-adv-x="586" 
d="M393 0q-2 8 -3 23t-1 30q-20 -35 -58.5 -50.5t-77.5 -15.5q-45 0 -79.5 15.5t-58.5 41.5t-36.5 61.5t-12.5 75.5v311h133v-284q0 -42 21.5 -70.5t68.5 -28.5q45 0 69 27t24 70v286h133v-403q0 -29 1.5 -52.5t3.5 -36.5h-127zM150 577v97h281v-97h-281z" />
    <glyph glyph-name="Ubreve" unicode="&#x16c;" horiz-adv-x="693" 
d="M346 -16q-57 0 -106.5 17t-86 51t-58 84t-21.5 115v458h138v-448q0 -70 36 -106t98 -36q63 0 99 36t36 106v448h138v-458q0 -65 -21.5 -115t-58 -84t-86.5 -51t-107 -17zM347 753q-41 0 -71 12t-50.5 31t-30.5 43.5t-11 48.5h102q1 -20 15.5 -35.5t45.5 -15.5t45.5 15.5
t15.5 35.5h102q-1 -24 -11 -48.5t-30.5 -43.5t-50.5 -31t-71 -12z" />
    <glyph glyph-name="ubreve" unicode="&#x16d;" horiz-adv-x="586" 
d="M393 0q-2 8 -3 23t-1 30q-20 -35 -58.5 -50.5t-77.5 -15.5q-45 0 -79.5 15.5t-58.5 41.5t-36.5 61.5t-12.5 75.5v311h133v-284q0 -42 21.5 -70.5t68.5 -28.5q45 0 69 27t24 70v286h133v-403q0 -29 1.5 -52.5t3.5 -36.5h-127zM289 549q-39 0 -69 12.5t-50 33.5t-30.5 48.5
t-11.5 56.5h89q1 -20 17.5 -39.5t54.5 -19.5q19 0 32 5.5t22 14t13 19t5 20.5h89q-1 -29 -11 -56.5t-30.5 -48.5t-50 -33.5t-69.5 -12.5z" />
    <glyph glyph-name="Uring" unicode="&#x16e;" horiz-adv-x="693" 
d="M346 -16q-57 0 -106.5 17t-86 51t-58 84t-21.5 115v458h138v-448q0 -70 36 -106t98 -36q63 0 99 36t36 106v448h138v-458q0 -65 -21.5 -115t-58 -84t-86.5 -51t-107 -17zM478 858q0 -28 -10.5 -51t-28.5 -40t-42 -26.5t-50 -9.5t-49.5 9.5t-41.5 26.5t-29 40t-11 51
t11 51t29 40t41.5 26.5t49.5 9.5t50 -9.5t42 -26.5t28.5 -40t10.5 -51zM394 858q0 22 -13.5 34.5t-33.5 12.5t-34 -12.5t-14 -34.5t14 -35t34 -13t33.5 13t13.5 35z" />
    <glyph glyph-name="uring" unicode="&#x16f;" horiz-adv-x="586" 
d="M407 648q0 -24 -9.5 -44t-25 -35t-36.5 -23t-44 -8t-44 8t-36.5 23t-25 35t-9.5 44t9.5 44.5t25 35.5t36.5 23.5t44 8.5t44 -8.5t36.5 -23.5t25 -35.5t9.5 -44.5zM332 648q0 19 -12 30.5t-29 11.5t-28.5 -11.5t-11.5 -30.5q0 -18 11.5 -29.5t28.5 -11.5t29 11.5t12 29.5z
M393 0q-2 8 -3 23t-1 30q-20 -35 -58.5 -50.5t-77.5 -15.5q-45 0 -79.5 15.5t-58.5 41.5t-36.5 61.5t-12.5 75.5v311h133v-284q0 -42 21.5 -70.5t68.5 -28.5q45 0 69 27t24 70v286h133v-403q0 -29 1.5 -52.5t3.5 -36.5h-127z" />
    <glyph glyph-name="Uhungarumlaut" unicode="&#x170;" horiz-adv-x="693" 
d="M300 759h-86l53 127h127zM457 759h-88l67 127h129zM346 -16q-57 0 -106.5 17t-86 51t-58 84t-21.5 115v458h138v-448q0 -70 36 -106t98 -36q63 0 99 36t36 106v448h138v-458q0 -65 -21.5 -115t-58 -84t-86.5 -51t-107 -17z" />
    <glyph glyph-name="uhungarumlaut" unicode="&#x171;" horiz-adv-x="586" 
d="M393 0q-2 8 -3 23t-1 30q-20 -35 -58.5 -50.5t-77.5 -15.5q-45 0 -79.5 15.5t-58.5 41.5t-36.5 61.5t-12.5 75.5v311h133v-284q0 -42 21.5 -70.5t68.5 -28.5q45 0 69 27t24 70v286h133v-403q0 -29 1.5 -52.5t3.5 -36.5h-127zM239 551h-84l52 150h129zM391 551h-85l66 150
h131z" />
    <glyph glyph-name="Uogonek" unicode="&#x172;" horiz-adv-x="693" 
d="M397 -223q-54 0 -88.5 29t-34.5 78q0 35 14.5 59.5t35.5 41.5q-53 3 -98.5 21.5t-79.5 52t-53 82t-19 110.5v458h138v-448q0 -70 36 -106t98 -36q63 0 99 36t36 106v448h138v-458q0 -50 -12.5 -90.5t-35 -72t-54 -53.5t-68.5 -35q-14 -5 -28.5 -13.5t-25.5 -20t-18 -26
t-7 -31.5q0 -24 14 -36t35 -12q11 0 17 0.5t13 2.5v-79q-10 -4 -22.5 -6t-29.5 -2z" />
    <glyph glyph-name="uogonek" unicode="&#x173;" horiz-adv-x="586" 
d="M468 -223q-54 0 -88.5 29t-34.5 78q0 45 22 72t50 44h-24q-2 8 -3 23t-1 30q-20 -35 -58.5 -50.5t-77.5 -15.5q-45 0 -79.5 15.5t-58.5 41.5t-36.5 61.5t-12.5 75.5v311h133v-284q0 -42 21.5 -70.5t68.5 -28.5q45 0 69 27t24 70v286h133v-403q0 -29 1.5 -52.5t3.5 -36.5
q-14 -7 -28.5 -16.5t-25.5 -21.5t-18 -26t-7 -30q0 -23 14.5 -34t34.5 -11q10 0 16 0.5t14 2.5v-79q-10 -4 -22.5 -6t-29.5 -2z" />
    <glyph glyph-name="Wcircumflex" unicode="&#x174;" horiz-adv-x="1027" 
d="M325 759l120 127h136l122 -127h-125l-67 65l-65 -65h-121zM874 709h141l-196 -709h-142l-162 505l-162 -505h-144l-197 709h146l130 -488l157 488h143l158 -490z" />
    <glyph glyph-name="wcircumflex" unicode="&#x175;" horiz-adv-x="831" 
d="M242 552l110 147h132l110 -147h-107l-71 75l-70 -75h-104zM490 492l106 -317l91 317h132l-154 -492h-133l-115 336l-113 -336h-135l-157 492h140l91 -316l107 316h140z" />
    <glyph glyph-name="Ycircumflex" unicode="&#x176;" horiz-adv-x="655" 
d="M10 709h162l159 -281l159 281h155l-250 -411v-298h-138v298zM138 759l120 127h136l122 -127h-125l-67 65l-65 -65h-121z" />
    <glyph glyph-name="ycircumflex" unicode="&#x177;" horiz-adv-x="560" 
d="M100 -194l116 256l-209 430h149l131 -288l121 288h142l-309 -686h-141zM104 552l110 147h132l110 -147h-107l-71 75l-70 -75h-104z" />
    <glyph glyph-name="Ydieresis" unicode="&#x178;" horiz-adv-x="655" 
d="M139 823q0 30 20.5 51t51.5 21t52 -21t21 -51q0 -31 -21 -51.5t-52 -20.5t-51.5 20.5t-20.5 51.5zM376 823q0 30 20.5 51t51.5 21q30 0 51 -21t21 -51q0 -31 -21 -51.5t-51 -20.5q-31 0 -51.5 20.5t-20.5 51.5zM10 709h162l159 -281l159 281h155l-250 -411v-298h-138v298
z" />
    <glyph glyph-name="Zacute" unicode="&#x179;" horiz-adv-x="640" 
d="M350 759h-122l103 127h164zM39 0v134l369 444h-356v131h540v-129l-375 -448h380v-132h-558z" />
    <glyph glyph-name="zacute" unicode="&#x17a;" horiz-adv-x="481" 
d="M267 551h-107l91 150h152zM37 0v117l233 260h-227v115h397v-111l-240 -265h244v-116h-407z" />
    <glyph glyph-name="Zdotaccent" unicode="&#x17b;" horiz-adv-x="640" 
d="M39 0v134l369 444h-356v131h540v-129l-375 -448h380v-132h-558zM245 833q0 34 23.5 57t56.5 23q34 0 57.5 -23t23.5 -57q0 -33 -23.5 -56t-57.5 -23q-33 0 -56.5 23t-23.5 56z" />
    <glyph glyph-name="zdotaccent" unicode="&#x17c;" horiz-adv-x="481" 
d="M37 0v117l233 260h-227v115h397v-111l-240 -265h244v-116h-407zM162 627q0 34 23.5 56.5t56.5 22.5t56.5 -22.5t23.5 -56.5q0 -33 -23.5 -55.5t-56.5 -22.5t-56.5 22.5t-23.5 55.5z" />
    <glyph glyph-name="Zcaron" unicode="&#x17d;" horiz-adv-x="640" 
d="M261 886l66 -64l67 64h121l-122 -127h-136l-120 127h124zM39 0v134l369 444h-356v131h540v-129l-375 -448h380v-132h-558z" />
    <glyph glyph-name="zcaron" unicode="&#x17e;" horiz-adv-x="481" 
d="M175 700l70 -75l70 75h105l-109 -148h-133l-110 148h107zM37 0v117l233 260h-227v115h397v-111l-240 -265h244v-116h-407z" />
    <glyph glyph-name="uni018F" unicode="&#x18f;" horiz-adv-x="787" 
d="M389 725q75 0 140.5 -24.5t114 -72t76.5 -117.5t28 -161q0 -85 -28.5 -153t-77.5 -115t-113.5 -72.5t-137.5 -25.5q-69 0 -132.5 23.5t-113 70.5t-79 116t-29.5 161v10t1 15h568q-2 56 -21.5 96.5t-50 66.5t-69.5 38.5t-79 12.5q-45 0 -81 -13.5t-63 -35t-44.5 -47.5
t-24.5 -51l-128 46q12 43 41.5 85t73.5 74.5t101.5 52.5t127.5 20zM195 266q14 -73 67 -113.5t131 -40.5q75 0 130 39.5t69 114.5h-397z" />
    <glyph glyph-name="florin" unicode="&#x192;" horiz-adv-x="513" 
d="M190 379h-98v112h121l19 92q8 42 27 71.5t44.5 48.5t55.5 28t60 9q17 0 29 -1t22 -2.5t18.5 -4l19.5 -5.5v-115q-14 3 -29 5t-33 2q-10 0 -22.5 -2.5t-24.5 -10.5t-22 -22.5t-15 -39.5l-11 -53h117v-112h-140l-79 -392q-8 -41 -27 -71t-44.5 -49t-55.5 -28t-60 -9
q-35 0 -53.5 3.5t-38.5 10.5v114q14 -3 30 -5t35 -2q10 0 22.5 2.5t24.5 10.5t22 23t15 40z" />
    <glyph glyph-name="uni01B5" unicode="&#x1b5;" horiz-adv-x="640" 
d="M39 0v134l145 175h-119v113h213l130 156h-356v131h540v-129l-133 -158h115v-113h-209l-148 -177h380v-132h-558z" />
    <glyph glyph-name="uni01B6" unicode="&#x1b6;" horiz-adv-x="481" 
d="M37 0v99l88 102h-80v95h162l72 84h-236v112h397v-102l-81 -94h78v-95h-160l-76 -88h243v-113h-407z" />
    <glyph glyph-name="Aringacute" unicode="&#x1fa;" horiz-adv-x="722" 
d="M261 288h196l-98 268zM418 912h-122l103 127h164zM406 757q0 22 -13.5 34.5t-33.5 12.5t-34 -12.5t-14 -34.5t14 -35t34 -13t33.5 13t13.5 35zM490 757q0 -26 -9 -47.5t-25 -38.5l256 -671h-150l-59 162h-288l-59 -162h-146l256 667q-17 17 -27.5 40t-10.5 50q0 28 11 51
t29 40t41.5 26.5t49.5 9.5t50 -9.5t42 -26.5t28.5 -40t10.5 -51z" />
    <glyph glyph-name="aringacute" unicode="&#x1fb;" horiz-adv-x="539" 
d="M41 134q0 33 11.5 58.5t31.5 44.5t46.5 30t57.5 16l121 18q21 3 29 12.5t8 22.5q0 26 -20.5 45t-62.5 19q-44 0 -67.5 -24t-26.5 -56l-118 25q3 29 18 58t41 52t64 37.5t88 14.5q58 0 99 -15.5t66.5 -41t37 -59.5t11.5 -71v-242q0 -20 2 -42.5t4 -35.5h-122
q-2 10 -3.5 27.5t-1.5 31.5q-19 -29 -54.5 -51t-90.5 -22q-39 0 -70.5 12.5t-53.5 33t-33.5 47t-11.5 55.5zM238 85q21 0 40.5 5.5t34.5 19t24 35t9 54.5v22l-111 -17q-26 -4 -43.5 -18.5t-17.5 -43.5q0 -22 16 -39.5t48 -17.5zM315 785h-107l91 150h152zM381 644
q0 -24 -9.5 -44t-25 -35t-36.5 -23t-44 -8t-44 8t-36.5 23t-25 35t-9.5 44t9.5 44.5t25 35.5t36.5 23.5t44 8.5t44 -8.5t36.5 -23.5t25 -35.5t9.5 -44.5zM306 644q0 19 -12 30.5t-29 11.5t-28.5 -11.5t-11.5 -30.5q0 -18 11.5 -29.5t28.5 -11.5t29 11.5t12 29.5z" />
    <glyph glyph-name="AEacute" unicode="&#x1fc;" horiz-adv-x="1060" 
d="M625 759h-122l103 127h164zM558 0v167h-274l-107 -167h-169l470 709h524v-130h-305v-162h276v-123h-276v-164h306v-130h-445zM558 283v312l-200 -312h200z" />
    <glyph glyph-name="aeacute" unicode="&#x1fd;" horiz-adv-x="871" 
d="M478 551h-107l91 150h152zM827 141q-9 -32 -29 -60.5t-49 -49.5t-66 -33.5t-82 -12.5q-57 0 -106.5 22.5t-84.5 65.5q-36 -48 -84 -68t-103 -20q-44 0 -78 12.5t-57 33t-35 47.5t-12 56q0 33 11.5 58.5t31.5 44.5t46.5 30t57.5 16l126 18q22 3 29.5 13t7.5 22
q0 26 -21 45.5t-65 19.5q-45 0 -70 -24t-28 -56l-116 24q3 30 18.5 59t43 52t66.5 37t87 14q61 0 102 -17.5t65 -46.5q33 31 74.5 47.5t87.5 16.5q113 0 176 -68t63 -187q0 -14 -1 -26.5t-2 -14.5h-353q1 -26 11.5 -46.5t27 -35.5t38.5 -23t47 -8q48 0 75 22t38 56zM242 85
q19 0 38.5 5.5t35.5 18.5t25.5 35t9.5 54v23l-116 -17q-26 -4 -44.5 -18.5t-18.5 -43.5q0 -21 17.5 -39t52.5 -18zM703 302q-1 18 -7.5 35.5t-20 31t-34.5 22t-50 8.5q-26 0 -46 -9t-34 -23t-21.5 -31t-8.5 -34h222z" />
    <glyph glyph-name="Oslashacute" unicode="&#x1fe;" horiz-adv-x="807" 
d="M459 759h-122l103 127h164zM39 354q0 86 30 154.5t80 116.5t116 73.5t138 25.5q98 0 181 -46l70 90l88 -66l-70 -91q45 -48 70.5 -112.5t25.5 -144.5q0 -86 -30 -154t-80 -116t-116.5 -73.5t-138.5 -25.5q-49 0 -94.5 11.5t-86.5 33.5l-68 -88l-90 65l71 91
q-45 48 -70.5 112t-25.5 144zM182 355q0 -45 10.5 -81t29.5 -63l278 359q-45 21 -97 21q-41 0 -80.5 -14.5t-71 -43.5t-50.5 -73.5t-19 -104.5zM625 355q0 45 -10.5 81t-29.5 63l-278 -359q45 -21 96 -21q41 0 81 14.5t71.5 43.5t50.5 73.5t19 104.5z" />
    <glyph glyph-name="oslashacute" unicode="&#x1ff;" horiz-adv-x="584" 
d="M338 551h-107l91 150h152zM292 507q73 0 132 -34l53 65l64 -54l-52 -65q29 -34 45 -78t16 -95q0 -57 -19.5 -104.5t-54 -82.5t-82 -54.5t-102.5 -19.5q-35 0 -67.5 8.5t-60.5 22.5l-50 -62l-66 54l50 61q-30 35 -47 79.5t-17 97.5q0 57 19.5 105t54 82.5t82 54
t102.5 19.5zM167 246q0 -42 15 -72l163 201q-27 11 -53 11q-24 0 -47 -9t-40 -26.5t-27.5 -43.5t-10.5 -61zM292 106q24 0 47 9t40 26.5t27.5 43.5t10.5 61q0 37 -13 68l-160 -199q22 -9 48 -9z" />
    <glyph glyph-name="Scommaaccent" unicode="&#x218;" horiz-adv-x="604" 
d="M434 502q-3 15 -10.5 32.5t-22.5 32.5t-38.5 25t-57.5 10q-25 0 -45.5 -7.5t-35 -20t-22.5 -28.5t-8 -34q0 -29 19 -50.5t58 -29.5l99 -19q48 -9 85 -29t62 -47.5t38 -61.5t13 -71q0 -41 -17 -80.5t-49.5 -70t-80 -49.5t-109.5 -19q-71 0 -122 20.5t-85.5 52.5
t-52.5 71.5t-22 77.5l128 34q2 -26 12.5 -50t29.5 -42.5t47 -29.5t66 -11q56 0 85.5 24.5t29.5 62.5q0 31 -22 53.5t-64 30.5l-99 20q-85 17 -135.5 69.5t-50.5 133.5q0 47 19.5 87.5t53.5 70.5t79 47t95 17q64 0 109.5 -17.5t75.5 -44.5t46.5 -59.5t22.5 -62.5zM239 -102
q0 27 20.5 45.5t52.5 18.5q34 0 57.5 -24t23.5 -63t-13.5 -63.5t-34.5 -38.5t-46 -19.5t-47 -5.5v48q36 0 57 13.5t24 33.5q-3 -2 -10.5 -4.5t-18.5 -2.5q-31 0 -48 17.5t-17 44.5z" />
    <glyph glyph-name="scommaaccent" unicode="&#x219;" horiz-adv-x="461" 
d="M143 162q2 -29 24 -52t66 -23q33 0 49 14.5t16 34.5q0 17 -12 29.5t-41 18.5l-65 15q-72 16 -105 55.5t-33 91.5q0 33 14 62.5t38.5 51t58 34.5t73.5 13q52 0 88 -14.5t58.5 -36.5t33.5 -46.5t13 -44.5l-111 -25q-2 11 -6.5 22.5t-14.5 21.5t-24.5 16t-35.5 6
q-26 0 -44.5 -14t-18.5 -35q0 -18 12.5 -29t32.5 -15l70 -15q73 -15 109.5 -56t36.5 -95q0 -30 -11.5 -59t-35.5 -52t-60 -37t-84 -14q-56 0 -94 16t-62 39t-35.5 49.5t-13.5 47.5zM157 -104q0 27 20.5 45.5t52.5 18.5q34 0 57.5 -24t23.5 -63t-13.5 -63.5t-34.5 -38.5
t-46 -19.5t-47 -5.5v48q36 0 57 13.5t24 33.5q-3 -2 -10.5 -4.5t-18.5 -2.5q-31 0 -48 17.5t-17 44.5z" />
    <glyph glyph-name="uni021A" unicode="&#x21a;" horiz-adv-x="619" 
d="M379 578v-578h-139v578h-224v131h587v-131h-224zM233 -102q0 27 20.5 45.5t52.5 18.5q34 0 57.5 -24t23.5 -63t-13.5 -63.5t-34.5 -38.5t-46 -19.5t-47 -5.5v48q36 0 57 13.5t24 33.5q-3 -2 -10.5 -4.5t-18.5 -2.5q-31 0 -48 17.5t-17 44.5z" />
    <glyph glyph-name="uni021B" unicode="&#x21b;" horiz-adv-x="373" 
d="M235 492h99v-118h-99v-206q0 -32 14.5 -44.5t43.5 -12.5q12 0 24 1t17 3v-110q-9 -4 -27.5 -8t-47.5 -4q-72 0 -114 40t-42 112v229h-89v118h25q39 0 57.5 22.5t18.5 55.5v69h120v-147zM145 -102q0 27 20.5 45.5t52.5 18.5q34 0 57.5 -24t23.5 -63t-13.5 -63.5
t-34.5 -38.5t-46 -19.5t-47 -5.5v48q36 0 57 13.5t24 33.5q-3 -2 -10.5 -4.5t-18.5 -2.5q-31 0 -48 17.5t-17 44.5z" />
    <glyph glyph-name="uni0237" unicode="&#x237;" horiz-adv-x="275" 
d="M71 492h133v-535q0 -36 -10.5 -65.5t-30.5 -51t-48.5 -33.5t-64.5 -12q-32 0 -51 4.5t-24 6.5v111q6 -2 16 -3.5t25 -1.5q30 0 42.5 15.5t12.5 42.5v522z" />
    <glyph glyph-name="uni0259" unicode="&#x259;" horiz-adv-x="557" 
d="M165 189q1 -19 8 -36.5t21.5 -31t35.5 -22t50 -8.5q26 0 46.5 8.5t34.5 22.5t21.5 31.5t9.5 35.5h-227zM41 354q10 30 31 57.5t50.5 48.5t68 34t84.5 13q56 0 101.5 -18.5t78 -53t50.5 -83t18 -108.5q0 -59 -19.5 -107t-52.5 -82t-77 -52.5t-93 -18.5q-56 0 -101.5 18
t-77.5 51t-50 80t-18 105q0 11 1 24t2 15h358q-3 53 -35.5 85.5t-86.5 32.5q-47 0 -78.5 -23t-44.5 -57z" />
    <glyph glyph-name="circumflex" unicode="&#x2c6;" horiz-adv-x="404" 
d="M26 552l110 147h132l110 -147h-107l-71 75l-70 -75h-104z" />
    <glyph glyph-name="caron" unicode="&#x2c7;" horiz-adv-x="404" 
d="M133 700l70 -75l70 75h105l-109 -148h-133l-110 148h107z" />
    <glyph glyph-name="uni02C9" unicode="&#x2c9;" horiz-adv-x="335" 
d="M27 577v97h281v-97h-281z" />
    <glyph glyph-name="breve" unicode="&#x2d8;" horiz-adv-x="374" 
d="M187 549q-39 0 -69 12.5t-50 33.5t-30.5 48.5t-11.5 56.5h89q1 -20 17.5 -39.5t54.5 -19.5q19 0 32 5.5t22 14t13 19t5 20.5h89q-1 -29 -11 -56.5t-30.5 -48.5t-50 -33.5t-69.5 -12.5z" />
    <glyph glyph-name="dotaccent" unicode="&#x2d9;" horiz-adv-x="192" 
d="M16 627q0 34 23.5 56.5t56.5 22.5t56.5 -22.5t23.5 -56.5q0 -33 -23.5 -55.5t-56.5 -22.5t-56.5 22.5t-23.5 55.5z" />
    <glyph glyph-name="ring" unicode="&#x2da;" horiz-adv-x="282" 
d="M256 648q0 -24 -9.5 -44t-25 -35t-36.5 -23t-44 -8t-44 8t-36.5 23t-25 35t-9.5 44t9.5 44.5t25 35.5t36.5 23.5t44 8.5t44 -8.5t36.5 -23.5t25 -35.5t9.5 -44.5zM181 648q0 19 -12 30.5t-29 11.5t-28.5 -11.5t-11.5 -30.5q0 -18 11.5 -29.5t28.5 -11.5t29 11.5t12 29.5z
" />
    <glyph glyph-name="ogonek" unicode="&#x2db;" horiz-adv-x="224" 
d="M146 -223q-54 0 -88.5 29t-34.5 78q0 28 10 49.5t25 37t33 26.5t35 19l72 -16q-14 -7 -28.5 -16.5t-25.5 -21.5t-18 -26t-7 -30q0 -23 14 -34t37 -11q16 0 28 3v-79q-10 -4 -22.5 -6t-29.5 -2z" />
    <glyph glyph-name="tilde" unicode="&#x2dc;" horiz-adv-x="391" 
d="M369 678q0 -63 -30 -93t-77 -30q-21 0 -39 6t-32 16l-6 4l-19.5 12t-27.5 6q-16 0 -25 -10t-10 -33h-82v21q0 61 31.5 91t77.5 30q22 0 39 -7t33 -15l6 -4q13 -8 24.5 -13.5t23.5 -5.5q33 0 33 43h80v-18z" />
    <glyph glyph-name="hungarumlaut" unicode="&#x2dd;" horiz-adv-x="396" 
d="M108 551h-84l52 150h129zM260 551h-85l66 150h131z" />
    <glyph glyph-name="uni0394" unicode="&#x394;" horiz-adv-x="691" 
d="M270 709h150l271 -709h-691zM191 128h309l-155 431z" />
    <glyph glyph-name="uni03A9" unicode="&#x3a9;" horiz-adv-x="782" 
d="M391 595q-39 0 -75.5 -13t-65 -38.5t-45.5 -63t-17 -86.5q0 -42 14 -77t37 -61t53 -42.5t62 -23.5v-190h-302v126h179q-37 15 -70.5 40.5t-59 60.5t-41 79.5t-15.5 96.5q0 74 28.5 133.5t76 101.5t110 64.5t131.5 22.5t131.5 -22.5t110 -64.5t76 -101.5t28.5 -133.5
q0 -52 -15.5 -96.5t-41.5 -79.5t-59.5 -60.5t-70.5 -40.5h179v-126h-302v190q32 7 62 23.5t53.5 42.5t37.5 61t14 77q0 49 -17 86.5t-45.5 63t-65 38.5t-75.5 13z" />
    <glyph glyph-name="uni03BC" unicode="&#x3bc;" horiz-adv-x="594" 
d="M399 0q-2 8 -3 23t-1 30q-20 -35 -58.5 -50.5t-77.5 -15.5q-32 0 -54 7v-184h-133v682h133v-284q0 -42 21.5 -70.5t68.5 -28.5q45 0 69 27t24 70v286h133v-403q0 -30 1.5 -54.5t3.5 -34.5h-127z" />
    <glyph glyph-name="pi" unicode="&#x3c0;" horiz-adv-x="638" 
d="M597 5q-3 -2 -21 -7.5t-49 -5.5q-72 0 -107 40t-35 103v243h-133v-378h-133v378h-83v114h559v-114h-78v-225q0 -27 15 -37t34 -10q12 0 17.5 1t13.5 2v-104z" />
    <glyph glyph-name="Wgrave" unicode="&#x1e80;" horiz-adv-x="1027" 
d="M317 886h163l104 -127h-122zM874 709h141l-196 -709h-142l-162 505l-162 -505h-144l-197 709h146l130 -488l157 488h143l158 -490z" />
    <glyph glyph-name="wgrave" unicode="&#x1e81;" horiz-adv-x="831" 
d="M490 492l106 -317l91 317h132l-154 -492h-133l-115 336l-113 -336h-135l-157 492h140l91 -316l107 316h140zM230 701h154l90 -150h-108z" />
    <glyph glyph-name="Wacute" unicode="&#x1e82;" horiz-adv-x="1027" 
d="M574 759h-122l103 127h164zM874 709h141l-196 -709h-142l-162 505l-162 -505h-144l-197 709h146l130 -488l157 488h143l158 -490z" />
    <glyph glyph-name="wacute" unicode="&#x1e83;" horiz-adv-x="831" 
d="M467 551h-107l91 150h152zM490 492l106 -317l91 317h132l-154 -492h-133l-115 336l-113 -336h-135l-157 492h140l91 -316l107 316h140z" />
    <glyph glyph-name="Wdieresis" unicode="&#x1e84;" horiz-adv-x="1027" 
d="M302 823q0 30 20.5 51t51.5 21t52 -21t21 -51q0 -31 -21 -51.5t-52 -20.5t-51.5 20.5t-20.5 51.5zM585 823q0 30 20.5 51t50.5 21q31 0 52 -21t21 -51q0 -31 -21 -51.5t-52 -20.5q-30 0 -50.5 20.5t-20.5 51.5zM874 709h141l-196 -709h-142l-162 505l-162 -505h-144
l-197 709h146l130 -488l157 488h143l158 -490z" />
    <glyph glyph-name="wdieresis" unicode="&#x1e85;" horiz-adv-x="831" 
d="M234 628q0 29 20 50t50 21q29 0 50 -21t21 -50t-21 -49.5t-50 -20.5q-30 0 -50 20.5t-20 49.5zM460 628q0 29 20 50t50 21q29 0 49.5 -21t20.5 -50t-20.5 -49.5t-49.5 -20.5q-30 0 -50 20.5t-20 49.5zM490 492l106 -317l91 317h132l-154 -492h-133l-115 336l-113 -336
h-135l-157 492h140l91 -316l107 316h140z" />
    <glyph glyph-name="uni1E8A" unicode="&#x1e8a;" horiz-adv-x="669" 
d="M419 354l233 -354h-167l-153 245l-154 -245h-162l233 355l-232 354h166l152 -245l155 245h161zM254 833q0 34 23.5 57t56.5 23q34 0 57.5 -23t23.5 -57q0 -33 -23.5 -56t-57.5 -23q-33 0 -56.5 23t-23.5 56z" />
    <glyph glyph-name="uni1E8B" unicode="&#x1e8b;" horiz-adv-x="532" 
d="M187 247l-175 245h158q6 -10 20 -30.5l29 -42.5l29 -42.5t20 -30.5l97 146h151l-172 -241l178 -251h-156l-103 151l-21 -31l-30 -44.5l-30 -44.5t-20 -31h-150zM186 627q0 34 23.5 56.5t56.5 22.5t56.5 -22.5t23.5 -56.5q0 -33 -23.5 -55.5t-56.5 -22.5t-56.5 22.5
t-23.5 55.5z" />
    <glyph glyph-name="Ygrave" unicode="&#x1ef2;" horiz-adv-x="655" 
d="M10 709h162l159 -281l159 281h155l-250 -411v-298h-138v298zM139 886h163l104 -127h-122z" />
    <glyph glyph-name="ygrave" unicode="&#x1ef3;" horiz-adv-x="560" 
d="M100 -194l116 256l-209 430h149l131 -288l121 288h142l-309 -686h-141zM104 701h154l90 -150h-108z" />
    <glyph glyph-name="uni2007" unicode="&#x2007;" horiz-adv-x="624" 
 />
    <glyph glyph-name="uni2008" unicode="&#x2008;" horiz-adv-x="311" 
 />
    <glyph glyph-name="uni200B" unicode="&#x200b;" horiz-adv-x="0" 
 />
    <glyph glyph-name="endash" unicode="&#x2013;" horiz-adv-x="640" 
d="M62 239v115h516v-115h-516z" />
    <glyph glyph-name="emdash" unicode="&#x2014;" horiz-adv-x="1084" 
d="M72 239v115h940v-115h-940z" />
    <glyph glyph-name="quoteleft" unicode="&#x2018;" horiz-adv-x="233" 
d="M199 508q0 -29 -21.5 -51t-56.5 -22q-40 0 -63.5 28t-23.5 68q0 50 15.5 84.5t38.5 56t50 32t51 12.5v-61q-29 -5 -54.5 -26.5t-27.5 -56.5q8 5 21 5q34 0 52.5 -18.5t18.5 -50.5z" />
    <glyph glyph-name="quoteright" unicode="&#x2019;" horiz-adv-x="235" 
d="M34 643q0 29 22.5 51t57.5 22q40 0 63.5 -28.5t23.5 -68.5q0 -50 -15.5 -85t-38.5 -57.5t-50 -33.5t-51 -13v61q29 5 54.5 27.5t27.5 57.5q-8 -5 -21 -5q-34 0 -53.5 20t-19.5 52z" />
    <glyph glyph-name="quotesinglbase" unicode="&#x201a;" horiz-adv-x="235" 
d="M34 69q0 29 22.5 50.5t57.5 21.5q40 0 63.5 -28t23.5 -69q0 -50 -15.5 -85t-38.5 -57.5t-50 -33.5t-51 -13v62q29 4 54.5 26.5t27.5 57.5q-8 -5 -21 -5q-34 0 -53.5 20.5t-19.5 52.5z" />
    <glyph glyph-name="quotedblleft" unicode="&#x201c;" horiz-adv-x="430" 
d="M199 508q0 -29 -21.5 -51t-56.5 -22q-40 0 -63.5 28t-23.5 68q0 50 15.5 84.5t38.5 56t50 32t51 12.5v-61q-29 -5 -54.5 -26.5t-27.5 -56.5q8 5 21 5q34 0 52.5 -18.5t18.5 -50.5zM396 508q0 -29 -21.5 -51t-56.5 -22q-40 0 -63.5 28t-23.5 68q0 50 15.5 84.5t38.5 56
t50 32t51 12.5v-61q-29 -5 -54.5 -26.5t-27.5 -56.5q8 5 21 5q34 0 52.5 -18.5t18.5 -50.5z" />
    <glyph glyph-name="quotedblright" unicode="&#x201d;" horiz-adv-x="429" 
d="M34 643q0 29 22.5 51t57.5 22q40 0 63.5 -28.5t23.5 -68.5q0 -50 -15.5 -85t-38.5 -57.5t-50 -33.5t-51 -13v61q29 5 54.5 27.5t27.5 57.5q-8 -5 -21 -5q-34 0 -53.5 20t-19.5 52zM230 643q0 29 22.5 51t57.5 22q40 0 63.5 -28.5t23.5 -68.5q0 -50 -15.5 -85t-38.5 -57.5
t-50 -33.5t-51 -13v61q29 5 54.5 27.5t27.5 57.5q-8 -5 -21 -5q-34 0 -53.5 20t-19.5 52z" />
    <glyph glyph-name="quotedblbase" unicode="&#x201e;" horiz-adv-x="429" 
d="M34 70q0 29 22.5 50.5t57.5 21.5q40 0 63.5 -28t23.5 -69q0 -50 -15.5 -85t-38.5 -57.5t-50 -33.5t-51 -13v62q29 4 54.5 26.5t27.5 57.5q-8 -5 -22 -5q-34 0 -53 20.5t-19 52.5zM228 70q0 29 22.5 50.5t57.5 21.5q40 0 63.5 -28t23.5 -69q0 -50 -15.5 -85t-38.5 -57.5
t-50 -33.5t-51 -13v62q29 4 54.5 26.5t27.5 57.5q-8 -5 -22 -5q-34 0 -53 20.5t-19 52.5z" />
    <glyph glyph-name="dagger" unicode="&#x2020;" horiz-adv-x="413" 
d="M151 163v300h-123v104h123v142h111v-142h123v-104h-123v-300h-111z" />
    <glyph glyph-name="daggerdbl" unicode="&#x2021;" horiz-adv-x="453" 
d="M171 247v215h-123v103h123v144h111v-144h123v-103h-123v-215h123v-103h-123v-144h-111v144h-123v103h123z" />
    <glyph glyph-name="bullet" unicode="&#x2022;" horiz-adv-x="532" 
d="M58 299q0 43 16.5 81t45 66.5t66 45t80.5 16.5t81 -16.5t66 -45t44.5 -66.5t16.5 -81t-16.5 -81t-44.5 -66.5t-66 -45t-81 -16.5t-80.5 16.5t-66 45t-45 66.5t-16.5 81z" />
    <glyph glyph-name="ellipsis" unicode="&#x2026;" horiz-adv-x="921" 
d="M846 70q0 -33 -23.5 -56.5t-57.5 -23.5q-33 0 -56.5 23.5t-23.5 56.5q0 34 23.5 57.5t56.5 23.5q34 0 57.5 -23.5t23.5 -57.5zM541 70q0 -33 -23.5 -56.5t-57.5 -23.5q-33 0 -57 23.5t-24 56.5q0 34 24 57.5t57 23.5q34 0 57.5 -23.5t23.5 -57.5zM236 70q0 -33 -23 -56.5
t-57 -23.5t-57.5 23.5t-23.5 56.5q0 34 23.5 57.5t57.5 23.5t57 -23.5t23 -57.5z" />
    <glyph glyph-name="perthousand" unicode="&#x2030;" horiz-adv-x="1084" 
d="M144 496q0 -32 19 -51t47 -19q29 0 47.5 19t18.5 51q0 30 -18.5 49.5t-47.5 19.5q-28 0 -47 -19.5t-19 -49.5zM44 496q0 34 13.5 64t36 52t52.5 34.5t64 12.5t64 -12.5t53 -34.5t36.5 -52t13.5 -64q0 -35 -13.5 -65t-36.5 -52t-53 -34t-64 -12t-64.5 12.5t-53 34.5
t-35.5 51.5t-13 64.5zM580 153q0 -32 19 -51t48 -19t48 19.5t19 50.5t-19 50t-48 19t-48 -19t-19 -50zM142 0l458 649h116l-458 -649h-116zM809 153q0 -32 19.5 -51t47.5 -19q29 0 48 19.5t19 50.5t-19 50t-48 19q-28 0 -47.5 -19t-19.5 -50zM480 153q0 34 13.5 64
t36.5 52.5t53 35t64 12.5q36 0 65.5 -14t49.5 -39q20 24 49 38.5t65 14.5q34 0 64.5 -12.5t53.5 -35t36.5 -52.5t13.5 -64q0 -35 -13.5 -65t-36.5 -51.5t-53.5 -34t-64.5 -12.5q-37 0 -65.5 14t-48.5 38q-20 -25 -49.5 -38.5t-66.5 -13.5q-34 0 -64 12.5t-52.5 34.5t-36 52
t-13.5 64z" />
    <glyph glyph-name="guilsinglleft" unicode="&#x2039;" horiz-adv-x="307" 
d="M164 101l-137 194l138 197h125l-136 -198l136 -193h-126z" />
    <glyph glyph-name="guilsinglright" unicode="&#x203a;" horiz-adv-x="307" 
d="M18 101l135 193l-136 198h126l137 -197l-136 -194h-126z" />
    <glyph glyph-name="uni2042" unicode="&#x2042;" horiz-adv-x="837" 
d="M463 597l101 34l29 -85l-103 -33l65 -87l-72 -53l-67 88l-64 -88l-72 54l63 86l-102 33l28 85l101 -34v111h93v-111zM256 211l101 34l29 -85l-103 -33l65 -87l-72 -53l-67 88l-64 -88l-72 54l63 86l-102 33l28 85l101 -34v111h93v-111zM674 211l101 34l29 -85l-103 -33
l65 -87l-72 -53l-67 88l-64 -88l-72 54l63 86l-102 33l28 85l101 -34v111h93v-111z" />
    <glyph glyph-name="fraction" unicode="&#x2044;" horiz-adv-x="574" 
d="M0 0l458 649h116l-458 -649h-116z" />
    <glyph glyph-name="uni2051" unicode="&#x2051;" horiz-adv-x="428" 
d="M260 597l101 34l29 -85l-103 -33l65 -87l-72 -53l-67 88l-64 -88l-72 54l63 86l-102 33l28 85l101 -34v111h93v-111zM260 214l101 34l29 -85l-103 -33l65 -87l-72 -53l-67 88l-64 -88l-72 54l63 86l-102 33l28 85l101 -34v111h93v-111z" />
    <glyph glyph-name="uni2070" unicode="&#x2070;" horiz-adv-x="434" 
d="M155 525q0 -19 2 -38t8.5 -34.5t19 -25t32.5 -9.5q21 0 33 9.5t19 25t9 34.5t2 38t-2 38t-9 34.5t-19 25.5t-33 10q-20 0 -32.5 -9.5t-19 -25t-8.5 -35t-2 -38.5zM51 525q0 35 7.5 69t28.5 62q20 26 51 43.5t79 17.5t79.5 -17.5t51.5 -43.5q20 -28 27.5 -62t7.5 -69
t-7.5 -68.5t-27.5 -61.5q-20 -27 -51.5 -44t-79.5 -17t-79 17t-51 44q-21 28 -28.5 61.5t-7.5 68.5z" />
    <glyph glyph-name="uni2074" unicode="&#x2074;" horiz-adv-x="441" 
d="M51 511l169 198h109v-218h61v-79h-61v-71h-100v71h-178v99zM229 605l-97 -114h97v114z" />
    <glyph glyph-name="uni2075" unicode="&#x2075;" horiz-adv-x="405" 
d="M140 468q3 -23 20.5 -36.5t40.5 -13.5t38 12.5t15 35.5q0 26 -15.5 38.5t-40.5 12.5q-16 0 -29.5 -6t-22.5 -16l-83 25l46 189h222v-83h-162l-15 -63q13 11 32 17t39 6q59 0 94 -31.5t35 -87.5q0 -27 -10 -51t-29.5 -42t-48 -28.5t-65.5 -10.5q-30 0 -56 8.5t-46 23.5
t-32.5 35t-15.5 43z" />
    <glyph glyph-name="uni2076" unicode="&#x2076;" horiz-adv-x="419" 
d="M335 622q-14 5 -30.5 8.5t-34.5 3.5q-39 0 -72.5 -19t-44.5 -63q14 15 36.5 23.5t48.5 8.5q55 0 92.5 -30t37.5 -89q0 -29 -11.5 -53.5t-32.5 -42t-50 -27.5t-63 -10q-33 0 -62 11t-50.5 33t-34.5 53t-13 72q0 50 16.5 90t45 67.5t67.5 42t84 14.5q23 0 46 -4t43 -12z
M157 462q0 -22 16.5 -35.5t37.5 -13.5q22 0 38 13.5t16 35.5q0 23 -16 36.5t-38 13.5q-21 0 -37.5 -13.5t-16.5 -36.5z" />
    <glyph glyph-name="uni2077" unicode="&#x2077;" horiz-adv-x="409" 
d="M358 624q-13 -10 -34.5 -31t-43.5 -55.5t-40 -83t-24 -113.5h-107q5 69 25.5 122t43.5 89q26 42 59 73h-186v84h307v-85z" />
    <glyph glyph-name="uni2078" unicode="&#x2078;" horiz-adv-x="420" 
d="M210 562q22 0 33.5 11.5t11.5 27.5q0 13 -11 24.5t-34 11.5t-34.5 -11.5t-11.5 -24.5q0 -16 11.5 -27.5t34.5 -11.5zM210 412q29 0 42 13t13 30q0 15 -13.5 27.5t-41.5 12.5q-29 0 -42 -12.5t-13 -27.5q0 -17 13 -30t42 -13zM210 333q-75 0 -115.5 30.5t-40.5 79.5
q0 30 20.5 53.5t52.5 33.5q-30 10 -46 33t-16 49q0 45 38 74.5t107 29.5t106.5 -29.5t37.5 -74.5q0 -26 -16 -49t-46 -33q31 -9 52.5 -32.5t21.5 -52.5q0 -50 -40.5 -81t-115.5 -31z" />
    <glyph glyph-name="uni2079" unicode="&#x2079;" horiz-adv-x="418" 
d="M87 427q14 -5 30 -8.5t33 -3.5q20 0 39.5 4t35.5 14t27.5 25.5t16.5 39.5q-14 -16 -37.5 -24.5t-48.5 -8.5q-26 0 -50 8t-42 23t-29 37t-11 51q0 59 42.5 96t114.5 37q33 0 61.5 -11.5t50 -33t34 -53.5t12.5 -72q0 -52 -15.5 -92t-43.5 -67t-65.5 -41t-80.5 -14
q-23 0 -46.5 4t-44.5 12zM259 587q0 22 -16 35.5t-38 13.5q-23 0 -38.5 -13.5t-15.5 -35.5q0 -23 15.5 -37t38.5 -14q22 0 38 14t16 37z" />
    <glyph glyph-name="uni2080" unicode="&#x2080;" horiz-adv-x="434" 
d="M155 81q0 -19 2 -38t8.5 -34.5t19 -25t32.5 -9.5q21 0 33 9.5t19 25t9 34.5t2 38t-2 38t-9 34.5t-19 25.5t-33 10q-20 0 -32.5 -9.5t-19 -25t-8.5 -35t-2 -38.5zM51 81q0 35 7.5 69t28.5 62q20 26 51 43.5t79 17.5t79.5 -17.5t51.5 -43.5q20 -28 27.5 -62t7.5 -69
t-7.5 -68.5t-27.5 -61.5q-20 -27 -51.5 -44t-79.5 -17t-79 17t-51 44q-21 28 -28.5 61.5t-7.5 68.5z" />
    <glyph glyph-name="uni2081" unicode="&#x2081;" horiz-adv-x="307" 
d="M129 -103v223h-91v66q24 0 42 7t30.5 18.5t20 25t10.5 27.5h91v-367h-103z" />
    <glyph glyph-name="uni2082" unicode="&#x2082;" horiz-adv-x="394" 
d="M58 120q-2 5 -3 13t-1 16q0 52 36.5 88t107.5 36q34 0 60.5 -10t44.5 -26.5t27.5 -38.5t9.5 -47q0 -36 -20.5 -62.5t-58.5 -49.5l-70 -42q-12 -7 -12 -15h164v-85h-291v12q0 49 19.5 88.5t69.5 68.5l60 35q38 23 38 51q0 14 -10.5 26.5t-31.5 12.5q-23 0 -37 -13.5
t-14 -38.5q0 -9 3 -18z" />
    <glyph glyph-name="uni2083" unicode="&#x2083;" horiz-adv-x="411" 
d="M142 26q2 -23 18.5 -38t42.5 -15q25 0 39.5 12.5t14.5 31.5q0 24 -16.5 34.5t-36.5 10.5q-10 0 -18.5 -2t-13.5 -4l-33 68l87 59h-161v83h284v-82l-90 -61q45 -6 73 -33t28 -75q0 -25 -11 -47.5t-31 -40t-49.5 -27.5t-65.5 -10q-34 0 -60.5 9.5t-46 25.5t-31 37t-14.5 43
z" />
    <glyph glyph-name="uni2084" unicode="&#x2084;" horiz-adv-x="441" 
d="M51 67l169 198h109v-218h61v-79h-61v-71h-100v71h-178v99zM229 161l-97 -114h97v114z" />
    <glyph glyph-name="uni2085" unicode="&#x2085;" horiz-adv-x="405" 
d="M140 24q3 -23 20.5 -36.5t40.5 -13.5t38 12.5t15 35.5q0 26 -15.5 38.5t-40.5 12.5q-16 0 -29.5 -6t-22.5 -16l-83 25l46 189h222v-83h-162l-15 -63q13 11 32 17t39 6q59 0 94 -31.5t35 -87.5q0 -27 -10 -51t-29.5 -42t-48 -28.5t-65.5 -10.5q-30 0 -56 8.5t-46 23.5
t-32.5 35t-15.5 43z" />
    <glyph glyph-name="uni2086" unicode="&#x2086;" horiz-adv-x="419" 
d="M335 179q-14 5 -30.5 8.5t-34.5 3.5q-39 0 -72.5 -19t-44.5 -63q14 15 36.5 23.5t48.5 8.5q55 0 92.5 -30t37.5 -89q0 -29 -11.5 -53.5t-32.5 -42t-50 -27.5t-63 -10q-33 0 -62 11t-50.5 33t-34.5 53t-13 72q0 50 16.5 90t45 67.5t67.5 42t84 14.5q23 0 46 -4t43 -12z
M157 19q0 -22 16.5 -35.5t37.5 -13.5q22 0 38 13.5t16 35.5q0 23 -16 36.5t-38 13.5q-21 0 -37.5 -13.5t-16.5 -36.5z" />
    <glyph glyph-name="uni2087" unicode="&#x2087;" horiz-adv-x="409" 
d="M358 179q-13 -10 -34.5 -31t-43.5 -55.5t-40 -83t-24 -113.5h-107q5 69 25.5 122t43.5 89q26 42 59 73h-186v84h307v-85z" />
    <glyph glyph-name="uni2088" unicode="&#x2088;" horiz-adv-x="420" 
d="M210 118q22 0 33.5 11.5t11.5 27.5q0 13 -11 24.5t-34 11.5t-34.5 -11.5t-11.5 -24.5q0 -16 11.5 -27.5t34.5 -11.5zM210 -32q29 0 42 13t13 30q0 15 -13.5 27.5t-41.5 12.5q-29 0 -42 -12.5t-13 -27.5q0 -17 13 -30t42 -13zM210 -111q-75 0 -115.5 30.5t-40.5 79.5
q0 30 20.5 53.5t52.5 33.5q-30 10 -46 33t-16 49q0 45 38 74.5t107 29.5t106.5 -29.5t37.5 -74.5q0 -26 -16 -49t-46 -33q31 -9 52.5 -32.5t21.5 -52.5q0 -50 -40.5 -81t-115.5 -31z" />
    <glyph glyph-name="uni2089" unicode="&#x2089;" horiz-adv-x="418" 
d="M87 -16q14 -5 30 -8.5t33 -3.5q20 0 39.5 4t35.5 14t27.5 25.5t16.5 39.5q-14 -16 -37.5 -24.5t-48.5 -8.5q-26 0 -50 8t-42 23t-29 37t-11 51q0 59 42.5 96t114.5 37q33 0 61.5 -11.5t50 -33t34 -53.5t12.5 -72q0 -52 -15.5 -92t-43.5 -67t-65.5 -41t-80.5 -14
q-23 0 -46.5 4t-44.5 12zM259 144q0 22 -16 35.5t-38 13.5q-23 0 -38.5 -13.5t-15.5 -35.5q0 -23 15.5 -37t38.5 -14q22 0 38 14t16 37z" />
    <glyph glyph-name="Euro" unicode="&#x20ac;" horiz-adv-x="679" 
d="M663 50q-35 -28 -84.5 -47t-109.5 -19q-53 0 -102 14t-90 41t-72.5 66.5t-49.5 90.5h-93v94h73q-1 14 -1 19.5v12.5v13t1 19h-73v94h93q18 51 50 91t73.5 68t90 42.5t100.5 14.5q55 0 96.5 -12t75.5 -34l-51 -105q-23 16 -54 23.5t-67 7.5q-51 0 -96.5 -23t-72.5 -73h260
l-44 -94h-242q-2 -11 -2 -18v-15v-11t2 -20h216l-43 -94h-144q26 -46 70 -68t96 -22q41 0 74.5 11.5t57.5 31.5z" />
    <glyph glyph-name="uni2113" unicode="&#x2113;" horiz-adv-x="429" 
d="M29 271q10 2 28 7.5t41 15.5v202q0 39 11.5 70t31.5 52.5t48 33t61 11.5q69 0 109.5 -41.5t40.5 -117.5q0 -37 -12.5 -75t-35.5 -74t-56.5 -69t-75.5 -60v-37q0 -22 6.5 -37t16.5 -24t22 -13t23 -4q42 0 62.5 10t28.5 15v-111q-2 -2 -8.5 -7t-19.5 -10t-32 -9t-45 -4
q-44 0 -77 13t-55 36.5t-33 54.5t-11 67v5q-17 -5 -34 -9.5t-35 -7.5v117zM279 509q0 41 -29 41q-11 0 -20.5 -9.5t-9.5 -38.5v-130q25 26 42 59.5t17 77.5z" />
    <glyph glyph-name="trademark" unicode="&#x2122;" horiz-adv-x="876" 
d="M231 625v-281h-94v281h-104v84h301v-84h-103zM725 344v222l-89 -222h-68l-90 219v-219h-91v365h128l89 -214l86 214h126v-365h-91z" />
    <glyph glyph-name="Omega" unicode="&#x2126;" horiz-adv-x="782" 
d="M391 595q-39 0 -75.5 -13t-65 -38.5t-45.5 -63t-17 -86.5q0 -42 14 -77t37 -61t53 -42.5t62 -23.5v-190h-302v126h179q-37 15 -70.5 40.5t-59 60.5t-41 79.5t-15.5 96.5q0 74 28.5 133.5t76 101.5t110 64.5t131.5 22.5t131.5 -22.5t110 -64.5t76 -101.5t28.5 -133.5
q0 -52 -15.5 -96.5t-41.5 -79.5t-59.5 -60.5t-70.5 -40.5h179v-126h-302v190q32 7 62 23.5t53.5 42.5t37.5 61t14 77q0 49 -17 86.5t-45.5 63t-65 38.5t-75.5 13z" />
    <glyph glyph-name="uni2160" unicode="&#x2160;" horiz-adv-x="498" 
d="M452 532h-134v-415h134v-117h-406v117h135v415h-135v117h406v-117z" />
    <glyph glyph-name="uni2161" unicode="&#x2161;" horiz-adv-x="786" 
d="M740 0h-694v117h137v415h-137v117h694v-117h-136v-415h136v-117zM467 532h-147v-415h147v415z" />
    <glyph glyph-name="uni2162" unicode="&#x2162;" horiz-adv-x="1060" 
d="M1014 0h-968v117h137v415h-137v117h968v-117h-136v-415h136v-117zM741 532h-142v-415h142v415zM320 117h142v415h-142v-415z" />
    <glyph glyph-name="uni2163" unicode="&#x2163;" horiz-adv-x="1053" 
d="M1007 0h-961v117h132v415h-132v117h961v-117h-108l-134 -415h242v-117zM315 117h213l-136 415h-77v-415zM760 532h-224l112 -366z" />
    <glyph glyph-name="uni2164" unicode="&#x2164;" horiz-adv-x="808" 
d="M762 532h-106l-134 -415h238v-117h-712v117h237l-136 415h-103v117h716v-117zM517 532h-224l112 -366z" />
    <glyph glyph-name="uni2165" unicode="&#x2165;" horiz-adv-x="1050" 
d="M1004 0h-958v117h240l-136 415h-104v117h958v-117h-131v-415h131v-117zM524 117h212v415h-77zM519 532h-225l113 -366z" />
    <glyph glyph-name="uni2166" unicode="&#x2166;" horiz-adv-x="1330" 
d="M1284 0h-1238v117h240l-136 415h-104v117h1237v-117h-135v-415h136v-117zM1011 532h-139v-415h139v415zM523 117h212v415h-77zM518 532h-224l113 -366z" />
    <glyph glyph-name="uni2167" unicode="&#x2167;" horiz-adv-x="1594" 
d="M1548 0h-1502v117h239l-134 415h-105v117h1501v-117h-133v-415h134v-117zM522 117h211v415h-79zM870 117h135v415h-135v-415zM1142 117h135v415h-135v-415zM515 532h-220l110 -366z" />
    <glyph glyph-name="uni2168" unicode="&#x2168;" horiz-adv-x="1026" 
d="M980 0h-934v117h132v415h-132v117h934v-117h-103l-154 -213l149 -202h108v-117zM395 532h-80v-415h83l151 204zM637 417l81 115h-162zM557 117h154l-77 108z" />
    <glyph glyph-name="uni2169" unicode="&#x2169;" horiz-adv-x="780" 
d="M734 532h-103l-154 -213l149 -202h108v-117h-688v117h106l151 204l-154 211h-103v117h688v-117zM390 417l81 115h-161zM311 117h153l-76 108z" />
    <glyph glyph-name="uni216C" unicode="&#x216c;" horiz-adv-x="658" 
d="M612 0h-566v117h117v415h-117v117h382v-117h-128v-415h181v175h131v-292z" />
    <glyph glyph-name="uni216D" unicode="&#x216d;" horiz-adv-x="736" 
d="M690 0h-134v60q-28 -32 -72 -53.5t-110 -21.5q-67 0 -126.5 24t-104.5 68t-71 107t-26 140t26.5 140t71 107.5t103.5 68.5t125 24t109 -21t71 -52v58h133v-240h-133q-4 22 -15 46t-32 43.5t-52.5 32t-74.5 12.5q-37 0 -73 -13t-64 -40t-45 -68.5t-17 -97.5
q0 -53 16.5 -93.5t44 -67.5t64 -41t76.5 -14q45 0 77 14t53 34.5t32 44.5t14 44h134v-245z" />
    <glyph glyph-name="uni216E" unicode="&#x216e;" horiz-adv-x="743" 
d="M382 649q70 -1 128 -23.5t99.5 -64.5t64.5 -102t23 -135q0 -76 -23.5 -136t-66 -102t-101.5 -64t-129 -22h-331v117h123v415h-123v117h336zM371 117q39 0 73 13.5t59.5 39t40 64.5t14.5 90q0 52 -15 91t-40.5 65t-60 39t-73.5 13h-63v-415h65z" />
    <glyph glyph-name="uni216F" unicode="&#x216f;" horiz-adv-x="1051" 
d="M375 0h-329v117h117v415h-117v117h305l173 -433l169 433h312v-117h-117v-415h117v-117h-335v117h83v330l-179 -441h-101l-178 439v-328h80v-117z" />
    <glyph glyph-name="arrowleft" unicode="&#x2190;" horiz-adv-x="1062" 
d="M-9 297l263 225v-168h747v-115h-747v-167z" />
    <glyph glyph-name="arrowup" unicode="&#x2191;" horiz-adv-x="486" 
d="M491 533h-172v-680h-114v680h-174l231 267z" />
    <glyph glyph-name="arrowright" unicode="&#x2192;" horiz-adv-x="1085" 
d="M756 62v177h-731v115h731v179l294 -236z" />
    <glyph glyph-name="arrowdown" unicode="&#x2193;" horiz-adv-x="478" 
d="M226 -152l-235 269h178v677h114v-677h177z" />
    <glyph glyph-name="uni2196" unicode="&#x2196;" horiz-adv-x="876" 
d="M396 708l-125 -126l514 -513l-81 -81l-514 513l-126 -127v334h332z" />
    <glyph glyph-name="uni2197" unicode="&#x2197;" horiz-adv-x="757" 
d="M666 708v-334l-127 127l-513 -513l-81 81l513 513l-124 126h332z" />
    <glyph glyph-name="uni2198" unicode="&#x2198;" horiz-adv-x="858" 
d="M435 1l124 125l-513 514l81 81l513 -514l127 128v-334h-332z" />
    <glyph glyph-name="uni2199" unicode="&#x2199;" horiz-adv-x="748" 
d="M36 1v334l126 -128l514 514l81 -81l-514 -514l125 -125h-332z" />
    <glyph glyph-name="uni21A9" unicode="&#x21a9;" horiz-adv-x="861" 
d="M-22 274l263 226v-169h360q26 0 49 7.5t40 21t26.5 32.5t9.5 42q0 48 -35 75.5t-92 27.5h-195v115h201q53 0 97 -16.5t75.5 -46t49 -69.5t17.5 -86q0 -47 -17 -87t-48.5 -69t-75.5 -46t-98 -17h-364v-165z" />
    <glyph glyph-name="uni21B0" unicode="&#x21b0;" horiz-adv-x="804" 
d="M38 499l263 226v-168h422v-557h-114v442h-308v-168z" />
    <glyph glyph-name="uni21B1" unicode="&#x21b1;" horiz-adv-x="749" 
d="M35 0v557h442v168l263 -226l-263 -225v168h-327v-442h-115z" />
    <glyph glyph-name="uni21B2" unicode="&#x21b2;" horiz-adv-x="771" 
d="M692 709v-557h-442v-168l-263 226l263 225v-168h328v442h114z" />
    <glyph glyph-name="uni21B3" unicode="&#x21b3;" horiz-adv-x="851" 
d="M778 210l-263 -226v168h-442v557h115v-442h327v168z" />
    <glyph glyph-name="uni21B4" unicode="&#x21b4;" horiz-adv-x="799" 
d="M61 709h565v-467h168l-223 -257l-225 257h165v352h-450v115z" />
    <glyph glyph-name="uni21C6" unicode="&#x21c6;" horiz-adv-x="1167" 
d="M849 -62v167h-757v115h757v168l263 -226zM64 556l263 226v-170h756v-115h-756v-165z" />
    <glyph glyph-name="partialdiff" unicode="&#x2202;" horiz-adv-x="621" 
d="M252 600q-22 0 -60 -6t-85 -28l-46 106q51 29 104 39t95 10q32 0 68 -6t71.5 -21.5t68.5 -42.5t58 -68.5t40 -99t15 -135.5t-17.5 -144.5t-53.5 -115t-90.5 -76.5t-128.5 -28q-49 0 -95 15.5t-81.5 46t-57 76t-21.5 106.5q0 55 21 98.5t55.5 72.5t78.5 44.5t89 15.5
q34 0 60.5 -5t46 -13t32.5 -18t22 -20q-3 53 -19 90.5t-41.5 61t-58.5 34.5t-70 11zM310 346q-35 0 -61.5 -9.5t-43.5 -26.5t-25.5 -39.5t-8.5 -48.5q0 -27 11 -48.5t28.5 -36.5t40 -22.5t45.5 -7.5q42 0 70 17.5t45 44.5t25 59.5t8 61.5q-23 26 -56.5 41t-77.5 15z" />
    <glyph glyph-name="Delta" unicode="&#x2206;" horiz-adv-x="691" 
d="M270 709h150l271 -709h-691zM191 128h309l-155 431z" />
    <glyph glyph-name="product" unicode="&#x220f;" horiz-adv-x="686" 
d="M467 0v582h-248v-582h-138v709h524v-709h-138z" />
    <glyph glyph-name="summation" unicode="&#x2211;" horiz-adv-x="569" 
d="M36 125l256 229l-256 230v125h514v-128h-325l252 -227l-261 -226h334v-128h-514v125z" />
    <glyph glyph-name="minus" unicode="&#x2212;" horiz-adv-x="573" 
d="M49 241v109h475v-109h-475z" />
    <glyph glyph-name="uni2215" unicode="&#x2215;" horiz-adv-x="444" 
d="M120 -10h-120l323 668h121z" />
    <glyph glyph-name="uni2219" unicode="&#x2219;" horiz-adv-x="288" 
d="M61 309q0 36 25 60.5t61 24.5t61 -24.5t25 -60.5t-25 -60t-61 -24t-61 24t-25 60z" />
    <glyph glyph-name="radical" unicode="&#x221a;" horiz-adv-x="697" 
d="M598 768l-258 -768h-118l-190 537h130l120 -354l228 696h219v-111h-131z" />
    <glyph glyph-name="infinity" unicode="&#x221e;" horiz-adv-x="831" 
d="M414 201q-44 -48 -86.5 -72t-93.5 -24q-42 0 -77 14t-60.5 38.5t-40 58.5t-14.5 74t14.5 74t40 59t60.5 39t77 14q50 0 95.5 -25.5t87.5 -73.5q43 47 87.5 73t92.5 26q42 0 77 -14t60.5 -39t40 -59t14.5 -74t-14.5 -74t-40 -58.5t-60.5 -38.5t-77 -14q-51 0 -95.5 24
t-87.5 72zM236 362q-35 0 -55 -21t-20 -52t20 -51.5t55 -20.5q29 0 55.5 20t51.5 50q-26 32 -51.5 53.5t-55.5 21.5zM595 217q35 0 55 20.5t20 51.5t-20 52t-55 21q-30 0 -55 -20.5t-52 -52.5q26 -31 52 -51.5t55 -20.5z" />
    <glyph glyph-name="integral" unicode="&#x222b;" horiz-adv-x="350" 
d="M109 525q0 85 49 135t136 50h51v-118h-45q-26 0 -42 -16.5t-16 -48.5v-542q0 -85 -48.5 -135t-134.5 -50h-54v117h46q26 0 42 17t16 49v542z" />
    <glyph glyph-name="approxequal" unicode="&#x2248;" horiz-adv-x="594" 
d="M562 404q-27 -48 -69 -74t-93 -26q-54 0 -108 30l-47 26q-29 15 -55 15q-24 0 -46.5 -12.5t-39.5 -35.5l-72 59q28 49 69.5 75t91.5 26q52 0 108 -30l48 -26q29 -16 56 -16q24 0 46 11.5t41 36.5zM562 203q-28 -48 -69.5 -74t-91.5 -26q-28 0 -54.5 7t-54.5 23l-47 26
q-26 14 -52 14q-25 0 -48 -12t-41 -35l-72 59q28 49 70 75t92 26q51 0 107 -30l48 -26q29 -16 57 -16q24 0 46.5 11.5t39.5 35.5z" />
    <glyph glyph-name="notequal" unicode="&#x2260;" horiz-adv-x="603" 
d="M265 142l-63 -97h-120l63 97h-86v108h157l59 91h-216v107h286l60 92h120l-60 -92h79v-107h-149l-59 -91h208v-108h-279z" />
    <glyph glyph-name="lessequal" unicode="&#x2264;" horiz-adv-x="545" 
d="M486 153v-109h-430v109h430zM56 424l430 136v-110l-279 -78l279 -79v-112l-430 135v108z" />
    <glyph glyph-name="greaterequal" unicode="&#x2265;" horiz-adv-x="545" 
d="M489 153v-109h-430v109h430zM489 316l-430 -135v110l279 78l-279 79v112l430 -136v-108z" />
    <glyph glyph-name="dotmath" unicode="&#x22c5;" horiz-adv-x="288" 
d="M61 309q0 36 25 60.5t61 24.5t61 -24.5t25 -60.5t-25 -60t-61 -24t-61 24t-25 60z" />
    <glyph glyph-name="uni24C5" unicode="&#x24c5;" horiz-adv-x="816" 
d="M124 354q0 -61 22 -114t60 -92.5t89.5 -62t111.5 -22.5t111.5 22.5t89.5 62t60 92.5t22 114t-22 114.5t-60 93t-89.5 62t-111.5 22.5t-111.5 -22.5t-89.5 -62t-60 -93t-22 -114.5zM39 354q0 76 29 144t78.5 118t116.5 79.5t144 29.5q76 0 143.5 -29.5t118 -79.5
t79.5 -118t29 -144t-29 -143.5t-79.5 -117.5t-118 -79.5t-143.5 -29.5q-77 0 -144 29.5t-116.5 79.5t-78.5 117.5t-29 143.5zM431 370q27 0 42.5 14.5t15.5 38.5q0 25 -15.5 39.5t-42.5 14.5h-54v-107h54zM377 292v-137h-94v400h165q29 0 54 -10.5t43.5 -28.5t29 -42
t10.5 -51t-10.5 -51t-29 -41.5t-43.5 -28t-54 -10.5h-71z" />
    <glyph glyph-name="filledbox" unicode="&#x25a0;" horiz-adv-x="908" 
d="M101 709h706v-709h-706v709z" />
    <glyph glyph-name="H22073" unicode="&#x25a1;" horiz-adv-x="908" 
d="M101 0v709h706v-709h-706zM215 111h475v486h-475v-486z" />
    <glyph glyph-name="uni25AF" unicode="&#x25af;" horiz-adv-x="584" 
d="M71 709h442v-709h-442v709zM404 109v491h-224v-491h224z" />
    <glyph glyph-name="triagup" unicode="&#x25b2;" horiz-adv-x="838" 
d="M838 0h-838l421 725z" />
    <glyph glyph-name="uni25B3" unicode="&#x25b3;" horiz-adv-x="838" 
d="M838 0h-838l419 725zM419 496l-221 -384h441z" />
    <glyph glyph-name="lozenge" unicode="&#x25ca;" horiz-adv-x="617" 
d="M309 132l128 222l-128 223l-129 -223zM236 709h145l207 -355l-207 -354h-145l-207 354z" />
    <glyph glyph-name="circle" unicode="&#x25cb;" horiz-adv-x="813" 
d="M36 354q0 77 29 144.5t79.5 118t118 79.5t144.5 29t144.5 -29t117.5 -79.5t79 -118t29 -144.5t-29 -144.5t-79 -117.5t-117.5 -79t-144.5 -29t-144.5 29t-118 79t-79.5 117.5t-29 144.5zM151 354q0 -53 20 -100t54.5 -82t81.5 -55.5t100 -20.5q52 0 98.5 20.5t80.5 55.5
t54 82t20 100t-20 100t-54 82t-80.5 55.5t-98.5 20.5q-53 0 -100 -20.5t-81.5 -55.5t-54.5 -82t-20 -100z" />
    <glyph glyph-name="H18533" unicode="&#x25cf;" horiz-adv-x="813" 
d="M36 354q0 77 29 144.5t79 118t117.5 79.5t144.5 29t144.5 -29t118 -79.5t79.5 -118t29 -144.5t-29 -144.5t-79.5 -117.5t-118 -79t-144.5 -29t-144.5 29t-117.5 79t-79 117.5t-29 144.5z" />
    <glyph glyph-name="uni262E" unicode="&#x262e;" horiz-adv-x="815" 
d="M776 354q0 -77 -29 -144t-79 -117.5t-117.5 -79.5t-143.5 -29q-77 0 -144 29t-116.5 79.5t-78.5 117.5t-29 144t29 144.5t78.5 118t116.5 79.5t144 29q76 0 143.5 -29t117.5 -79.5t79 -118t29 -144.5zM663 354q0 47 -15.5 89.5t-42.5 76t-64 57t-80 33.5v-194l181 -157
q10 22 15.5 45.5t5.5 49.5zM150 354q0 -49 19 -93l180 155v192q-43 -10 -79.5 -33t-63 -56.5t-41.5 -75.5t-15 -89zM461 99q35 8 65.5 24.5t56.5 40.5l-122 110v-175zM228 166q50 -51 121 -67v175z" />
    <glyph glyph-name="uni2713" unicode="&#x2713;" horiz-adv-x="942" 
d="M309 -16l-293 324l83 78l214 -233l531 573l82 -81z" />
    <glyph glyph-name="uni2715" unicode="&#x2715;" horiz-adv-x="755" 
d="M376 274l-277 -279l-80 81l277 279l-277 277l81 80l276 -276l274 276l80 -80l-274 -277l280 -279l-80 -81z" />
    <glyph glyph-name="uni2780" unicode="&#x2780;" horiz-adv-x="822" 
d="M127 354q0 -61 22 -114t60 -92.5t89.5 -62t111.5 -22.5t111.5 22.5t89.5 62t60 92.5t22 114t-22 114.5t-60 93t-89.5 62t-111.5 22.5t-111.5 -22.5t-89.5 -62t-60 -93t-22 -114.5zM42 354q0 76 29 144t78.5 118t116.5 79.5t144 29.5q76 0 143.5 -29.5t118 -79.5
t79.5 -118t29 -144t-29 -143.5t-79.5 -117.5t-118 -79.5t-143.5 -29.5q-77 0 -144 29.5t-116.5 79.5t-78.5 117.5t-29 143.5zM377 173v223h-91v66q24 0 42 7t30.5 18.5t20 25t10.5 27.5h91v-367h-103z" />
    <glyph glyph-name="uni2781" unicode="&#x2781;" horiz-adv-x="822" 
d="M127 354q0 -61 22 -114t60 -92.5t89.5 -62t111.5 -22.5t111.5 22.5t89.5 62t60 92.5t22 114t-22 114.5t-60 93t-89.5 62t-111.5 22.5t-111.5 -22.5t-89.5 -62t-60 -93t-22 -114.5zM42 354q0 76 29 144t78.5 118t116.5 79.5t144 29.5q76 0 143.5 -29.5t118 -79.5
t79.5 -118t29 -144t-29 -143.5t-79.5 -117.5t-118 -79.5t-143.5 -29.5q-77 0 -144 29.5t-116.5 79.5t-78.5 117.5t-29 143.5zM267 405q-2 5 -3 13t-1 16q0 52 36.5 88t107.5 36q34 0 60.5 -10t44.5 -26.5t27.5 -38.5t9.5 -47q0 -36 -20.5 -62.5t-58.5 -49.5l-70 -42
q-12 -7 -12 -15h164v-85h-291v12q0 49 19.5 88.5t69.5 68.5l60 35q38 23 38 51q0 14 -10.5 26.5t-31.5 12.5q-23 0 -37 -13.5t-14 -38.5q0 -9 3 -18z" />
    <glyph glyph-name="uni2782" unicode="&#x2782;" horiz-adv-x="822" 
d="M127 354q0 -61 22 -114t60 -92.5t89.5 -62t111.5 -22.5t111.5 22.5t89.5 62t60 92.5t22 114t-22 114.5t-60 93t-89.5 62t-111.5 22.5t-111.5 -22.5t-89.5 -62t-60 -93t-22 -114.5zM42 354q0 76 29 144t78.5 118t116.5 79.5t144 29.5q76 0 143.5 -29.5t118 -79.5
t79.5 -118t29 -144t-29 -143.5t-79.5 -117.5t-118 -79.5t-143.5 -29.5q-77 0 -144 29.5t-116.5 79.5t-78.5 117.5t-29 143.5zM344 296q2 -23 18.5 -38t42.5 -15q25 0 39.5 12.5t14.5 31.5q0 24 -16.5 34.5t-36.5 10.5q-10 0 -18.5 -2t-13.5 -4l-33 68l87 59h-161v83h284v-82
l-90 -61q45 -6 73 -33t28 -75q0 -25 -11 -47.5t-31 -40t-49.5 -27.5t-65.5 -10q-34 0 -60.5 9.5t-46 25.5t-31 37t-14.5 43z" />
    <glyph glyph-name="uni2783" unicode="&#x2783;" horiz-adv-x="822" 
d="M127 354q0 -61 22 -114t60 -92.5t89.5 -62t111.5 -22.5t111.5 22.5t89.5 62t60 92.5t22 114t-22 114.5t-60 93t-89.5 62t-111.5 22.5t-111.5 -22.5t-89.5 -62t-60 -93t-22 -114.5zM42 354q0 76 29 144t78.5 118t116.5 79.5t144 29.5q76 0 143.5 -29.5t118 -79.5
t79.5 -118t29 -144t-29 -143.5t-79.5 -117.5t-118 -79.5t-143.5 -29.5q-77 0 -144 29.5t-116.5 79.5t-78.5 117.5t-29 143.5zM231 348l169 198h109v-218h61v-79h-61v-71h-100v71h-178v99zM409 442l-97 -114h97v114z" />
    <glyph glyph-name="uni2784" unicode="&#x2784;" horiz-adv-x="822" 
d="M127 354q0 -61 22 -114t60 -92.5t89.5 -62t111.5 -22.5t111.5 22.5t89.5 62t60 92.5t22 114t-22 114.5t-60 93t-89.5 62t-111.5 22.5t-111.5 -22.5t-89.5 -62t-60 -93t-22 -114.5zM42 354q0 76 29 144t78.5 118t116.5 79.5t144 29.5q76 0 143.5 -29.5t118 -79.5
t79.5 -118t29 -144t-29 -143.5t-79.5 -117.5t-118 -79.5t-143.5 -29.5q-77 0 -144 29.5t-116.5 79.5t-78.5 117.5t-29 143.5zM340 292q3 -23 20.5 -36.5t40.5 -13.5t38 12.5t15 35.5q0 26 -15.5 38.5t-40.5 12.5q-16 0 -29.5 -6t-22.5 -16l-83 25l46 189h222v-83h-162
l-15 -63q13 11 32 17t39 6q59 0 94 -31.5t35 -87.5q0 -27 -10 -51t-29.5 -42t-48 -28.5t-65.5 -10.5q-30 0 -56 8.5t-46 23.5t-32.5 35t-15.5 43z" />
    <glyph glyph-name="uni2785" unicode="&#x2785;" horiz-adv-x="822" 
d="M127 354q0 -61 22 -114t60 -92.5t89.5 -62t111.5 -22.5t111.5 22.5t89.5 62t60 92.5t22 114t-22 114.5t-60 93t-89.5 62t-111.5 22.5t-111.5 -22.5t-89.5 -62t-60 -93t-22 -114.5zM42 354q0 76 29 144t78.5 118t116.5 79.5t144 29.5q76 0 143.5 -29.5t118 -79.5
t79.5 -118t29 -144t-29 -143.5t-79.5 -117.5t-118 -79.5t-143.5 -29.5q-77 0 -144 29.5t-116.5 79.5t-78.5 117.5t-29 143.5zM524 454q-14 5 -30.5 8.5t-34.5 3.5q-39 0 -72.5 -19t-44.5 -63q14 15 36.5 23.5t48.5 8.5q55 0 92.5 -30t37.5 -89q0 -29 -11.5 -53.5t-32.5 -42
t-50 -27.5t-63 -10q-33 0 -62 11t-50.5 33t-34.5 53t-13 72q0 50 16.5 90t45 67.5t67.5 42t84 14.5q23 0 46 -4t43 -12zM346 294q0 -22 16.5 -35.5t37.5 -13.5q22 0 38 13.5t16 35.5q0 23 -16 36.5t-38 13.5q-21 0 -37.5 -13.5t-16.5 -36.5z" />
    <glyph glyph-name="uni2786" unicode="&#x2786;" horiz-adv-x="822" 
d="M127 354q0 -61 22 -114t60 -92.5t89.5 -62t111.5 -22.5t111.5 22.5t89.5 62t60 92.5t22 114t-22 114.5t-60 93t-89.5 62t-111.5 22.5t-111.5 -22.5t-89.5 -62t-60 -93t-22 -114.5zM42 354q0 76 29 144t78.5 118t116.5 79.5t144 29.5q76 0 143.5 -29.5t118 -79.5
t79.5 -118t29 -144t-29 -143.5t-79.5 -117.5t-118 -79.5t-143.5 -29.5q-77 0 -144 29.5t-116.5 79.5t-78.5 117.5t-29 143.5zM562 446q-13 -10 -34.5 -31t-43.5 -55.5t-40 -83t-24 -113.5h-107q5 69 25.5 122t43.5 89q26 42 59 73h-186v84h307v-85z" />
    <glyph glyph-name="uni2787" unicode="&#x2787;" horiz-adv-x="822" 
d="M127 354q0 -61 22 -114t60 -92.5t89.5 -62t111.5 -22.5t111.5 22.5t89.5 62t60 92.5t22 114t-22 114.5t-60 93t-89.5 62t-111.5 22.5t-111.5 -22.5t-89.5 -62t-60 -93t-22 -114.5zM42 354q0 76 29 144t78.5 118t116.5 79.5t144 29.5q76 0 143.5 -29.5t118 -79.5
t79.5 -118t29 -144t-29 -143.5t-79.5 -117.5t-118 -79.5t-143.5 -29.5q-77 0 -144 29.5t-116.5 79.5t-78.5 117.5t-29 143.5zM411 394q22 0 33.5 11.5t11.5 27.5q0 13 -11 24.5t-34 11.5t-34.5 -11.5t-11.5 -24.5q0 -16 11.5 -27.5t34.5 -11.5zM411 244q29 0 42 13t13 30
q0 15 -13.5 27.5t-41.5 12.5q-29 0 -42 -12.5t-13 -27.5q0 -17 13 -30t42 -13zM411 165q-75 0 -115.5 30.5t-40.5 79.5q0 30 20.5 53.5t52.5 33.5q-30 10 -46 33t-16 49q0 45 38 74.5t107 29.5t106.5 -29.5t37.5 -74.5q0 -26 -16 -49t-46 -33q31 -9 52.5 -32.5t21.5 -52.5
q0 -50 -40.5 -81t-115.5 -31z" />
    <glyph glyph-name="uni2788" unicode="&#x2788;" horiz-adv-x="822" 
d="M127 354q0 -61 22 -114t60 -92.5t89.5 -62t111.5 -22.5t111.5 22.5t89.5 62t60 92.5t22 114t-22 114.5t-60 93t-89.5 62t-111.5 22.5t-111.5 -22.5t-89.5 -62t-60 -93t-22 -114.5zM42 354q0 76 29 144t78.5 118t116.5 79.5t144 29.5q76 0 143.5 -29.5t118 -79.5
t79.5 -118t29 -144t-29 -143.5t-79.5 -117.5t-118 -79.5t-143.5 -29.5q-77 0 -144 29.5t-116.5 79.5t-78.5 117.5t-29 143.5zM295 258q14 -5 30 -8.5t33 -3.5q20 0 39.5 4t35.5 14t27.5 25.5t16.5 39.5q-14 -16 -37.5 -24.5t-48.5 -8.5q-26 0 -50 8t-42 23t-29 37t-11 51
q0 59 42.5 96t114.5 37q33 0 61.5 -11.5t50 -33t34 -53.5t12.5 -72q0 -52 -15.5 -92t-43.5 -67t-65.5 -41t-80.5 -14q-23 0 -46.5 4t-44.5 12zM467 418q0 22 -16 35.5t-38 13.5q-23 0 -38.5 -13.5t-15.5 -35.5q0 -23 15.5 -37t38.5 -14q22 0 38 14t16 37z" />
    <glyph glyph-name="uniE000" unicode="&#xe000;" horiz-adv-x="745" 
d="M-1 242h168v467h565v-115h-450v-352h165l-225 -257z" />
    <glyph glyph-name="uniE002" unicode="&#xe002;" horiz-adv-x="956" 
d="M720 605l215 -251h-151q0 -77 -29 -144.5t-79 -117.5t-117.5 -79t-144.5 -29t-144 29t-117.5 79t-79.5 117.5t-29 144.5t29 144.5t79.5 118t117.5 79.5t144 29q43 0 82.5 -9t75.5 -26l-46 -106q-52 26 -111 26q-53 0 -100 -20t-81.5 -55t-54.5 -81.5t-20 -99.5t20 -99.5
t54.5 -81.5t81.5 -55.5t100 -20.5q52 0 98.5 20.5t80.5 55.5t54 81.5t20 99.5h-162z" />
    <glyph glyph-name="uniE021" unicode="&#xe021;" horiz-adv-x="1110" 
d="M36 354h153q0 76 29.5 144t79.5 118t117 79.5t144 29.5q48 0 91.5 -11.5t82.5 -31.5l-53 -102q-27 14 -57.5 22t-62.5 8q-53 0 -100 -20t-81.5 -55t-54.5 -81.5t-20 -99.5h161l-214 -250zM926 354q0 -77 -29 -144.5t-79 -117.5t-117.5 -79t-144.5 -29q-47 0 -90.5 11.5
t-82.5 31.5l52 102q28 -14 58 -22.5t63 -8.5q53 0 99 20t80.5 55t54.5 81.5t20 99.5h-159l214 251l215 -251h-154z" />
    <glyph glyph-name="uniFB00" unicode="&#xfb00;" horiz-adv-x="680" 
d="M553 492h111v-114h-111v-378h-133v378h-190v-378h-134v378h-82v114h82v56q0 42 12.5 75.5t36 57.5t56.5 37t74 13q21 0 39.5 -3t26.5 -7v-112q-5 2 -15 3.5t-27 1.5q-11 0 -23 -3t-22.5 -10.5t-17 -20.5t-6.5 -34v-54h190v56q0 42 12.5 75.5t36 57.5t56.5 37t74 13
q21 0 39.5 -3t26.5 -7v-112q-5 2 -15 3.5t-27 1.5q-11 0 -23 -3t-22.5 -10.5t-17.5 -20.5t-7 -34v-54z" />
    <glyph glyph-name="fi" unicode="&#xfb01;" horiz-adv-x="631" 
d="M230 378v-378h-134v378h-82v114h82v56q0 42 12.5 75.5t36 57.5t56.5 37t74 13q21 0 39.5 -3t26.5 -7v-112q-5 2 -15 3.5t-27 1.5q-11 0 -23 -3t-22.5 -10.5t-17 -20.5t-6.5 -34v-54h329v-492h-132v378h-197zM411 654q0 35 24 59t58 24t58 -24t24 -59q0 -34 -24 -57.5
t-58 -23.5t-58 23.5t-24 57.5z" />
    <glyph glyph-name="fl" unicode="&#xfb02;" horiz-adv-x="630" 
d="M299 614q-11 0 -23 -3t-22.5 -10.5t-17 -20.5t-6.5 -34v-54h196v232h133v-724h-133v378h-196v-378h-134v378h-82v114h82v56q0 42 12.5 75.5t36 57.5t56.5 37t74 13q21 0 39.5 -3t26.5 -7v-112q-5 2 -15 3.5t-27 1.5z" />
    <glyph glyph-name="uniFB03" unicode="&#xfb03;" horiz-adv-x="957" 
d="M737 654q0 35 23.5 59t57.5 24q35 0 59 -24t24 -59q0 -34 -24 -57.5t-59 -23.5q-34 0 -57.5 23.5t-23.5 57.5zM420 550q0 41 12.5 74.5t36 57t56 36.5t73.5 13q21 0 39.5 -3t26.5 -7v-112q-5 2 -15 3.5t-27 1.5q-11 0 -23 -3t-22.5 -10.5t-17 -20.5t-6.5 -34v-54h332
v-492h-133v378h-199v-378h-133v378h-190v-378h-134v378h-82v114h82v56q0 42 12.5 75.5t36 57.5t56.5 37t74 13q21 0 39.5 -3t26.5 -7v-112q-5 2 -15 3.5t-27 1.5q-11 0 -23 -3t-22.5 -10.5t-17 -20.5t-6.5 -34v-54h190v58z" />
    <glyph glyph-name="uniFB04" unicode="&#xfb04;" horiz-adv-x="957" 
d="M420 548q0 84 48.5 133.5t129.5 49.5q21 0 39.5 -3t26.5 -7v-112q-5 2 -15 3.5t-27 1.5q-11 0 -23 -3t-22.5 -10.5t-17 -20.5t-6.5 -34v-54h200v232h133v-724h-133v378h-200v-378h-133v378h-190v-378h-134v378h-82v114h82v56q0 42 12.5 75.5t36 57.5t56.5 37t74 13
q21 0 39.5 -3t26.5 -7v-112q-5 2 -15 3.5t-27 1.5q-11 0 -23 -3t-22.5 -10.5t-17 -20.5t-6.5 -34v-54h190v56z" />
    <glyph glyph-name="uniFEFF" unicode="&#xfeff;" horiz-adv-x="0" 
 />
    <glyph glyph-name="i.latn_TRK" horiz-adv-x="275" 
d="M71 0v492h133v-492h-133zM55 653q0 35 24 59t58 24q35 0 58.5 -24t23.5 -59q0 -33 -23.5 -57t-58.5 -24q-34 0 -58 24t-24 57z" />
    <glyph glyph-name="Ldot.latn_CAT" horiz-adv-x="560" 
d="M81 0v709h138v-577h316v-132h-454z" />
    <glyph glyph-name="ldot.latn_CAT" horiz-adv-x="435" 
d="M71 0v724h133v-724h-133zM254 330q0 34 23.5 56.5t56.5 22.5t56.5 -22.5t23.5 -56.5q0 -33 -23.5 -55.5t-56.5 -22.5t-56.5 22.5t-23.5 55.5z" />
    <glyph glyph-name="zero.numr" horiz-adv-x="434" 
d="M155 465q0 -19 2 -38t8.5 -34.5t19 -25t32.5 -9.5q21 0 33 9.5t19 25t9 34.5t2 38t-2 38t-9 34.5t-19 25.5t-33 10q-20 0 -32.5 -9.5t-19 -25t-8.5 -35t-2 -38.5zM51 465q0 35 7.5 69t28.5 62q20 26 51 43.5t79 17.5t79.5 -17.5t51.5 -43.5q20 -28 27.5 -62t7.5 -69
t-7.5 -68.5t-27.5 -61.5q-20 -27 -51.5 -44t-79.5 -17t-79 17t-51 44q-21 28 -28.5 61.5t-7.5 68.5z" />
    <glyph glyph-name="one.numr" horiz-adv-x="313" 
d="M129 282v223h-91v66q24 0 42 7t30.5 18.5t20 25t10.5 27.5h91v-367h-103z" />
    <glyph glyph-name="two.numr" horiz-adv-x="394" 
d="M58 504q-2 5 -3 13t-1 16q0 52 36.5 88t107.5 36q34 0 60.5 -10t44.5 -26.5t27.5 -38.5t9.5 -47q0 -36 -20.5 -62.5t-58.5 -49.5l-70 -42q-12 -7 -12 -15h164v-85h-291v12q0 49 19.5 88.5t69.5 68.5l60 35q38 23 38 51q0 14 -10.5 26.5t-31.5 12.5q-23 0 -37 -13.5
t-14 -38.5q0 -9 3 -18z" />
    <glyph glyph-name="three.numr" horiz-adv-x="411" 
d="M142 409q2 -23 18.5 -38t42.5 -15q25 0 39.5 12.5t14.5 31.5q0 24 -16.5 34.5t-36.5 10.5q-10 0 -18.5 -2t-13.5 -4l-33 68l87 59h-161v83h284v-82l-90 -61q45 -6 73 -33t28 -75q0 -25 -11 -47.5t-31 -40t-49.5 -27.5t-65.5 -10q-34 0 -60.5 9.5t-46 25.5t-31 37
t-14.5 43z" />
    <glyph glyph-name="four.numr" horiz-adv-x="441" 
d="M51 451l169 198h109v-218h61v-79h-61v-71h-100v71h-178v99zM229 545l-97 -114h97v114z" />
    <glyph glyph-name="five.numr" horiz-adv-x="395" 
d="M140 408q3 -23 20.5 -36.5t40.5 -13.5t38 12.5t15 35.5q0 26 -15.5 38.5t-40.5 12.5q-16 0 -29.5 -6t-22.5 -16l-83 25l46 189h222v-83h-162l-15 -63q13 11 32 17t39 6q59 0 94 -31.5t35 -87.5q0 -27 -10 -51t-29.5 -42t-48 -28.5t-65.5 -10.5q-30 0 -56 8.5t-46 23.5
t-32.5 35t-15.5 43z" />
    <glyph glyph-name="six.numr" horiz-adv-x="419" 
d="M335 562q-14 5 -30.5 8.5t-34.5 3.5q-39 0 -72.5 -19t-44.5 -63q14 15 36.5 23.5t48.5 8.5q55 0 92.5 -30t37.5 -89q0 -29 -11.5 -53.5t-32.5 -42t-50 -27.5t-63 -10q-33 0 -62 11t-50.5 33t-34.5 53t-13 72q0 50 16.5 90t45 67.5t67.5 42t84 14.5q23 0 46 -4t43 -12z
M157 402q0 -22 16.5 -35.5t37.5 -13.5q22 0 38 13.5t16 35.5q0 23 -16 36.5t-38 13.5q-21 0 -37.5 -13.5t-16.5 -36.5z" />
    <glyph glyph-name="seven.numr" horiz-adv-x="409" 
d="M358 564q-13 -10 -34.5 -31t-43.5 -55.5t-40 -83t-24 -113.5h-107q5 69 25.5 122t43.5 89q26 42 59 73h-186v84h307v-85z" />
    <glyph glyph-name="eight.numr" horiz-adv-x="420" 
d="M210 502q22 0 33.5 11.5t11.5 27.5q0 13 -11 24.5t-34 11.5t-34.5 -11.5t-11.5 -24.5q0 -16 11.5 -27.5t34.5 -11.5zM210 352q29 0 42 13t13 30q0 15 -13.5 27.5t-41.5 12.5q-29 0 -42 -12.5t-13 -27.5q0 -17 13 -30t42 -13zM210 273q-75 0 -115.5 30.5t-40.5 79.5
q0 30 20.5 53.5t52.5 33.5q-30 10 -46 33t-16 49q0 45 38 74.5t107 29.5t106.5 -29.5t37.5 -74.5q0 -26 -16 -49t-46 -33q31 -9 52.5 -32.5t21.5 -52.5q0 -50 -40.5 -81t-115.5 -31z" />
    <glyph glyph-name="nine.numr" horiz-adv-x="418" 
d="M87 366q14 -5 30 -8.5t33 -3.5q20 0 39.5 4t35.5 14t27.5 25.5t16.5 39.5q-14 -16 -37.5 -24.5t-48.5 -8.5q-26 0 -50 8t-42 23t-29 37t-11 51q0 59 42.5 96t114.5 37q33 0 61.5 -11.5t50 -33t34 -53.5t12.5 -72q0 -52 -15.5 -92t-43.5 -67t-65.5 -41t-80.5 -14
q-23 0 -46.5 4t-44.5 12zM259 526q0 22 -16 35.5t-38 13.5q-23 0 -38.5 -13.5t-15.5 -35.5q0 -23 15.5 -37t38.5 -14q22 0 38 14t16 37z" />
    <glyph glyph-name="zero.dnom" horiz-adv-x="434" 
d="M155 184q0 -19 2 -38t8.5 -34.5t19 -25t32.5 -9.5q21 0 33 9.5t19 25t9 34.5t2 38t-2 38t-9 34.5t-19 25.5t-33 10q-20 0 -32.5 -9.5t-19 -25t-8.5 -35t-2 -38.5zM51 184q0 35 7.5 69t28.5 62q20 26 51 43.5t79 17.5t79.5 -17.5t51.5 -43.5q20 -28 27.5 -62t7.5 -69
t-7.5 -68.5t-27.5 -61.5q-20 -27 -51.5 -44t-79.5 -17t-79 17t-51 44q-21 28 -28.5 61.5t-7.5 68.5z" />
    <glyph glyph-name="one.dnom" horiz-adv-x="307" 
d="M129 1v223h-91v66q24 0 42 7t30.5 18.5t20 25t10.5 27.5h91v-367h-103z" />
    <glyph glyph-name="two.dnom" horiz-adv-x="394" 
d="M58 224q-2 5 -3 13t-1 16q0 52 36.5 88t107.5 36q34 0 60.5 -10t44.5 -26.5t27.5 -38.5t9.5 -47q0 -36 -20.5 -62.5t-58.5 -49.5l-70 -42q-12 -7 -12 -15h164v-85h-291v12q0 49 19.5 88.5t69.5 68.5l60 35q38 23 38 51q0 14 -10.5 26.5t-31.5 12.5q-23 0 -37 -13.5
t-14 -38.5q0 -9 3 -18z" />
    <glyph glyph-name="three.dnom" horiz-adv-x="411" 
d="M142 129q2 -23 18.5 -38t42.5 -15q25 0 39.5 12.5t14.5 31.5q0 24 -16.5 34.5t-36.5 10.5q-10 0 -18.5 -2t-13.5 -4l-33 68l87 59h-161v83h284v-82l-90 -61q45 -6 73 -33t28 -75q0 -25 -11 -47.5t-31 -40t-49.5 -27.5t-65.5 -10q-34 0 -60.5 9.5t-46 25.5t-31 37
t-14.5 43z" />
    <glyph glyph-name="four.dnom" horiz-adv-x="441" 
d="M51 171l169 198h109v-218h61v-79h-61v-71h-100v71h-178v99zM229 265l-97 -114h97v114z" />
    <glyph glyph-name="five.dnom" horiz-adv-x="405" 
d="M140 127q3 -23 20.5 -36.5t40.5 -13.5t38 12.5t15 35.5q0 26 -15.5 38.5t-40.5 12.5q-16 0 -29.5 -6t-22.5 -16l-83 25l46 189h222v-83h-162l-15 -63q13 11 32 17t39 6q59 0 94 -31.5t35 -87.5q0 -27 -10 -51t-29.5 -42t-48 -28.5t-65.5 -10.5q-30 0 -56 8.5t-46 23.5
t-32.5 35t-15.5 43z" />
    <glyph glyph-name="six.dnom" horiz-adv-x="419" 
d="M335 283q-14 5 -30.5 8.5t-34.5 3.5q-39 0 -72.5 -19t-44.5 -63q14 15 36.5 23.5t48.5 8.5q55 0 92.5 -30t37.5 -89q0 -29 -11.5 -53.5t-32.5 -42t-50 -27.5t-63 -10q-33 0 -62 11t-50.5 33t-34.5 53t-13 72q0 50 16.5 90t45 67.5t67.5 42t84 14.5q23 0 46 -4t43 -12z
M157 123q0 -22 16.5 -35.5t37.5 -13.5q22 0 38 13.5t16 35.5q0 23 -16 36.5t-38 13.5q-21 0 -37.5 -13.5t-16.5 -36.5z" />
    <glyph glyph-name="seven.dnom" horiz-adv-x="409" 
d="M358 284q-13 -10 -34.5 -31t-43.5 -55.5t-40 -83t-24 -113.5h-107q5 69 25.5 122t43.5 89q26 42 59 73h-186v84h307v-85z" />
    <glyph glyph-name="eight.dnom" horiz-adv-x="420" 
d="M210 222q22 0 33.5 11.5t11.5 27.5q0 13 -11 24.5t-34 11.5t-34.5 -11.5t-11.5 -24.5q0 -16 11.5 -27.5t34.5 -11.5zM210 72q29 0 42 13t13 30q0 15 -13.5 27.5t-41.5 12.5q-29 0 -42 -12.5t-13 -27.5q0 -17 13 -30t42 -13zM210 -7q-75 0 -115.5 30.5t-40.5 79.5
q0 30 20.5 53.5t52.5 33.5q-30 10 -46 33t-16 49q0 45 38 74.5t107 29.5t106.5 -29.5t37.5 -74.5q0 -26 -16 -49t-46 -33q31 -9 52.5 -32.5t21.5 -52.5q0 -50 -40.5 -81t-115.5 -31z" />
    <glyph glyph-name="nine.dnom" horiz-adv-x="418" 
d="M87 87q14 -5 30 -8.5t33 -3.5q20 0 39.5 4t35.5 14t27.5 25.5t16.5 39.5q-14 -16 -37.5 -24.5t-48.5 -8.5q-26 0 -50 8t-42 23t-29 37t-11 51q0 59 42.5 96t114.5 37q33 0 61.5 -11.5t50 -33t34 -53.5t12.5 -72q0 -52 -15.5 -92t-43.5 -67t-65.5 -41t-80.5 -14
q-23 0 -46.5 4t-44.5 12zM259 247q0 22 -16 35.5t-38 13.5q-23 0 -38.5 -13.5t-15.5 -35.5q0 -23 15.5 -37t38.5 -14q22 0 38 14t16 37z" />
    <glyph glyph-name="space.frac" horiz-adv-x="49" 
 />
    <glyph glyph-name="a.ordn" horiz-adv-x="423" 
d="M55 397q0 45 27.5 70.5t75.5 33.5l83 14q14 2 19.5 8.5t5.5 15.5q0 16 -13.5 27.5t-39.5 11.5q-29 0 -44.5 -16t-17.5 -36l-89 18q1 19 11 39.5t29 37t46.5 27.5t64.5 11q42 0 71 -11t47 -29t26 -42t8 -51v-170q0 -18 1.5 -32t3.5 -22h-93q-1 4 -2 13.5t-1 26.5
q-14 -22 -38.5 -36t-61.5 -14q-28 0 -50 9t-37.5 23.5t-23.5 33.5t-8 39zM198 366q26 0 47 15.5t21 57.5v16l-70 -11q-17 -2 -28.5 -11.5t-11.5 -29.5q0 -14 10 -25.5t32 -11.5z" />
    <glyph glyph-name="b.ordn" horiz-adv-x="503" 
d="M83 302v507h100v-195q11 17 38 30.5t64 13.5q38 0 68 -14t50.5 -38t31.5 -57.5t11 -72.5t-12 -72.5t-34 -58t-52.5 -38t-66.5 -13.5q-35 0 -61 14t-39 34v-40h-98zM344 476q0 45 -24 67.5t-58 22.5q-32 0 -56 -22.5t-24 -67.5t24 -68t56 -23q33 0 57.5 23t24.5 68z" />
    <glyph glyph-name="c.ordn" horiz-adv-x="461" 
d="M242 565q-34 0 -58 -23t-24 -67t24.5 -67t59.5 -23q32 0 50 17t24 37l90 -28q-6 -23 -19.5 -44t-34 -38t-48.5 -27t-62 -10q-39 0 -73 13.5t-59 38t-39.5 58t-14.5 73.5t14 74t39 58.5t58 38t71 13.5q36 0 64 -10t49 -27t34 -38.5t19 -43.5l-92 -29q-6 21 -23 37.5
t-49 16.5z" />
    <glyph glyph-name="d.ordn" horiz-adv-x="505" 
d="M161 476q0 -45 24 -68t57 -23q32 0 56 23t24 68t-24 67.5t-56 22.5q-33 0 -57 -22.5t-24 -67.5zM421 364q0 -26 3 -62h-98q-1 6 -1.5 18t-0.5 20q-11 -20 -36 -33t-59 -13q-37 0 -68 13.5t-54 37.5t-36 57.5t-13 73.5q0 39 12.5 72t35 57.5t53 38.5t67.5 14
q45 0 66.5 -14t28.5 -25v190h100v-445z" />
    <glyph glyph-name="e.ordn" horiz-adv-x="453" 
d="M300 516q-1 23 -17 42.5t-55 19.5q-35 0 -52.5 -20.5t-19.5 -41.5h144zM394 402q-14 -45 -54 -77.5t-106 -32.5q-36 0 -68.5 12.5t-57 36t-39.5 58t-15 78.5q0 42 14.5 75.5t38.5 57t55 36.5t65 13q81 0 126.5 -47t45.5 -132q0 -11 -0.5 -20t-1.5 -11h-243
q2 -31 25.5 -51t56.5 -20q30 0 47 13.5t25 34.5z" />
    <glyph glyph-name="f.ordn" horiz-adv-x="343" 
d="M212 563v-261h-103v261h-56v86h56v33q0 60 34.5 96.5t96.5 36.5q14 0 28 -2t22 -5v-85q-5 2 -13 3t-19 1q-15 0 -30.5 -9.5t-15.5 -35.5v-33h76v-86h-76z" />
    <glyph glyph-name="g.ordn" horiz-adv-x="467" 
d="M148 308q6 -26 26 -43t52 -17q42 0 65 22t23 70v18q-11 -15 -34 -28t-60 -13q-35 0 -64.5 12.5t-51.5 35t-34 53.5t-12 67q0 34 12 65t33.5 54.5t51 37t65.5 13.5q42 0 65 -15t31 -30v38h98v-305q0 -37 -10.5 -70t-33 -58.5t-57 -40.5t-83.5 -15q-37 0 -67 10.5t-52 27.5
t-35.5 39t-17.5 46zM238 406q34 0 55.5 21t21.5 58q0 38 -23 59.5t-54 21.5q-32 0 -54.5 -21.5t-22.5 -59.5q0 -37 21.5 -58t55.5 -21z" />
    <glyph glyph-name="h.ordn" horiz-adv-x="487" 
d="M185 302h-102v507h102v-185q16 18 41.5 26t48.5 8q34 0 58.5 -11t40.5 -29.5t24 -44t8 -53.5v-218h-102v201q0 27 -14.5 44.5t-44.5 17.5q-27 0 -42.5 -16.5t-17.5 -42.5v-204z" />
    <glyph glyph-name="i.ordn" horiz-adv-x="285" 
d="M92 302v346h102v-346h-102zM82 757q0 26 17.5 43.5t42.5 17.5q26 0 44 -17.5t18 -43.5q0 -25 -18 -42.5t-44 -17.5q-25 0 -42.5 17.5t-17.5 42.5z" />
    <glyph glyph-name="j.ordn" horiz-adv-x="327" 
d="M138 648h102v-373q0 -52 -30.5 -84t-82.5 -32q-23 0 -38 3.5t-19 5.5v85q5 -2 14 -3t17 -1q37 0 37 37v362zM128 758q0 25 17.5 43t42.5 18q26 0 44 -18t18 -43q0 -26 -18 -43.5t-44 -17.5q-25 0 -42.5 17.5t-17.5 43.5z" />
    <glyph glyph-name="k.ordn" horiz-adv-x="463" 
d="M291 503l139 -201h-124l-86 125l-35 -37v-88h-102v507h102v-281l110 120h133z" />
    <glyph glyph-name="l.ordn" horiz-adv-x="267" 
d="M83 302v507h102v-507h-102z" />
    <glyph glyph-name="m.ordn" horiz-adv-x="701" 
d="M83 302v346h98v-40q13 24 42 37.5t57 13.5q74 0 104 -56q20 31 46 43.5t61 12.5q24 0 47 -7.5t41 -23.5t29 -41t11 -60v-225h-99v202q0 26 -13.5 43.5t-43.5 17.5q-29 0 -44.5 -18.5t-15.5 -43.5v-201h-101v202q0 26 -14 43.5t-44 17.5q-29 0 -44 -18.5t-15 -43.5v-201
h-102z" />
    <glyph glyph-name="n.ordn" horiz-adv-x="487" 
d="M185 302h-102v346h99v-40q14 26 42.5 38t55.5 12q32 0 56 -11t39.5 -29.5t23 -44t7.5 -53.5v-218h-102v201q0 27 -14.5 44.5t-44.5 17.5q-29 0 -44.5 -18t-15.5 -46v-199z" />
    <glyph glyph-name="o.ordn" horiz-adv-x="482" 
d="M242 385q32 0 56.5 22.5t24.5 68.5q0 45 -24.5 67.5t-56.5 22.5t-56.5 -22.5t-24.5 -67.5q0 -46 24.5 -68.5t56.5 -22.5zM242 659q39 0 72 -13.5t58 -38t39 -58t14 -73.5q0 -41 -14 -74.5t-39 -58t-58 -38t-72 -13.5t-72.5 13.5t-58.5 38t-39 58t-14 74.5q0 40 14 73.5
t39 58t58.5 38t72.5 13.5z" />
    <glyph glyph-name="p.ordn" horiz-adv-x="503" 
d="M83 169v479h98v-37q12 18 39 32t65 14t68 -13.5t50.5 -38t31.5 -57.5t11 -72t-12 -72.5t-34 -58t-52.5 -38t-66.5 -13.5q-35 0 -59.5 10.5t-36.5 26.5v-162h-102zM345 476q0 44 -24 66.5t-56 22.5q-33 0 -57.5 -22.5t-24.5 -66.5q0 -45 24.5 -68t57.5 -23q32 0 56 23
t24 68z" />
    <glyph glyph-name="q.ordn" horiz-adv-x="500" 
d="M322 169v163q-12 -17 -36 -27.5t-57 -10.5q-37 0 -68.5 13.5t-54 38t-35.5 58t-13 72.5t12 72t34.5 57t53 38t68.5 14q46 0 69 -16t29 -28v35h98v-479h-100zM161 476q0 -45 24.5 -68t56.5 -23t56.5 23t24.5 68t-24.5 67t-56.5 22q-33 0 -57 -22t-24 -67z" />
    <glyph glyph-name="r.ordn" horiz-adv-x="305" 
d="M296 548q-6 2 -12 2h-11q-18 0 -34.5 -4t-29.5 -14.5t-20.5 -29t-7.5 -47.5v-153h-102v346h99v-47q12 23 37 37t57 14q12 0 24 -3v-101z" />
    <glyph glyph-name="s.ordn" horiz-adv-x="399" 
d="M146 416q1 -18 14.5 -33t42.5 -15q22 0 32 9t10 22q0 11 -7.5 18.5t-27.5 11.5l-41 9q-54 13 -78 41.5t-24 64.5q0 24 10 44.5t27.5 36.5t41.5 25t53 9q37 0 63 -10.5t42 -26t23.5 -33t9.5 -32.5l-85 -16q-2 16 -14 29.5t-38 13.5q-16 0 -28 -8.5t-12 -22.5q0 -11 8 -18
t21 -10l47 -10q54 -11 80 -40t26 -67q0 -22 -8.5 -42.5t-25.5 -37t-43 -26.5t-61 -10q-40 0 -67.5 11.5t-44 28t-24.5 35t-9 33.5z" />
    <glyph glyph-name="t.ordn" horiz-adv-x="327" 
d="M202 648h68v-89h-68v-135q0 -22 10.5 -29.5t28.5 -7.5q8 0 16 0.5t13 1.5v-84q-3 -2 -17.5 -5.5t-37.5 -3.5q-54 0 -84 29.5t-30 80.5v153h-62v89h18q27 0 40.5 16.5t13.5 39.5v47h91v-103z" />
    <glyph glyph-name="u.ordn" horiz-adv-x="462" 
d="M287 302q-1 5 -2 15.5t-1 20.5q-14 -23 -40.5 -33.5t-53.5 -10.5q-32 0 -56.5 10.5t-41 29t-25.5 43t-9 52.5v219h102v-197q0 -27 14.5 -45.5t43.5 -18.5t45 17.5t16 45.5v198h102v-284q0 -31 3 -62h-97z" />
    <glyph glyph-name="v.ordn" horiz-adv-x="421" 
d="M266 302h-102l-142 346h111l82 -220l77 220h107z" />
    <glyph glyph-name="w.ordn" horiz-adv-x="628" 
d="M371 648l70 -210l59 210h101l-108 -346h-101l-78 228l-76 -228h-103l-109 346h107l59 -210l71 210h108z" />
    <glyph glyph-name="x.ordn" horiz-adv-x="424" 
d="M151 475l-122 173h121l14 -21.5l17 -26l17.5 -26l14.5 -21.5l64 95h114l-119 -169l61.5 -88.5l61.5 -88.5h-119l-67 100l-15 -22.5l-18 -27.5l-18 -27.5l-15 -22.5h-113z" />
    <glyph glyph-name="y.ordn" horiz-adv-x="433" 
d="M90 168l79 179l-146 301h114l88 -191l79 191h108l-215 -480h-107z" />
    <glyph glyph-name="z.ordn" horiz-adv-x="406" 
d="M58 302v90l156 169h-152v87h283v-84l-162 -174h165v-88h-290z" />
    <glyph glyph-name="space.tf" 
 />
    <glyph glyph-name="numbersign.tf" 
d="M481 492h88v-98h-109l-29 -136h88v-97h-109l-34 -161h-106l34 161h-106l-34 -161h-106l34 161h-83v97h104l29 136h-83v98h104l34 157h106l-34 -157h106l34 157h106zM219 258h106l29 136h-106z" />
    <glyph glyph-name="dollar.tf" 
d="M254 -113v107q-52 7 -91 28t-65 49.5t-40.5 62t-17.5 65.5l124 30q2 -24 11.5 -45.5t26.5 -38.5t42 -27t60 -10q49 0 76 21t27 54q0 26 -18.5 44.5t-56.5 26.5l-92 20q-81 18 -128 67t-47 121q0 40 14.5 74t40 60t60 43.5t74.5 23.5v107h102v-110q43 -8 74.5 -26t53 -41
t34 -49.5t17.5 -51.5l-123 -35q-2 13 -8.5 29t-20 30.5t-34 24t-51.5 9.5q-48 0 -73.5 -23.5t-25.5 -54.5q0 -23 17 -41t52 -26l91 -21q95 -21 139 -73t44 -120q0 -35 -12 -67t-36 -58.5t-58.5 -45t-79.5 -25.5v-108h-102z" />
    <glyph glyph-name="percent.tf" 
d="M525 439l-482 -328v97l482 329v-98zM109 518q0 -26 15.5 -41.5t38.5 -15.5t38.5 16t15.5 41q0 26 -15.5 41.5t-38.5 15.5t-38.5 -15.5t-15.5 -41.5zM22 518q0 29 11 54.5t30.5 44t45 29.5t54.5 11t54.5 -11t45 -29.5t30.5 -44t11 -54.5q0 -30 -11 -55t-30.5 -43.5
t-45.5 -29t-55 -10.5t-54.5 10.5t-44.5 29t-30 44t-11 54.5zM360 131q0 -26 15.5 -41.5t38.5 -15.5t38.5 16t15.5 41q0 26 -15.5 41.5t-38.5 15.5t-38.5 -15.5t-15.5 -41.5zM273 131q0 29 11 54.5t30.5 44t45 29.5t54.5 11t54.5 -11t45 -29.5t30.5 -44t11 -54.5
q0 -30 -11 -55t-30.5 -43.5t-45.5 -29t-55 -10.5t-54.5 10.5t-44.5 29t-30 44t-11 54.5z" />
    <glyph glyph-name="plus.tf" 
d="M233 349v195h112v-195h190v-109h-190v-196h-112v196h-189v109h189z" />
    <glyph glyph-name="comma.tf" 
d="M182 90q0 40 29.5 67t72.5 27q53 0 82 -37t29 -92q0 -62 -19 -106.5t-48 -74t-64 -45t-66 -18.5v71q19 5 37.5 15.5t33.5 26.5t24.5 36t10.5 43q-9 -6 -29 -6q-41 0 -67 26t-26 67z" />
    <glyph glyph-name="period.tf" 
d="M187 94q0 43 29.5 72.5t72.5 29.5q21 0 40 -8t33 -22t22 -32.5t8 -39.5t-8 -39.5t-22 -32.5t-33 -22t-40 -8q-43 0 -72.5 30t-29.5 72z" />
    <glyph glyph-name="zero.tf" 
d="M169 324q0 -37 3 -76t15 -70.5t36 -51.5t66 -20t66 20t36 51.5t15 70.5t3 76t-3 76t-15 70.5t-36 51.5t-66 20t-66 -20t-36 -51.5t-15 -70.5t-3 -76zM30 324q0 62 10 124t42 110q32 49 85 77.5t122 28.5t121.5 -28t84.5 -77t42.5 -110.5t10.5 -124.5t-10.5 -125
t-42.5 -111q-32 -48 -84.5 -76t-121.5 -28t-121.5 28t-84.5 76q-32 49 -42.5 111t-10.5 125z" />
    <glyph glyph-name="one.tf" 
d="M248 117v317h-150v93q72 1 115 36t52 86h119v-532h151v-117h-450v117h163z" />
    <glyph glyph-name="two.tf" 
d="M59 402q-2 7 -3.5 20t-1.5 25q0 43 16 82t46 69t74 48t101 18q54 0 97.5 -17t74 -45.5t46.5 -66.5t16 -80q0 -63 -33 -113.5t-93 -87.5l-125 -76q-19 -12 -33.5 -26t-22.5 -33h311v-119h-480q0 43 8 81.5t25.5 73.5t46.5 65.5t73 56.5l107 64q42 25 59.5 51.5t17.5 60.5
q0 35 -24.5 62t-73.5 27q-52 0 -77.5 -31t-25.5 -77q0 -18 5 -36z" />
    <glyph glyph-name="three.tf" 
d="M162 384l170 146h-284v119h459v-111l-168 -140q37 -2 71 -16t60 -39.5t41.5 -61.5t15.5 -81q0 -42 -17 -81t-49 -68.5t-78 -47.5t-105 -18q-57 0 -102 17t-77 45.5t-50.5 66t-21.5 78.5l133 26q2 -50 34.5 -82t83.5 -32q52 0 81 28.5t29 69.5q0 46 -29.5 71t-76.5 25
q-21 0 -34.5 -3t-24.5 -7z" />
    <glyph glyph-name="four.tf" 
d="M32 283l270 366h170v-392h93v-118h-93v-139h-137v139h-303v144zM335 505l-182 -248h182v248z" />
    <glyph glyph-name="five.tf" 
d="M175 211q1 -23 10 -42.5t24.5 -34.5t36.5 -23.5t47 -8.5q47 0 79.5 28.5t32.5 77.5q0 28 -9.5 48.5t-25.5 34t-37 20t-43 6.5q-33 0 -58.5 -13t-41.5 -31q-5 2 -23.5 8.5l-39.5 13.5l-39.5 13t-23.5 8l77 333h366v-119h-272l-32 -143q21 20 53 30t64 10q49 0 89.5 -14.5
t70 -42t46 -68t16.5 -92.5q0 -45 -17 -86t-49 -72t-78.5 -49.5t-104.5 -18.5q-53 0 -97 16.5t-76.5 44t-51.5 63.5t-22 74z" />
    <glyph glyph-name="six.tf" 
d="M496 522q-22 10 -50 16t-60 6q-41 0 -77.5 -12t-65 -36t-47 -59t-23.5 -80q17 29 56.5 51.5t99.5 22.5q48 0 87.5 -16t68.5 -44.5t45 -68.5t16 -89q0 -50 -19 -92t-52.5 -72t-79 -47t-97.5 -17q-64 0 -112.5 24t-81.5 65.5t-50 95.5t-17 114q0 87 26.5 157.5t74 120
t113.5 76t146 26.5q45 0 81 -9t56 -21zM186 210q0 -25 9 -45t24.5 -34.5t35.5 -22t42 -7.5t42.5 7.5t35.5 22t24 34.5t9 45t-9 45t-24 34t-35.5 21.5t-42.5 7.5q-23 0 -43 -7.5t-35 -21.5t-24 -34t-9 -45z" />
    <glyph glyph-name="seven.tf" 
d="M543 534l-35 -31.5t-50.5 -53t-57 -76t-55.5 -99t-45.5 -124t-26.5 -150.5h-143q5 65 18.5 122.5t32.5 107t41 91.5t45 75q53 78 117 134h-357v119h516v-115z" />
    <glyph glyph-name="eight.tf" 
d="M289 383q46 1 71 25.5t25 59.5q0 32 -25 57t-71 25q-45 0 -70 -25t-25 -57q0 -35 25 -59.5t70 -25.5zM289 99q27 0 47.5 7.5t34.5 20t21 29t7 33.5q0 18 -7 34.5t-20.5 29t-34.5 20.5t-48 8t-47.5 -8t-34 -20.5t-20.5 -29t-7 -34.5q0 -17 7 -33.5t21 -29t34 -20t47 -7.5z
M289 -15q-56 0 -101 14t-77 39t-49.5 60t-17.5 77q0 53 31.5 95.5t83.5 62.5q-24 9 -43 24.5t-32 35t-20 41.5t-7 44q0 41 17.5 75t48 59t73 38.5t93.5 13.5t93.5 -13.5t73 -38.5t48 -59t17.5 -75q0 -21 -6.5 -43t-19.5 -41.5t-32 -35.5t-43 -25q51 -19 82.5 -62t31.5 -96
q0 -42 -17.5 -77t-49.5 -60t-77.5 -39t-100.5 -14z" />
    <glyph glyph-name="nine.tf" 
d="M77 132q17 -10 49.5 -19t65.5 -9q89 0 144.5 46.5t61.5 136.5q-20 -31 -58.5 -50t-89.5 -19q-44 0 -84 15t-70.5 43.5t-48.5 69t-18 90.5t18.5 92t51.5 72t78.5 47t98.5 17q51 0 97.5 -19t82 -57.5t56 -96t20.5 -134.5q0 -87 -21.5 -156t-64 -117t-106 -73.5
t-146.5 -25.5q-42 0 -83.5 10t-67.5 26zM380 440q0 24 -9 43.5t-24 33.5t-34.5 21.5t-41.5 7.5t-41.5 -7.5t-34.5 -21.5t-23.5 -33.5t-8.5 -43.5t8.5 -44t23.5 -33.5t34.5 -21t41.5 -7.5t42 7.5t35 21.5t23.5 33.5t8.5 43.5z" />
    <glyph glyph-name="colon.tf" 
d="M190 83q0 41 28.5 69t69.5 28q20 0 38.5 -7.5t31.5 -20.5t20.5 -31t7.5 -38t-7.5 -38t-20.5 -31.5t-31.5 -20.5t-38.5 -7q-41 0 -69.5 28t-28.5 69zM190 410q0 41 28.5 69t69.5 28q20 0 38.5 -7.5t31.5 -20.5t20.5 -31t7.5 -38t-7.5 -38t-20.5 -31.5t-31.5 -20.5
t-38.5 -7q-41 0 -69.5 28t-28.5 69z" />
    <glyph glyph-name="semicolon.tf" 
d="M191 86q0 38 27 63t67 25q49 0 76.5 -34.5t27.5 -85.5q0 -57 -18 -99t-45 -69t-59.5 -41.5t-61.5 -17.5v67q18 4 35 14t31 24.5t23 33t10 40.5q-8 -6 -27 -6q-39 0 -62.5 24.5t-23.5 61.5zM191 407q0 41 28.5 69t69.5 28q20 0 38.5 -7.5t31.5 -20.5t20.5 -31t7.5 -38
t-7.5 -38t-20.5 -31.5t-31.5 -20.5t-38.5 -7q-41 0 -69.5 28t-28.5 69z" />
    <glyph glyph-name="less.tf" 
d="M72 345l430 217v-123l-296 -143l296 -143v-125l-430 216v101z" />
    <glyph glyph-name="equal.tf" 
d="M47 341v107h485v-107h-485zM47 142v108h485v-108h-485z" />
    <glyph glyph-name="greater.tf" 
d="M506 245l-430 -217v123l296 143l-296 143v125l430 -217v-100z" />
    <glyph glyph-name="cent.tf" 
d="M251 0v87q-41 9 -76 30t-60 52t-39 69.5t-14 83.5t14 84.5t39 70t60 51.5t76 30v91h102v-90q37 -6 66 -20.5t50.5 -35t35.5 -44.5t21 -49l-114 -37q-4 14 -12 28t-20.5 25t-30 17.5t-41.5 6.5q-49 0 -84 -33t-35 -95q0 -31 9.5 -54.5t26 -40t38.5 -25t47 -8.5
q24 0 42.5 7t31.5 18t21 24.5t12 26.5l112 -36q-7 -25 -21.5 -49.5t-36.5 -44.5t-51.5 -35t-66.5 -21v-84h-102z" />
    <glyph glyph-name="sterling.tf" 
d="M123 375q-8 21 -13 44t-5 51q0 38 14 73t41 62t66 43t88 16q92 0 148.5 -48.5t58.5 -140.5l-120 -18q0 45 -21.5 70t-63.5 25q-37 0 -59.5 -22.5t-22.5 -62.5q0 -25 6.5 -47t15.5 -45h179v-102h-146q1 -5 1 -10.5v-10.5q0 -42 -17.5 -77.5t-55.5 -58.5h131q38 0 60 24
t22 60l119 -10q0 -41 -13 -76t-36 -60.5t-56.5 -39.5t-73.5 -14h-312v111q49 17 77.5 50t28.5 77q0 9 -1 18t-3 17h-98v102h61z" />
    <glyph glyph-name="currency.tf" 
d="M74 245q0 30 8 57.5t22 50.5l-72 73l80 80l74 -75q24 13 50 20t55 7q56 0 103 -26l73 74l80 -80l-71 -71q31 -50 31 -110q0 -30 -8 -57.5t-22 -51.5l70 -71l-80 -80l-72 73q-47 -26 -104 -26q-59 0 -107 27l-72 -74l-80 80l71 72q-14 24 -21.5 51t-7.5 57zM186 245
q0 -46 29.5 -75.5t75.5 -29.5t75.5 29.5t29.5 75.5t-29.5 75.5t-75.5 29.5t-75.5 -29.5t-29.5 -75.5z" />
    <glyph glyph-name="yen.tf" 
d="M355 135v-135h-130v135h-161v94h161v70h-161v93h96l-147 257h151l129 -245l127 245h145l-146 -257h103v-93h-167v-70h167v-94h-167z" />
    <glyph glyph-name="section.tf" horiz-adv-x="579" 
d="M501 254q0 -47 -23.5 -77.5t-53.5 -47.5q38 -28 57.5 -64.5t19.5 -78.5q0 -44 -18 -79.5t-47.5 -60.5t-67.5 -38.5t-79 -13.5q-98 0 -153 51.5t-59 135.5l125 21q0 -48 24 -71.5t64 -23.5q34 0 55.5 19t21.5 51q0 20 -12 35.5t-32 26.5l-102 53q-28 14 -53.5 30.5t-45 37
t-31 46.5t-11.5 61q0 46 23.5 77t53.5 48q-38 28 -57.5 65t-19.5 78q0 44 18 79.5t47.5 60.5t68 38.5t79.5 13.5q48 0 86.5 -14t65.5 -38.5t42 -59t17 -75.5l-126 -21q0 48 -23.5 71.5t-62.5 23.5q-35 0 -56.5 -19.5t-21.5 -50.5q0 -19 11 -35.5t33 -26.5l101 -52
q28 -15 54 -31t45.5 -37t31 -47.5t11.5 -60.5zM234 349q-14 -11 -23 -25.5t-9 -31.5q0 -20 9 -36.5t34 -29.5l102 -54q14 11 23 25t9 32q0 20 -9.5 36.5t-33.5 29.5z" />
    <glyph glyph-name="logicalnot.tf" 
d="M406 136v195h-375v110h489v-305h-114z" />
    <glyph glyph-name="plusminus.tf" 
d="M233 421v123h112v-123h178v-108h-178v-123h-112v123h-178v108h178zM523 153v-109h-468v109h468z" />
    <glyph glyph-name="multiply.tf" 
d="M288 215l-165 -167l-79 79l165 168l-165 168l80 79l164 -167l165 167l80 -78l-166 -169l166 -168l-79 -80z" />
    <glyph glyph-name="divide.tf" 
d="M208 479q0 16 6 30t16.5 24.5t25 16.5t30.5 6t30.5 -6t25 -16.5t16.5 -24.5t6 -30t-6 -30t-16.5 -24.5t-25 -17t-30.5 -6.5t-30.5 6.5t-25 17t-16.5 24.5t-6 30zM44 351h489v-111h-489v111zM208 112q0 32 23 55t55 23t55 -23t23 -55q0 -16 -6 -30t-16.5 -24.5t-25 -17
t-30.5 -6.5t-30.5 6.5t-25 17t-16.5 24.5t-6 30z" />
    <glyph glyph-name="florin.tf" 
d="M231 379h-98v112h121l19 92q8 42 27 71.5t44.5 48.5t55.5 28t60 9q17 0 29 -1t22 -2.5t18.5 -4l19.5 -5.5v-115q-14 3 -29 5t-33 2q-10 0 -22.5 -2.5t-24.5 -10.5t-22 -22.5t-15 -39.5l-11 -53h117v-112h-140l-79 -392q-8 -41 -27 -71t-44.5 -49t-55.5 -28t-60 -9
q-35 0 -53.5 3.5t-38.5 10.5v114q14 -3 30 -5t35 -2q10 0 22.5 2.5t24.5 10.5t22 23t15 40z" />
    <glyph glyph-name="uni2007.tf" 
 />
    <glyph glyph-name="uni2008.tf" 
 />
    <glyph glyph-name="perthousand.tf" 
d="M533 517l-489 -351v97l489 352v-98zM97 536q0 -23 14 -37t34 -14q21 0 34.5 14t13.5 37t-13.5 36.5t-34.5 13.5q-20 0 -34 -13.5t-14 -36.5zM21 536q0 25 10 47.5t27 39.5t39.5 26.5t47.5 9.5t48 -9.5t40 -26.5t27 -39.5t10 -47.5q0 -26 -10 -48.5t-27 -39t-40 -25.5
t-48 -9q-26 0 -48.5 9.5t-39 26t-26.5 38.5t-10 48zM131 113q0 25 10 47.5t27 39.5t39.5 26.5t48.5 9.5t48 -10t39 -27q17 17 39.5 27t48.5 10q25 0 47.5 -9.5t40 -26.5t27.5 -39.5t10 -47.5q0 -26 -10 -48.5t-27.5 -39t-40 -25.5t-47.5 -9q-54 0 -88 36q-34 -36 -87 -36
q-26 0 -48.5 9.5t-39.5 26t-27 38.5t-10 48zM431 163q-21 0 -34 -13.5t-13 -36.5t13 -37t34 -14t34 14t13 37t-13 36.5t-34 13.5zM256 163q-21 0 -35 -13.5t-14 -36.5t14 -37t35 -14t34 14t13 37t-13 36.5t-34 13.5z" />
    <glyph glyph-name="Euro.tf" 
d="M110 326v11t1 17h-66v94h85q18 51 50 91t73 68t90 42.5t101 14.5q43 0 69.5 -5.5t51.5 -15.5l-33 -113q-16 6 -37.5 10t-50.5 4q-51 0 -96.5 -22.5t-72.5 -73.5h234l-27 -94h-233q-2 -10 -2 -17.5v-15.5q0 -11 0.5 -18.5t1.5 -12.5h218l-27 -94h-162q27 -45 71.5 -67
t96.5 -22q29 0 50.5 4t37.5 10l31 -112q-21 -10 -51 -17t-68 -7q-53 0 -102 14t-90 41t-73 66t-50 90h-86v94h67q-2 11 -2 21.5v14.5z" />
    <glyph glyph-name="minus.tf" 
d="M51 241v109h475v-109h-475z" />
    <glyph glyph-name="approxequal.tf" 
d="M554 404q-28 -48 -70 -74t-92 -26q-54 0 -108 30l-48 26q-27 15 -54 15q-24 -1 -46.5 -13t-39.5 -35l-73 59q29 49 70.5 75t91.5 26q52 0 108 -30l47 -26q27 -14 57 -16q51 0 86 48zM554 203q-28 -49 -70 -74.5t-93 -25.5q-53 0 -107 30l-48 26q-14 8 -27.5 11t-27.5 3
q-50 0 -85 -47l-73 59q28 48 69.5 74t90.5 27q53 0 110 -30l47 -26q30 -16 57 -16q52 0 86 47z" />
    <glyph glyph-name="notequal.tf" 
d="M256 142l-63 -97h-120l63 97h-90v108h161l59 91h-220v107h290l60 92h120l-60 -92h75v-107h-145l-59 -91h204v-108h-275z" />
    <glyph glyph-name="lessequal.tf" 
d="M504 153v-109h-430v109h430zM74 424l430 136v-110l-279 -78l279 -79v-112l-430 135v108z" />
    <glyph glyph-name="greaterequal.tf" 
d="M504 153v-109h-430v109h430zM504 316l-430 -135v110l279 78l-279 79v112l430 -136v-108z" />
    <glyph glyph-name="parenleft.case" horiz-adv-x="315" 
d="M43 354q0 80 15.5 147.5t42 125t61.5 105t75 88.5l78 -67q-38 -43 -67.5 -87t-50.5 -92t-32 -102t-11 -118t11 -118.5t32 -102.5t50.5 -92t67.5 -87l-78 -66q-40 40 -75 88t-61.5 105t-42 125t-15.5 148z" />
    <glyph glyph-name="parenright.case" horiz-adv-x="315" 
d="M272 354q0 -80 -15.5 -148t-42 -125t-61.5 -105t-75 -88l-78 66q37 43 67 87t51 92t32 102.5t11 118.5t-11 118t-32 102t-51 92t-67 87l78 67q40 -41 75 -88.5t61.5 -105t42 -125t15.5 -147.5z" />
    <glyph glyph-name="hyphen.case" horiz-adv-x="380" 
d="M45 288v118h290v-118h-290z" />
    <glyph glyph-name="bracketleft.case" horiz-adv-x="317" 
d="M81 -109v925h231v-101h-120v-721h120v-103h-231z" />
    <glyph glyph-name="bracketright.case" horiz-adv-x="317" 
d="M5 -109v103h119v721h-119v101h231v-925h-231z" />
    <glyph glyph-name="braceleft.case" horiz-adv-x="375" 
d="M45 410q43 0 71.5 21t28.5 72v120q0 99 51.5 146t142.5 47h31v-101h-30q-37 0 -60 -19.5t-23 -69.5v-145q0 -48 -26.5 -81t-74.5 -45q48 -13 74.5 -45.5t26.5 -80.5v-146q0 -49 23 -69t60 -20h30v-101h-31q-91 0 -142.5 47.5t-51.5 145.5v120q0 51 -28.5 72t-71.5 21v111
z" />
    <glyph glyph-name="braceright.case" horiz-adv-x="375" 
d="M330 299q-43 0 -72 -21t-29 -72v-120q0 -98 -51.5 -145.5t-141.5 -47.5h-31v101h29q38 0 61 20t23 69v146q0 48 26 80.5t74 45.5q-48 12 -74 45t-26 81v145q0 50 -23 69.5t-61 19.5h-29v101h31q90 0 141.5 -47t51.5 -146v-120q0 -51 29 -72t72 -21v-111z" />
    <glyph glyph-name="exclamdown.case" horiz-adv-x="316" 
d="M238 0h-160l32 493h97zM79 638q0 32 23 55.5t56 23.5q32 0 55.5 -23.5t23.5 -55.5q0 -33 -23.5 -56.5t-55.5 -23.5q-33 0 -56 23.5t-23 56.5z" />
    <glyph glyph-name="guillemotleft.case" horiz-adv-x="524" 
d="M164 151l-137 194l138 197h125l-136 -198l136 -193h-126zM380 151l-136 194l137 197h126l-137 -198l136 -193h-126z" />
    <glyph glyph-name="uni00AD.case" horiz-adv-x="380" 
d="M45 295v118h290v-118h-290z" />
    <glyph glyph-name="guillemotright.case" horiz-adv-x="524" 
d="M234 151l136 193l-136 198h125l138 -197l-137 -194h-126zM18 151l135 193l-136 198h125l138 -197l-136 -194h-126z" />
    <glyph glyph-name="questiondown.case" horiz-adv-x="517" 
d="M326 494q3 -20 3 -41q0 -41 -16.5 -77.5t-60.5 -68.5l-48 -35q-23 -17 -32.5 -36.5t-9.5 -42.5q0 -35 24.5 -62t74.5 -27q26 0 45.5 9t32 24t19 34t6.5 39q0 11 -1.5 22t-4.5 19l128 -12q5 -23 5 -44q0 -41 -15 -78.5t-44 -67t-72 -47t-99 -17.5q-58 0 -102 17t-73.5 45
t-44.5 63.5t-15 73.5q0 60 26.5 103.5t70.5 74.5l41 29q26 18 40 42t14 55v6h108zM191 638q0 33 23.5 56t56.5 23t56 -23t23 -56t-23 -56t-56 -23t-56.5 23t-23.5 56z" />
    <glyph glyph-name="endash.case" horiz-adv-x="632" 
d="M59 289v115h516v-115h-516z" />
    <glyph glyph-name="emdash.case" horiz-adv-x="1076" 
d="M69 289v115h940v-115h-940z" />
    <glyph glyph-name="guilsinglleft.case" horiz-adv-x="307" 
d="M164 151l-137 194l138 197h125l-136 -198l136 -193h-126z" />
    <glyph glyph-name="guilsinglright.case" horiz-adv-x="307" 
d="M18 151l135 193l-136 198h126l137 -197l-136 -194h-126z" />
    <glyph glyph-name="G.ss01" horiz-adv-x="774" 
d="M405 -15q-75 0 -141.5 26t-116.5 74.5t-79 116.5t-29 152t29.5 152.5t79.5 116.5t116 74.5t138 26.5t127.5 -20t96 -52.5t66.5 -73.5t37 -84l-135 -38q-6 24 -20 49t-37 45.5t-56.5 33t-78.5 12.5q-41 0 -80.5 -14t-71 -43.5t-51 -75.5t-19.5 -109q0 -60 18.5 -105
t49 -75.5t71.5 -46t86 -15.5q35 0 67 9t57 26.5t41.5 42t22.5 55.5h-250v120h394q2 -12 2.5 -24.5t0.5 -26.5q-1 -68 -24 -128t-66 -104.5t-105 -70.5t-140 -26z" />
    <glyph glyph-name="Gcircumflex.ss01" horiz-adv-x="774" 
d="M405 -15q-75 0 -141.5 26t-116.5 74.5t-79 116.5t-29 152t29.5 152.5t79.5 116.5t116 74.5t138 26.5t127.5 -20t96 -52.5t66.5 -73.5t37 -84l-135 -38q-6 24 -20 49t-37 45.5t-56.5 33t-78.5 12.5q-41 0 -80.5 -14t-71 -43.5t-51 -75.5t-19.5 -109q0 -60 18.5 -105
t49 -75.5t71.5 -46t86 -15.5q35 0 67 9t57 26.5t41.5 42t22.5 55.5h-250v120h394q2 -12 2.5 -24.5t0.5 -26.5q-1 -68 -24 -128t-66 -104.5t-105 -70.5t-140 -26zM223 759l120 127h136l122 -127h-125l-67 65l-65 -65h-121z" />
    <glyph glyph-name="Gbreve.ss01" horiz-adv-x="774" 
d="M405 -15q-75 0 -141.5 26t-116.5 74.5t-79 116.5t-29 152t29.5 152.5t79.5 116.5t116 74.5t138 26.5t127.5 -20t96 -52.5t66.5 -73.5t37 -84l-135 -38q-6 24 -20 49t-37 45.5t-56.5 33t-78.5 12.5q-41 0 -80.5 -14t-71 -43.5t-51 -75.5t-19.5 -109q0 -60 18.5 -105
t49 -75.5t71.5 -46t86 -15.5q35 0 67 9t57 26.5t41.5 42t22.5 55.5h-250v120h394q2 -12 2.5 -24.5t0.5 -26.5q-1 -68 -24 -128t-66 -104.5t-105 -70.5t-140 -26zM396 753q-41 0 -71 12t-50.5 31t-30.5 43.5t-11 48.5h102q1 -20 15.5 -35.5t45.5 -15.5t45.5 15.5t15.5 35.5
h102q-1 -24 -11 -48.5t-30.5 -43.5t-50.5 -31t-71 -12z" />
    <glyph glyph-name="Gdotaccent.ss01" horiz-adv-x="774" 
d="M405 -15q-75 0 -141.5 26t-116.5 74.5t-79 116.5t-29 152t29.5 152.5t79.5 116.5t116 74.5t138 26.5t127.5 -20t96 -52.5t66.5 -73.5t37 -84l-135 -38q-6 24 -20 49t-37 45.5t-56.5 33t-78.5 12.5q-41 0 -80.5 -14t-71 -43.5t-51 -75.5t-19.5 -109q0 -60 18.5 -105
t49 -75.5t71.5 -46t86 -15.5q35 0 67 9t57 26.5t41.5 42t22.5 55.5h-250v120h394q2 -12 2.5 -24.5t0.5 -26.5q-1 -68 -24 -128t-66 -104.5t-105 -70.5t-140 -26zM322 836q0 34 23.5 57t56.5 23q34 0 57.5 -23t23.5 -57q0 -33 -23.5 -56t-57.5 -23q-33 0 -56.5 23t-23.5 56z
" />
    <glyph glyph-name="Gcommaaccent.ss01" horiz-adv-x="774" 
d="M405 -15q-75 0 -141.5 26t-116.5 74.5t-79 116.5t-29 152t29.5 152.5t79.5 116.5t116 74.5t138 26.5t127.5 -20t96 -52.5t66.5 -73.5t37 -84l-135 -38q-6 24 -20 49t-37 45.5t-56.5 33t-78.5 12.5q-41 0 -80.5 -14t-71 -43.5t-51 -75.5t-19.5 -109q0 -60 18.5 -105
t49 -75.5t71.5 -46t86 -15.5q35 0 67 9t57 26.5t41.5 42t22.5 55.5h-250v120h394q2 -12 2.5 -24.5t0.5 -26.5q-1 -68 -24 -128t-66 -104.5t-105 -70.5t-140 -26zM336 -102q0 27 20.5 45.5t52.5 18.5q34 0 57.5 -24t23.5 -63t-13.5 -63.5t-34.5 -38.5t-46 -19.5t-47 -5.5v48
q36 0 57 13.5t24 33.5q-3 -2 -10.5 -4.5t-18.5 -2.5q-31 0 -48 17.5t-17 44.5z" />
    <glyph glyph-name="a.ss02" horiz-adv-x="612" 
d="M168 248q0 -67 34.5 -107t88.5 -40q52 0 86.5 39.5t34.5 107.5t-34 105.5t-87 37.5q-54 0 -88.5 -37.5t-34.5 -105.5zM413 67q-16 -35 -52 -58t-86 -23q-54 0 -98.5 20t-76 55t-49 83t-17.5 104q0 54 17 101t48 82t74.5 55t97.5 20q33 0 57.5 -8t41.5 -19t27 -24.5
t15 -23.5v61h129v-403q0 -33 1.5 -57t2.5 -32h-127q-2 8 -3.5 25.5t-1.5 35.5v6z" />
    <glyph glyph-name="agrave.ss02" horiz-adv-x="612" 
d="M168 248q0 -67 34.5 -107t88.5 -40q52 0 86.5 39.5t34.5 107.5t-34 105.5t-87 37.5q-54 0 -88.5 -37.5t-34.5 -105.5zM413 67q-16 -35 -52 -58t-86 -23q-54 0 -98.5 20t-76 55t-49 83t-17.5 104q0 54 17 101t48 82t74.5 55t97.5 20q33 0 57.5 -8t41.5 -19t27 -24.5
t15 -23.5v61h129v-403q0 -33 1.5 -57t2.5 -32h-127q-2 8 -3.5 25.5t-1.5 35.5v6zM118 701h154l90 -150h-108z" />
    <glyph glyph-name="aacute.ss02" horiz-adv-x="612" 
d="M316 551h-107l91 150h152zM168 248q0 -67 34.5 -107t88.5 -40q52 0 86.5 39.5t34.5 107.5t-34 105.5t-87 37.5q-54 0 -88.5 -37.5t-34.5 -105.5zM413 67q-16 -35 -52 -58t-86 -23q-54 0 -98.5 20t-76 55t-49 83t-17.5 104q0 54 17 101t48 82t74.5 55t97.5 20
q33 0 57.5 -8t41.5 -19t27 -24.5t15 -23.5v61h129v-403q0 -33 1.5 -57t2.5 -32h-127q-2 8 -3.5 25.5t-1.5 35.5v6z" />
    <glyph glyph-name="acircumflex.ss02" horiz-adv-x="612" 
d="M123 552l110 147h132l110 -147h-107l-71 75l-70 -75h-104zM168 248q0 -67 34.5 -107t88.5 -40q52 0 86.5 39.5t34.5 107.5t-34 105.5t-87 37.5q-54 0 -88.5 -37.5t-34.5 -105.5zM413 67q-16 -35 -52 -58t-86 -23q-54 0 -98.5 20t-76 55t-49 83t-17.5 104q0 54 17 101
t48 82t74.5 55t97.5 20q33 0 57.5 -8t41.5 -19t27 -24.5t15 -23.5v61h129v-403q0 -33 1.5 -57t2.5 -32h-127q-2 8 -3.5 25.5t-1.5 35.5v6z" />
    <glyph glyph-name="atilde.ss02" horiz-adv-x="612" 
d="M168 248q0 -67 34.5 -107t88.5 -40q52 0 86.5 39.5t34.5 107.5t-34 105.5t-87 37.5q-54 0 -88.5 -37.5t-34.5 -105.5zM413 67q-16 -35 -52 -58t-86 -23q-54 0 -98.5 20t-76 55t-49 83t-17.5 104q0 54 17 101t48 82t74.5 55t97.5 20q33 0 57.5 -8t41.5 -19t27 -24.5
t15 -23.5v61h129v-403q0 -33 1.5 -57t2.5 -32h-127q-2 8 -3.5 25.5t-1.5 35.5v6zM475 678q0 -63 -30 -93t-77 -30q-21 0 -39 6t-32 16l-6 4l-19.5 12t-27.5 6q-16 0 -25 -10t-10 -33h-82v21q0 61 31.5 91t77.5 30q22 0 39 -7t33 -15l6 -4q13 -8 24.5 -13.5t23.5 -5.5
q33 0 33 43h80v-18z" />
    <glyph glyph-name="adieresis.ss02" horiz-adv-x="612" 
d="M121 628q0 29 20.5 50t49.5 21t50 -21t21 -50t-21 -49.5t-50 -20.5t-49.5 20.5t-20.5 49.5zM331 628q0 29 20 50t50 21q29 0 50 -21t21 -50t-21 -49.5t-50 -20.5q-30 0 -50 20.5t-20 49.5zM168 248q0 -67 34.5 -107t88.5 -40q52 0 86.5 39.5t34.5 107.5t-34 105.5
t-87 37.5q-54 0 -88.5 -37.5t-34.5 -105.5zM413 67q-16 -35 -52 -58t-86 -23q-54 0 -98.5 20t-76 55t-49 83t-17.5 104q0 54 17 101t48 82t74.5 55t97.5 20q33 0 57.5 -8t41.5 -19t27 -24.5t15 -23.5v61h129v-403q0 -33 1.5 -57t2.5 -32h-127q-2 8 -3.5 25.5t-1.5 35.5v6z
" />
    <glyph glyph-name="aring.ss02" horiz-adv-x="612" 
d="M404 648q0 -24 -9.5 -44t-25 -35t-36.5 -23t-44 -8t-44 8t-36.5 23t-25 35t-9.5 44t9.5 44.5t25 35.5t36.5 23.5t44 8.5t44 -8.5t36.5 -23.5t25 -35.5t9.5 -44.5zM329 648q0 19 -12 30.5t-29 11.5t-28.5 -11.5t-11.5 -30.5q0 -18 11.5 -29.5t28.5 -11.5t29 11.5t12 29.5z
M168 248q0 -67 34.5 -107t88.5 -40q52 0 86.5 39.5t34.5 107.5t-34 105.5t-87 37.5q-54 0 -88.5 -37.5t-34.5 -105.5zM413 67q-16 -35 -52 -58t-86 -23q-54 0 -98.5 20t-76 55t-49 83t-17.5 104q0 54 17 101t48 82t74.5 55t97.5 20q33 0 57.5 -8t41.5 -19t27 -24.5t15 -23.5
v61h129v-403q0 -33 1.5 -57t2.5 -32h-127q-2 8 -3.5 25.5t-1.5 35.5v6z" />
    <glyph glyph-name="amacron.ss02" horiz-adv-x="612" 
d="M168 248q0 -67 34.5 -107t88.5 -40q52 0 86.5 39.5t34.5 107.5t-34 105.5t-87 37.5q-54 0 -88.5 -37.5t-34.5 -105.5zM413 67q-16 -35 -52 -58t-86 -23q-54 0 -98.5 20t-76 55t-49 83t-17.5 104q0 54 17 101t48 82t74.5 55t97.5 20q33 0 57.5 -8t41.5 -19t27 -24.5
t15 -23.5v61h129v-403q0 -33 1.5 -57t2.5 -32h-127q-2 8 -3.5 25.5t-1.5 35.5v6zM149 577v97h281v-97h-281z" />
    <glyph glyph-name="abreve.ss02" horiz-adv-x="612" 
d="M168 248q0 -67 34.5 -107t88.5 -40q52 0 86.5 39.5t34.5 107.5t-34 105.5t-87 37.5q-54 0 -88.5 -37.5t-34.5 -105.5zM413 67q-16 -35 -52 -58t-86 -23q-54 0 -98.5 20t-76 55t-49 83t-17.5 104q0 54 17 101t48 82t74.5 55t97.5 20q33 0 57.5 -8t41.5 -19t27 -24.5
t15 -23.5v61h129v-403q0 -33 1.5 -57t2.5 -32h-127q-2 8 -3.5 25.5t-1.5 35.5v6zM294 549q-39 0 -69 12.5t-50 33.5t-30.5 48.5t-11.5 56.5h89q1 -20 17.5 -39.5t54.5 -19.5q19 0 32 5.5t22 14t13 19t5 20.5h89q-1 -29 -11 -56.5t-30.5 -48.5t-50 -33.5t-69.5 -12.5z" />
    <glyph glyph-name="aogonek.ss02" horiz-adv-x="612" 
d="M493 -223q-54 0 -88.5 29t-34.5 78q0 45 22 72t50 44h-24q-2 8 -3.5 25.5t-1.5 35.5v6q-16 -35 -52 -58t-86 -23q-54 0 -98.5 20t-76 55t-49 83t-17.5 104q0 54 17 101t48 82t74.5 55t97.5 20q33 0 57.5 -8t41.5 -19t27 -24.5t15 -23.5v61h129v-403q0 -26 1 -49.5
t3 -39.5q-14 -7 -28.5 -16.5t-25.5 -21.5t-18 -26t-7 -30q0 -23 14.5 -34t34.5 -11q16 0 30 3v-79q-10 -4 -22.5 -6t-29.5 -2zM168 248q0 -67 34.5 -107t88.5 -40q52 0 86.5 39.5t34.5 107.5t-34 105.5t-87 37.5q-54 0 -88.5 -37.5t-34.5 -105.5z" />
    <glyph glyph-name="aringacute.ss02" horiz-adv-x="612" 
d="M341 784h-107l91 150h152zM405 644q0 -24 -9.5 -44t-25 -35t-36.5 -23t-44 -8t-44 8t-36.5 23t-25 35t-9.5 44t9.5 44.5t25 35.5t36.5 23.5t44 8.5t44 -8.5t36.5 -23.5t25 -35.5t9.5 -44.5zM330 644q0 19 -12 30.5t-29 11.5t-28.5 -11.5t-11.5 -30.5q0 -18 11.5 -29.5
t28.5 -11.5t29 11.5t12 29.5zM168 248q0 -67 34.5 -107t88.5 -40q52 0 86.5 39.5t34.5 107.5t-34 105.5t-87 37.5q-54 0 -88.5 -37.5t-34.5 -105.5zM413 67q-16 -35 -52 -58t-86 -23q-54 0 -98.5 20t-76 55t-49 83t-17.5 104q0 54 17 101t48 82t74.5 55t97.5 20
q33 0 57.5 -8t41.5 -19t27 -24.5t15 -23.5v61h129v-403q0 -33 1.5 -57t2.5 -32h-127q-2 8 -3.5 25.5t-1.5 35.5v6z" />
    <glyph glyph-name="r.ss03" horiz-adv-x="397" 
d="M204 413q2 36 27 61t62 25q38 0 63.5 -25.5t25.5 -63.5t-25.5 -63.5t-63.5 -25.5q-37 0 -62 24.5t-27 60.5v-406h-133v492h133v-79z" />
    <glyph glyph-name="racute.ss03" horiz-adv-x="397" 
d="M211 551h-107l91 150h152zM204 413q2 36 27 61t62 25q38 0 63.5 -25.5t25.5 -63.5t-25.5 -63.5t-63.5 -25.5q-37 0 -62 24.5t-27 60.5v-406h-133v492h133v-79z" />
    <glyph glyph-name="rcommaaccent.ss03" horiz-adv-x="397" 
d="M62 -102q0 27 20.5 45.5t52.5 18.5q34 0 57.5 -24t23.5 -63t-13.5 -63.5t-34.5 -38.5t-46 -19.5t-47 -5.5v48q36 0 57 13.5t24 33.5q-3 -2 -10.5 -4.5t-18.5 -2.5q-31 0 -48 17.5t-17 44.5zM204 413q2 36 27 61t62 25q38 0 63.5 -25.5t25.5 -63.5t-25.5 -63.5
t-63.5 -25.5q-37 0 -62 24.5t-27 60.5v-406h-133v492h133v-79z" />
    <glyph glyph-name="rcaron.ss03" horiz-adv-x="397" 
d="M151 700l70 -75l70 75h105l-109 -148h-133l-110 148h107zM204 413q2 36 27 61t62 25q38 0 63.5 -25.5t25.5 -63.5t-25.5 -63.5t-63.5 -25.5q-37 0 -62 24.5t-27 60.5v-406h-133v492h133v-79z" />
    <glyph glyph-name="ampersand.ss04" horiz-adv-x="707" 
d="M385 347h289v-114h-73v-4q-2 -50 -20.5 -94t-53 -77.5t-85 -53t-115.5 -19.5q-63 0 -113 16.5t-85.5 45t-54 68t-18.5 85.5q0 37 12.5 68t33 54.5t46.5 39.5t53 23q-47 16 -78 56.5t-31 94.5q0 40 16.5 74.5t46 59.5t70 39.5t89.5 14.5q61 0 104 -16.5t71 -44t42 -63
t16 -72.5l-132 -16q-2 44 -26 71.5t-74 27.5q-34 0 -61.5 -21t-27.5 -59q0 -23 9 -39.5t23 -27t30 -15.5t30 -5h11v-114q-23 0 -46.5 -6t-42.5 -20t-31.5 -36.5t-12.5 -55.5q0 -20 8 -40t24.5 -35.5t41.5 -25t60 -9.5q60 0 95.5 33t37.5 94v4h-78v114z" />
    <glyph glyph-name="one.ss05" horiz-adv-x="487" 
d="M191 117v317h-150v93q72 1 115 36t53 86h119v-532h148v-117h-437v117h152z" />
    <glyph glyph-name="registered.ss06" horiz-adv-x="429" 
d="M23 526q0 39 15 74t41 61t61 41t74 15t74 -15t61.5 -41t41.5 -61t15 -74t-15 -74t-41.5 -61t-61.5 -41t-74 -15t-74 15t-61 41t-41 61t-15 74zM76 526q0 -30 10.5 -55.5t29 -44.5t44 -30t54.5 -11t54.5 11t44 30t29.5 44.5t11 55.5t-11 55.5t-29.5 44.5t-44 30t-54.5 11
t-54.5 -11t-44 -30t-29 -44.5t-10.5 -55.5zM210 496h-12v-65h-55v196h84q29 0 49 -19t20 -47q0 -19 -9.5 -33t-25.5 -22l36 -75h-59zM214 541q25 0 25 20t-25 20h-16v-40h16z" />
    <glyph glyph-name="caron.alt" horiz-adv-x="213" 
d="M115 511h-89l29 198h132z" />
    <glyph glyph-name="commaaccent" horiz-adv-x="207" 
d="M26 685q0 27 20.5 45.5t52.5 18.5q34 0 57.5 -24t23.5 -62q0 -40 -14 -64.5t-35.5 -38.5t-46 -19t-45.5 -5v47q36 0 57 13t24 33q-2 -1 -10 -4t-19 -3q-31 0 -48 18t-17 45z" />
    <glyph glyph-name="commaturn" horiz-adv-x="186" 
d="M171 605q0 -28 -20.5 -46t-52.5 -18q-35 0 -58 24t-23 62q0 36 13.5 60t34.5 39t46 21.5t47 6.5v-48q-37 0 -58 -14t-23 -32q1 1 9 4t19 3q32 0 49 -18t17 -44z" />
    <glyph glyph-name="dieresis.narrow" horiz-adv-x="332" 
d="M15 629q0 28 19.5 47.5t48.5 19.5q28 0 47.5 -19.5t19.5 -47.5q0 -29 -19.5 -48.5t-47.5 -19.5q-29 0 -48.5 19.5t-19.5 48.5zM183 629q0 28 19 47.5t47 19.5q29 0 48.5 -19.5t19.5 -47.5q0 -29 -19.5 -48.5t-48.5 -19.5q-28 0 -47 19.5t-19 48.5z" />
    <glyph glyph-name="dieresis.uc.narrow" horiz-adv-x="353" 
d="M16 823q0 29 19.5 49t48.5 20t49.5 -20t20.5 -49t-20.5 -49t-49.5 -20t-48.5 20t-19.5 49zM200 823q0 29 19.5 49t48.5 20t49 -20t20 -49t-20 -49t-49 -20t-48.5 20t-19.5 49z" />
    <glyph glyph-name="grave.uc" horiz-adv-x="292" 
d="M10 886h163l104 -127h-122z" />
    <glyph glyph-name="dieresis.uc" horiz-adv-x="444" 
d="M21 823q0 30 20 51t51 21t52 -21t21 -51q0 -31 -21 -51.5t-52 -20.5t-51 20.5t-20 51.5zM279 823q0 30 20.5 51t51.5 21t52 -21t21 -51q0 -31 -21 -51.5t-52 -20.5t-51.5 20.5t-20.5 51.5z" />
    <glyph glyph-name="macron.uc" horiz-adv-x="337" 
d="M16 774v100h305v-100h-305z" />
    <glyph glyph-name="acute.uc" horiz-adv-x="292" 
d="M137 759h-122l103 127h164z" />
    <glyph glyph-name="circumflex.uc" horiz-adv-x="411" 
d="M19 759l120 127h136l122 -127h-125l-67 65l-65 -65h-121z" />
    <glyph glyph-name="caron.uc" horiz-adv-x="411" 
d="M143 886l66 -64l67 64h121l-122 -127h-136l-120 127h124z" />
    <glyph glyph-name="breve.uc" horiz-adv-x="368" 
d="M184 753q-41 0 -71 12t-50.5 31t-30.5 43.5t-11 48.5h102q1 -20 15.5 -35.5t45.5 -15.5t45.5 15.5t15.5 35.5h102q-1 -24 -11 -48.5t-30.5 -43.5t-50.5 -31t-71 -12z" />
    <glyph glyph-name="dotaccent.uc" horiz-adv-x="193" 
d="M16 833q0 34 23.5 57t56.5 23q34 0 57.5 -23t23.5 -57q0 -33 -23.5 -56t-57.5 -23q-33 0 -56.5 23t-23.5 56z" />
    <glyph glyph-name="ring.uc" horiz-adv-x="294" 
d="M278 870q0 -28 -10.5 -51t-28.5 -40t-42 -26.5t-50 -9.5t-49.5 9.5t-41.5 26.5t-29 40t-11 51t11 51t29 40t41.5 26.5t49.5 9.5t50 -9.5t42 -26.5t28.5 -40t10.5 -51zM194 870q0 22 -13.5 34.5t-33.5 12.5t-34 -12.5t-14 -34.5t14 -35t34 -13t33.5 13t13.5 35z" />
    <glyph glyph-name="tilde.uc" horiz-adv-x="372" 
d="M356 862q0 -55 -29.5 -82.5t-71.5 -27.5q-23 0 -41.5 7t-33.5 17l-6 4l-25.5 14t-22.5 6q-29 0 -29 -43h-80v27q0 55 30 82t71 27q23 0 41.5 -7t34.5 -16l6 -4l25 -13t22 -6q12 0 20.5 7t8.5 24v12h80v-28z" />
    <glyph glyph-name="hungarumlaut.uc" horiz-adv-x="383" 
d="M102 759h-86l53 127h127zM259 759h-88l67 127h129z" />
    <glyph glyph-name="caron.alt.uc" horiz-adv-x="212" 
d="M120 501h-94l31 208h138z" />
    <glyph glyph-name="undercommaaccent" horiz-adv-x="187" 
d="M16 -102q0 27 20.5 45.5t52.5 18.5q34 0 57.5 -24t23.5 -63t-13.5 -63.5t-34.5 -38.5t-46 -19.5t-47 -5.5v48q36 0 57 13.5t24 33.5q-3 -2 -10.5 -4.5t-18.5 -2.5q-31 0 -48 17.5t-17 44.5z" />
    </font>
</defs>
</svg>
